<svg xmlns="http://www.w3.org/2000/svg" version="1.1" xmlns:xlink="http://www.w3.org/1999/xlink" xmlns:svgjs="http://svgjs.dev/svgjs" width="500" height="500"><svg id="SvgjsSvg1025" xmlns="http://www.w3.org/2000/svg" version="1.1" xmlns:xlink="http://www.w3.org/1999/xlink" viewBox="0 0 500 500">
  <!-- Generator: Adobe Illustrator 29.0.1, SVG Export Plug-In . SVG Version: 2.1.0 Build 192)  -->
  <defs>
    <style>
      .st0 {
        fill-opacity: .4;
      }

      .st1 {
        fill: gray;
      }
    </style>
    <mask id="SvgjsMask1024" x="-50" y="-50" width="600" height="600" maskUnits="userSpaceOnUse">
      <g id="SvgjsG1023">
        <rect class="st0" x="-50" y="-50" width="600" height="600"></rect>
      </g>
    </mask>
  </defs>
  <g>
    <path class="st1" d="M277.8,212.9c0-.7-.1-1.3-.5-1.6,0,.7,0,1.4.5,1.6Z"></path>
    <path class="st1" d="M252.3,215v.9c1.5.4,1.4-1.3,0-.9Z"></path>
    <path class="st1" d="M226.8,217.3c-.1-.4.7-1,0-1.2.1.4-.7,1,0,1.2Z"></path>
    <path class="st1" d="M235.7,216.4c-.6,0-.6.5-.7.9.6,0,.6-.5.7-.9Z"></path>
    <path class="st1" d="M233.6,217.3c0-.3.4-.5,0-.7,0,.3-.4.5,0,.7Z"></path>
    <path class="st1" d="M234.7,217.3c.7-1.1-.8-.6,0,0Z"></path>
    <path class="st1" d="M251.8,219.2h.5v-.5h-.5v.5Z"></path>
    <path class="st1" d="M245.3,250.1h.5v-.5h-.5v.5Z"></path>
    <path class="st1" d="M212.7,260c0-.1.6-.9,0-.9.2.4-.7.8,0,.9Z"></path>
    <path class="st1" d="M210.4,266.6s0,.2,0,.2c-1.1,1.3,1.1-.4,0-.2Z"></path>
    <path class="st1" d="M224.7,278c.2,0,.5,0,.5-.1,0-.2-.2-.4-.4-.4-.1,0-.4,0-.4.2,0,.2.3.1.3.3h0Z"></path>
    <path class="st1" d="M206.2,280.1c-.8,1.5.7,1,0,0Z"></path>
    <path class="st1" d="M212.3,286.9c.2,0,.1-1.3-.2-.5,0,.1,0,.5.2.5Z"></path>
    <path class="st1" d="M232.6,310.4c.2-.1.1-.5,0-.7-.3-.3-.7.4-.6.7.2,0,.5.1.7,0h0Z"></path>
    <path class="st1" d="M226.3,310.6c.2.6-.7,1.3,0,1.6-.2-.6.7-1.3,0-1.6Z"></path>
    <path class="st1" d="M307.7,322.3c-.5-1.5-.8-3.1-1.1-4.6-.4-1.6-.8-3.1-1.1-4.7-3-12.6-5.6-25.2-8.4-37.8-.8-3.9-1.7-7.8-2.6-11.7,0-.4.6-.5.9-.8.4-.5-.1-1.2-.2-1.7-.2-.6-.3-1.3-.6-1.9-.1-.3-.3-.5-.6-.7-.3-.2-.6-.3-.7-.5-.3-.5-.3-1.2-.3-1.8-.1-.8-.3-1.6-.5-2.4-.3-1.6-.7-3.1-1-4.7-1.4-6.3-2.8-12.6-4.2-19-2.6-11.9-5.4-23.8-7.7-35.7,3.4,0,6.9-.5,10.3,0,0-.8.1-1.5,0-2.3,0-.4-.1-.7-.2-1,0-.4,0-.8,0-1.2s-.6-.4-.9-.4c-.8,0-1.7,0-2.5,0-1.6,0-3.2.2-4.7.3-.7,0-1.5,0-2.2.1-.7,0-.9-.2-1.1-.9-1.4-6.2-2.8-12.4-4.2-18.6-.2-.7-.3-1.3-.5-2,1.3.3,1.3-1.6,1.2-2.4,0-.7-.3-1.6.4-2.1.5-.4,1.2-.7,1-1.4.8.7,2.2.6,2.9-.3.6-.8.6-2.4-.6-2.7-.6-.2-1.3,0-1.9,0-.8,0-1.7,0-2.5,0-1.6-.1-3.2-.3-4.7-.4-1.6-.1-3.2-.2-4.8-.2-1.6,0-3.2.2-4.8.5-3.1.5-6.3,1.1-9.4,1.6-1.8.3-3.6.7-5.4.9-1.4.2-2.9.2-4.2.8-.9.4-1.9,1.2-1.2,2.3.6.9,2,.6,2.9.5,0,.6-.4,1.2-.5,1.8,0,.3,0,.6-.1.8-.2.3-.4.6-.5.9-.5,1.5-1.1,3-1.5,4.5-.2.7-.3,1.4-.6,2.1-.3.7-.7,1.4-.9,2.2-.3.7-.5,1.3-.6,2.1-.1.7-.4,1.4-.6,2.1-.9,3-2,5.9-3,8.9-1,3-1.9,6.1-2.9,9.1-.7,2.1-1.3,4.1-2,6.2-.4,1-.7,2-1,3-.3,1-.8,2-1.1,3-.3.9-.3,1.8-.8,2.6,0,.1-.2.3-.1.5.1.1-.2.6-.2.7-.2.5-.4,1.1-.6,1.6-.7,2.2-1.4,4.4-2.1,6.6h.2c-.8,1.5-1.2,3.1-1.7,4.6-.3.8-.5,1.6-.8,2.4,0,.1-.5,1-.1,1-.4.5-.6,1.1-.8,1.8-.2.7-.5,1.4-.7,2.1-.2.7-.5,1.4-.6,2.1-.2.7-.6,1.3-.8,2s-.5,1.3-.7,2c-.1.3,0,.6-.1.9,0,.4-.3.7-.4,1-.2.6-.3,1.3-.6,1.9-.3.7-.6,1.3-.7,2.1-.3,1.5-.8,2.8-1.3,4.2-.5,1.5-1,3-1.5,4.5-1,3.1-1.9,6.2-2.9,9.2-2,6.2-3.9,12.3-5.8,18.5-1,3.1-2,6.2-2.9,9.3-.5,1.5-.8,3-1.4,4.4-.1.2-.3.6-.3,1l-1,2.7h0c0,.3-.1.6-.2.9-.2.8-.5,1.6-.7,2.3-.5,1.5-1,3-1.5,4.5-.9,3-1.9,6-2.8,9-.5,1.8-1.1,3.5-2,5.1-.4.7-.8,1.4-.7,2.2,0,.3.2.8.6.9.2,0,.4,0,.5.1.2.2.4.3.6.4-.2.2.5.4.6.4.3,0,.6,0,.9.2.3.1.5,0,.7-.2,1.1-.7,2.4-.8,3.7-.9.7,0,1.4-.1,2-.3.5-.1.7-.5.8-1,.4-1.5.8-2.9,1.4-4.3.5-1.4.8-2.8,1.2-4.1.4-1.5,1-2.9,1.4-4.3.4-1.4.8-2.7,1.3-4.1.2-.5.5-.9.5-1.5,0-.3-.1-.3-.3-.5-.3-.2,0-.5,0-.7.5.3,1.2.3,1.8.5.8.2,1.5.5,2.2.8,1.4.6,2.8,1.2,4.3,1.6.6.2,1.3.1,1.9.4.2.1.5.3.7.4.4.1.8.2,1.2.3,1.3.4,2.3,1.3,3.6,1.7.7.2,1.3.3,2,.3.6,0,.9-.2,1.1-.8.1-.5.5-1.2.3-1.7-.1-.5-.7-.4-1.1-.4-.6,0-1.2-.2-1.7-.4-.7-.3-1.4-.6-2.2-.9-1.5-.6-2.9-1.1-4.4-1.6-3-1-6-2-9-3.1-1.5-.5-2.9-1.1-4.4-1.7-.3-.1-.8-.2-1-.5-.3-.3,1.3-.3,1.4-.3,1.6,0,3.1-.3,4.7-.6,1.5-.2,2.8.4,4.1.9,3,1.1,6,2,9,3,1.5.5,2.9,1,4.4,1.4.3,0,1,.2,1.1.6,0,.3,0,.5-.1.8-.1.4-.2.8-.3,1.2-.7,3.1-1.3,6.1-2.1,9.2-.8,3-1.4,6.1-2.1,9.2-.4,1.5-.8,3-1.1,4.6-.3,1.5-.7,2.9-1,4.4-.1.6-.2,1.3-.3,1.9-.1.6-.4,1.4-.3,2,.2.9,1.3,1.4,2.1,1.2,0,.1.6,0,.7,0,.8-.1,1.6-.2,2.4-.3,1.5-.2,3.1-.5,4.6-.8.5,0,1.1,0,1.2-.6.1-.7.2-1.5.3-2.2.3-1.5.6-3.1.9-4.6.7-3.1,1.4-6.3,1.9-9.4.1-.7.1-1.5.3-2.1.2-.7.6-1.3.7-2,.3-1.4.8-2.9.8-4.4,0-.9.8-1.6.4-2.5.7.2.6-1.2.6-1.6,0-.7.3-1.4.5-2,.2-.8.3-1.6.5-2.3.8-3.1,1.5-6.3,2.2-9.4.7-3.1,1.5-6.2,2.2-9.3.4-1.5.8-3,1.1-4.6.3-1.4.6-2.9.9-4.3,0-.5.3-.9.4-1.4,0-.6.2-1.1.4-1.7.3-1.1.6-2.2.8-3.3.2-1.1.6-2.1.7-3.2,0-.5.3-1.1.4-1.6,0-.3,0-.5,0-.8,0-.3.1-.6.2-.8.7-2.1,1-4.3,1.6-6.4,0-.3.8-2.8.5-2.9.4-.4.2-1,.3-1.5.2-.7.5-1.4.7-2.1.4-1.4.6-2.9.9-4.3.7-3,1.4-6,2.1-8.9.7-3,1.3-6,2-9,.3-1.5.6-3,.9-4.5,0-.3,0-.7.2-1,.1-.3.3-.5.3-.9,0,0,.2-1.4.3-1.3.1,0,0,.6,0,.7,0,.3.2.6.2,1,0,.6,0,1.2.2,1.8.2.6.3,1.3.3,1.9,0,.6.3,1.1.2,1.7,0,.6.2,1.1.2,1.7,0,.3,0,.5,0,.8,0,.3.2.5.2.9,0,.3,0,.5,0,.8,0,.3.2.6.2.9,0,.6,0,1.2.4,1.7-.2,0-.2.7-.2.9,0,.3.1.6.2.9.1.4.1.8.2,1.2,0,.7.3,1.4.4,2.1,0,.4,0,.7,0,1.1,0,.4.2.8.2,1.2,0,.4.2.7.2,1,0,.4,0,.7.1,1,.2.7.2,1.5.3,2.2.2,1.5.5,2.9.7,4.4,0,.7.3,1.4.3,2.1,0,.8.2,1.6.3,2.4.3,1.5.4,3.1.5,4.7,0,.3.1.6.2,1,0,.3,0,.6,0,1,0,.3.2.6.3.9.1.4.1.8.2,1.2.2,1.6.3,3.2.5,4.8,1.6,12.8,3.4,25.6,5,38.4.1,1.1.3,2.2.4,3.4,0,.5,0,1,.3,1.4.2.4.6.6.9.8.7.5,1.5.9,2.4.7,1-.3,1.8-.9,2.9-.9-.6-3.1-1-6.3-1.4-9.5-.4-3.1-1.1-6.3-1.2-9.4,0-1.6.2-3.1.4-4.7.2-1.6.3-3.2.5-4.7.3-3.2.6-6.4.9-9.6s.6-6.4.9-9.6c0-.7.2-1.5.3-2.2,0-.4,0-.7,0-1.1,0-.4-.1-.8,0-1.1.2-.4.8-.2,1.2-.2.8,0,1.6,0,2.4.2.7,0,1.5.2,2.2.2.7,0,.8.4,1,.9.6,1.5,1.3,2.9,1.9,4.3,1.3,2.9,2.5,5.9,3.8,8.8,1.1,2.6,2.2,5.3,3.4,7.9.6,1.3,1.2,2.6,1.9,3.9.3.6.5,1.2.7,1.8.2.6.3,1.3.6,1.9-.4,0,.2,2.1.3,2.4.5,2,.8,4,1.3,6,.1.4.2.9.4,1.3.2.3.4.7.3,1.1,0,.4,0,.8.1,1.2.1.5.2,1.1.3,1.6,0,.5.2.9.3,1.4.1.5.4,1,.4,1.5,0,.6,0,1.4.5,1.7-.7.3.2,1.6.3,2.1.4,1.5.6,3,1,4.5.3,1.6.6,3.1.9,4.7.2.7.4,1.4.7,2.1.2.6.4,1,1.1,1.2,1.4.4,2.9,0,4.3-.1.4,0,.9,0,1.2-.2.5-.3.1-1.1,0-1.5ZM280.5,190.3c.6,0,1.2,0,1.8-.1,1.3,0,2.7-.2,4.1-.2.6,0,1.3,0,1.9,0,.2,0,.8.2.8-.2l.3.3c-.2,0-.3.2-.4.3-.2.1-.5,0-.7,0-.5,0-1.1,0-1.6.1-1.2,0-2.3.1-3.5.2-.5,0-1.1,0-1.6,0-.3,0-1.3,0-1.5-.3,0-.1.5-.2.6-.2ZM275.5,162.5c0,.5-.8.1-1.2.2,0-.5.8-.1,1.2-.2ZM272.9,307.6c.1.4-.1.6-.2.9,0-.2-.1-.9.2-.9ZM292.7,268.7c.2.2-.4.8-.6.9,0-.2.4-1.2.6-.9ZM289,242.4c0,.1,0,.8,0,.8-.2,0-.2-.7,0-.8h0ZM288.6,248.7c0-.4.3.2.2.5,0,.5-.3-.1-.2-.5ZM281.6,213.8c.3-.5.6,1,.7,1.2-.1,0-.3,0-.4,0,0,0,0,.2-.2.2-.2,0-.2-.3-.2-.5.5.2.4-1.1,0-.9ZM280.8,214.7v.3c-.8-.6-.3-1.7,0-.3h0ZM278.5,190.3c.3,0,.5,0,.8,0-.2.1,0,.4-.2.5-.2,0-.4,0-.6,0,0-.2,0-.4,0-.6h0ZM276.9,192.3c.4-.6.4.7.7.7,0,.5-.9.2-.9.7-.5-.2,1-1.1.2-1.4ZM275.5,182.2c.3.2.3.8.5,1.2-.2.5-.5-.7-.5-1.2ZM272.4,168.6c0,0-.2-.3-.2-.2.3-1.4.5,2.3.2.2ZM268.3,170.5c.5,1.6.8,3.3,1.2,4.9.2.8.4,1.7.5,2.5,0,.4.2.8.3,1.2,0,.2.3.6,0,.7h0c-.4-1.6-.7-3.1-1.1-4.7-.2-.8-.4-1.5-.5-2.3,0-.4,0-1-.4-1.1.3-.3-.2-.8,0-1.1ZM275.8,209c0,.8.1,1.6,0,2.4,0,.8-.2,1.6-.1,2.4-3.2.2-6.4,0-9.6.2-.5,0-1.5.3-2,0-.4-.3-.4-.9-.6-1.3-.4-1.4-1.1-2.8-1.9-4.1-.7-1.2-1.4-2.5-1.4-3.9,0-1.5.5-2.9,1-4.3.5-1.3,1.1-2.8,1.1-4.2,0-.6.2-.7.8-.7.8,0,1.6,0,2.4,0,1.4,0,2.7-.1,4.1-.2.7,0,1.4,0,2,0,.3,0,.6,0,.9,0,.2,0,.4,0,.5,0,0,0,0,.1,0,0,0,1.5.4,3.1.8,4.6.2.8.4,1.5.5,2.3,0,.7.3,1.5.5,2.2.2.7.3,1.5.5,2.2.2.8.4,1.6.5,2.4ZM275.5,204.2c.4,0,.3.5.4.8.1.6.3,1.2.2,1.7-.4-.8-.4-1.7-.6-2.5h0ZM263.5,213.9c-.5,0-1.1,0-1.6.1.4-.4,1-.2,1.5-.2,0,0,0,0,0,0ZM260.3,213.8c.4,0,.4.2.7.2,0,.5-1.1.3-.7-.2ZM260.3,212.4c.2-.7.3.5.2.7-.1.5-.4.2-.2-.7ZM260.3,191.8c0-.4.3.2.2.5,0,.4-.3-.1-.2-.5ZM261.2,195.1c.6-.5-.2.8,0,1.4-.7-.2,0-1,0-1.4ZM261.7,185.7s0,0,0-.1c.4.3,0,.8.3,1.1-.3,0-.3.4-.4.6-.6-.4.3-1.1,0-1.6ZM262.8,180.8h0c.3.1.3.4.2.7,0,.3,0,.6-.2.8-.2.2-.2-.2-.2-.3,0-.4.3-.8.2-1.2ZM263.3,178.9c.1-.3.2.2.2.3,0,.2,0,.7-.2.7,0,0,0,.7,0,.7-.6-.3.2-1.2,0-1.7ZM263.1,182.7c-.2-.3,0-.7.2-.9.2-.5.3-1,.4-1.6.5.8-.1,1.8-.5,2.5ZM263.8,176.8c0-.4.3.2.2.5,0,.4-.3-.2-.2-.5ZM263.1,192.5c1.1.1,2.2-.2,3.3-.3.4,0,1.3-.3,1.6.1.2.2,0,.6,0,.8-.3.4-.9.4-1.4.4-1.2,0-2.5,0-3.7.4-.1-.5.3-.9.2-1.4h0ZM262.5,183.8c-.2.6-.6,1.2-.3,1.8-.4-.3-.2-.8-.1-1.2,0-.5.3-1.1.6-1.5.2,0,0,.7-.1.8ZM261.9,188.5c-.3,0-.2-.3,0-.5,0,0,.2-.5,0-.4,0-.1.1-.3.2-.5.5.3-.2.9,0,1.4ZM274.9,201.7c-.2-1-.5-2-.7-3.1-.1-.5-.2-1-.3-1.5,0-.3-.3-.7,0-.9.5,2,1,4,1.2,6-.3-.1,0-.5-.3-.6ZM273.7,196c0-.2,0-.5,0-.8-.1-.2-.2-.3-.2-.5,0-.3,0-.5,0-.7,0-.3-.2-.5-.3-.7-.2-.5-.4-1.1-.3-1.6,0-.2.1-.8-.2-.8,0,0,.1,0,.2-.1.2,1,.5,2,.7,3,0,.5.2.9.3,1.4,0,.3.2.7,0,.9h0ZM272.5,190.4c.5-.3-.5-1.9-.6-2.3-.3-.8-.4-1.7-.6-2.6,0-.4-.2-.9-.3-1.3,0-.2-.2-.6,0-.8.4,1.3.6,2.6.9,3.9.1.7.2,1.4.4,2,0,.3.4.8,0,1.1h0ZM270.9,183.1h0c-.2-.6-.2-1.2-.4-1.9,0-.3-.4-.9,0-1.1.2.6.3,1.3.4,1.9,0,.3.4.9,0,1.1h0ZM270.9,185.8c.2,1.1.5,2.2.7,3.3.1.6.3,1.1.4,1.7-.5.2-1,.2-1.6.2-2.3.1-4.6,0-7,0,1.3-6.3,2.6-12.6,4.4-18.8,1,4.5,2,9,2.9,13.6ZM264.4,173.6c.3.2.4,1.1,0,1.2.2,0,.2-1,0-1.2ZM265.4,169.7c.3.2.2.5,0,.8-.1.3,0,.5,0,.9,0,.3-.3.6-.4.9-.1.4-.1.9,0,1.3-.5-.3-.2-1,0-1.5.2-.8.5-1.5.6-2.3,0,0,0,0,0-.1ZM265.7,175.5h-.2c-.3-.3-.1-.8,0-1,.4.2,0,.7.2,1ZM264.9,174.7c0-.2.1-.5.2-.7.1,0,.1.2.2.2-.2.3,0,.6-.1.9-.2,0-.2-.3-.2-.4h0ZM265.2,175.6c0,0,.2.6.1.7,0,.2-.3.1-.3,0,0-.2,0-.4.2-.7ZM266.1,171.9c0-.2,0-.3,0-.5.4,0,.2.6.2.8-.1.3-.1-.3-.2-.3ZM267.5,167.7c-.3.4-.9.3-1.3.5-.5.3-.5,1-.3,1.5-.5-.3-.4-1.2,0-1.5-1.6-.8-3.4-.3-5.1-.7,0-.4.6-.3.8-.2.6.1,1.3.1,1.9.2,1.3.1,2.7.3,4,.2ZM241.3,163.9c-.2.5-1.3.2-1.1-.4.2-.6,1.1-.8,1.7-.9,2.2-.4,4.4-.6,6.6-1,4.9-.8,9.8-1.6,14.6-2.5,0,.2.2.6,0,.7-.4.1-.9.2-1.3.3-1,.3-2,.4-2.9.6-2,.4-4,.7-6,1-4,.6-8.1,1.1-12.1,1.9,0,.3.5.2.7.2ZM260.3,163.2c0,.2-.2.4-.3.6-.3-.2,0-1,.3-1.1,0,.2,0,.4,0,.6h0ZM258.8,165.1c-.5.2-1.1,0-1.6,0-.6,0-1.1.3-1.7.3.1-.2-.7-.2-.8-.2-.8,0-1.6,0-2.4-.1-1.8-.1-3.6-.3-5.4-.5,4.1-.9,8.2-1.8,12.4-1.9v.9c-.6.2,0,1.1-.5,1.4h0ZM248.3,215c-.2.2-.4-.1-.4-.3,0-.4.2-.8.3-1.2.3-.9.5-1.9.7-2.8.5-1.9.9-3.8,1.3-5.7.4-1.9.9-3.8,1.3-5.7.2-1,.4-2,.7-3,.1-.5.3-.9.4-1.4.1-.3.3-.8.1-1.1.5.3.2,1.1,0,1.5-.2.8-.4,1.6-.6,2.4-.4,1.9-.9,3.9-1.3,5.8-.9,3.8-1.8,7.7-2.7,11.5h.1ZM232.6,215.4c-.5-.4-1.7-.3-1.7.5,0,.8,1.3.7,1.7.2.2.4.8.2,1.2.2.8,0,1.6,0,2.4,0,1.6-.1,3.1-.3,4.7-.5,1.5-.1,3.1,0,4.6,0,.5,0,1,0,1.2.5.2.5,0,1.1-.2,1.6s-.7.2-1,.2c-.7-.2-1.4-.2-2.1-.3-1.6,0-3.2,0-4.8,0-1.6,0-3.2,0-4.7,0-.8,0-1.5,0-2.3,0-.6,0-1.2-.5-1.4-1-.1-.3-.2-.6-.1-.8.6-.7,1.5-.9,2.4-1,.4,0,.9-.1,1.2-.5.2-.4.8-.2,1.1-.5.7-.4.5-1.4.7-2.1.3-1.1.8-2.3,1.3-3.4.1,0,.1.2.3.2-.5,1.2-.9,2.5-1.4,3.7-.2.6-.6,1.1-.6,1.7,0,.1,0,.3.2.2.2-.2.3-.5.4-.7.4.2,0,.5-.1.8,0,.4.7,0,.7.4.2-.3.5-.6.6-.9.1-.4,0-.8.2-1.1.4-.7.5-1.6.7-2.4.2-.8.7-1.5,1-2.2.3-.8.6-1.7.8-2.5.2-.8.4-1.6.7-2.3.4-.8.6-1.7.8-2.5s.5-1.7.8-2.5c.1-.4.4-.7.5-1,.1-.4.2-.9.2-1.4,1.5.2,3,0,4.5-.1.8,0,1.5-.1,2.3-.1.8,0,1.6.1,2.4.2-.7,3.1-1.4,6.2-2.1,9.3-.3,1.5-.7,3.1-1.1,4.6-.4,1.4-.9,2.8-1.1,4.3,0,.6-.3.8-.8.9-.7,0-1.5,0-2.3,0-1.6,0-3.2,0-4.8,0-2,0-4.1,0-6.1.4,0,0-.8.1-.8.3h0ZM231.5,215.7c.3-.2.7-.2.9,0,0-.1.1-.3.3-.3v.5c-.1,0-.2-.1-.3-.2-.2.3-.8.5-1,.1.1.1.1-.1.1-.2,0,0,0,0,0,0ZM237.6,247.8c-.7-.2-1.5-.3-2.2-.4-1.6-.2-3.2-.5-4.8-.7-3.3-.4-6.5-.8-9.8-1.4.7,0,1.3-.1,2-.1.5,0,1.1,0,1.7,0,.1,0,1.3-.3.8-.6-.2-.1-.6,0-.9,0-.4,0-.8,0-1.1,0-.7,0-1.4,0-2,0-.4,0-1.4.4-1.8,0-.5-.5,1.1-.5,1.3-.4.7,0,1.4-.1,2.1-.4h0c.2.3.7.4.9,0,0-.1.4-.8.4-.9,0,0,0,.8.1.8.1,0,.3-.3.3-.5,0,.1.1.5.3.5.1,0,.2-.3.2-.5,0-.6.4-1.2.6-1.7.2-.7.4-1.4.6-2,.1-.3.2-.6.3-1,0-.4-.1-.7,0-1.1.1-.6.6-1,.9-1.5.4-.5.6-1.1.8-1.8.1-.7.3-1.3.6-2,.3-.6.4-1.4.7-2,.5.3,0,1-.1,1.4-.4.8-.7,1.6-1,2.4-.6,1.9-1.2,3.7-1.8,5.6-.3.9-.6,1.8-.9,2.7,0,.2-.4.9-.2,1.2.1.1.3-.4.4-.5.3-.9.5-1.8.8-2.7.3-.9.7-1.8,1-2.7.7.4-.1,1.4-.4,1.8-.7,1-.7,2.3-1.1,3.4-.1.3-.5.7-.2,1s.3.2.3.4c0,.2,0,.4.3.5.5.2,1.2.2,1.7.2.7,0,1.4.2,2,.2,1.3.2,2.7.3,4,.5,1.3.2,2.6.4,3.9.6.4,0,1.7,0,1.7.7,0,.3,0,1.6-.5,1.5v-.7c-.6.3-1.2.2-1.8,0ZM212.1,282.3c-.3-.3,0-.8,0-1.1,0-.2.3-.4.3-.6,0-.2,0-.4.2-.5,0,.6-.3,1.2-.5,1.8,0,.1,0,.3-.1.4ZM212.1,282.3c0,0,0,0,0,0ZM212.5,278c-.8,0,.3-1.4.2-.7,0,.2-.2.4-.2.7ZM209.9,274.4c1.2.3,2.4.5,3.5.9,0,0,0,0,0,.1-.4,0-3.6-.5-3.5-1ZM210.9,286.6c-.2.2-.3-.3-.3-.5,0-.4.2-.9.5-1.3.2-.3.2.2.2.4,0,.5-.3.9-.5,1.4,0,0,0,0,0,0ZM209.2,284.4c.2,0,.3.3.2.5.6-.2.2-1.1.8-1.2-.3.6.5,1.5-.3,1.9-.5.3-.8-.8-.7-1.2ZM209.2,276.2c0-.2,0-.3.1-.5.2,0,.4,0,.3.3,0,.2-.3.2-.5.2ZM210.1,280.3c-.3,0-.4-.3-.2-.4.2,0,.3,0,.5,0,0,.2-.1.4-.3.5h0ZM209.9,279.4c0-.4.2-.8.6-1-.1.3-.2.5-.2.8,0,0-.1,0-.2,0,0,.1-.1.2-.2.2ZM210.8,281.3c0,.2.1.5,0,.7-.1.2-.2.4-.2.7-.6-.2,0-1.1.2-1.4h0ZM210.7,279c0-.3.3-.2.5-.2,0,.1,0,.3-.1.4,0,0,0,.2,0,.3-.2,0-.3-.3-.3-.5ZM210.6,284.4c.3,0,.2-.4.4-.5,0,.4-.2.8-.4,1.1,0-.4-.3-.7-.2-1,.1,0,.2.3.1.4h0ZM211.1,281.4c0-.1.2-.2.2-.4,0-.2,0-.4.3-.4,0,.5-.2,1-.3,1.4-.3,0-.3-.5-.2-.6ZM211.2,279.7c.1-.3,0-1.1.4-1.1.5,0-.1,1-.3,1.1h-.2c0,0,0,0,0,0ZM211.4,284c0-.1.2-.2.2-.3,0-.2,0-.4,0-.5,0,0,.3,0,.3.1,0,.2,0,.4-.2.7,0,0-.1.8-.2.5,0-.1,0-.3,0-.5ZM213.3,277.8c.2-.2,0,.4,0,.5,0,.3-.2.6-.3.9,0,0,0,0,0,0h0c0,0-.1.1-.2.2.2-.4,0-1.2.4-1.5h0ZM213.1,279.9c0-.3,0-.3.2-.5.2-.1.2-.3.3-.5.3.2,0,.5,0,.8-.1.5-.3.9-.4,1.4-.3-.1,0-.9,0-1.1ZM213.7,278.3c0-.2,0-.5,0-.8.2,0,.2-.5.4-.2.3.5-.2,1-.3,1.5-.2,0-.1-.3,0-.5ZM213.7,275.7h-.1c.1-.2.3-.2.5-.2.1,0,.5,0,.4-.2-.3-.3-.9-.3-1.3-.4-.6-.1-1.2-.4-1.8-.5-.2,0-.5,0-.7-.2-.2,0-.4-.3-.7-.2,0-.2,0-.6.3-.7.4-.2.9.1,1.2.2.9.3,1.9.6,2.9.8,2,.5,4,.9,6.1,1.3,2,.4,4.1.8,6.1,1.3,1,.3,2,.5,2.9.8.3,0,.8.2.7.5,0,.3-.4.5-.7.4.5.2.7.7,1,1-.3.2-.5-.1-.6-.3-.2-.3-.6-.3-.9-.4-.9-.2-1.8-.4-2.7-.6-1.8-.4-3.6-.8-5.4-1.3-.8-.2-1.7-.4-2.5-.6-.4,0-.7,0-1.1-.2-.4,0-.4-.4-.6-.7-.6-.9-2-.2-2.8-.1h0ZM210.7,272.4c.5-.2,1.1-.2,1.7-.3,0,0,.2,0,.3,0-.5.1-.9.2-1.4.4-.2,0-.5.3-.7.2-.3,0,0-.3.2-.3ZM230.3,277.7c-6.3-2.1-13.1-2.5-19.4-4.7,4.6-1.5,9.5-.8,14.1.3,1.2.3,2.4.6,3.6.9,1.1.3,2.2.5,3.3.6.4,0,1.4,0,1.5.5,0,.4-.2,1.1-.3,1.5-.2.6-.3,1.3-.5,1.9,0-.6-.3-1.1-.9-1.2-.1,0-1.5,0-1.4.2h0ZM218.7,271.8c-1.7-.1-3.6-.2-5.3.1.2,0,.4-.3.3-.5.3.2.8.5,1.1.3.4-.3.1-1,.5-1.3,0,0,0,.9.2.7.1-.3,0-.6.2-.9,0,0,.1-.7,0-.5,0,.1-.2.4-.3.4.1-.6.2-1.3.6-1.9,0,.3.3.5.5.2,0,.3-.2.7-.3,1,0,.2,0,.3,0,.5,0,0-.1.2-.1.4,0,.1-.5,1.2,0,.7.4-.4.4.2.8,0,.7-.2.6-1.2.6-1.7,0-1.4.8-2.6,1.4-3.9.3-.7.5-1.3.7-2,0-.3.2-.7.3-1,0-.3.1-.7.3-.9.4-.5.1.6.1.7-.2.8-.4,1.6-.7,2.3-.5,1.5-1,3-1.5,4.4-.1.4-.7,1.3-.4,1.8.3.5.7-.9.7-1.1.3-1.4.9-2.8,1.3-4.2.9-2.8,1.9-5.7,2.7-8.6.4-1.3.9-2.6,1.4-4,.2-.7.4-1.5.6-2.2.2-.5.2-1.1.5-1.6.3-.5.7-.5,1.3-.3.7.2,1.3.3,2,.3,1.4.1,2.9.3,4.3.6,1.4.3,2.9.6,4.3.6,1,0,2.2-.2,2.6-1.2-1.8,8.5-3.8,17-5.8,25.5-5-.8-9.8-2.5-14.9-2.9h0ZM217.2,260.6c0-.2.3-.4.2-.6.6.2,0,1.1-.3,1.3.1-.2,0-.4,0-.6ZM217.4,258.6c.2,0,.3.3.2.5.6-1.2,1-2.4,1.3-3.7,0-.4,0-.9.3-1.2.3-.5.4.2.7.2-.4.7-.9,1.3-1.1,2-.1.4-.2.7-.3,1.1-.2.4-.3.8-.4,1.2,0,.3,0,1-.4,1.1-.2,0-.5-.2-.6-.3-.2-.3.3-.5.2-.8ZM217.4,251.8c.3.2.4.6.5.9l-.3.2c.2-.4-.2-.7-.2-1.1h0ZM218.2,253.8c-.4,0-.2-.9,0-1,0,.1.3,1,0,1ZM220.9,246.4c-.5-.4-1.3-.1-1.8-.4-.3-.1-.3-.4,0-.6.2,0,.3,0,.5,0,.3,0,.5.1.8.2,1.4,0,2.8.4,4.2.6,2.8.4,5.7.7,8.5,1.1,1.1.1,2.3.2,3.4.5.2,0,.7.3.3.6-.3.2-.7,0-1.1,0,0,.3.5.2.7.2-.2.3-.5.3-.8.3-.4-.1-.7-.2-1.1-.2s-.8,0-1.2-.2c0,0-1-.2-1-.2,0-.1.4-.2.4-.3,0-.1-.5-.2-.6-.2-.7-.2-1.4-.3-2.2-.4-.3,0-3.9-.6-3.9-.4,0,.6,2.3.5,2.7.5.4,0,3,0,2.9.6-.5,0-.9,0-1.4,0-.4,0-.8-.3-1.2-.3-1.1-.1-2.1-.3-3.2-.4-1.1-.2-2.1-.3-3.2-.5-1.1-.2-2.1-.4-3.2-.2,0,0,0-.1,0-.2-.2,0-.8,0-.7-.3.6,0,1.2.1,1.7.3.1,0,.7,0,.3-.2ZM234.4,249.2c-.4.2-.8-.2-1.2.1.2-.4.9-.3,1.2-.1ZM233,248.9c0,.4-1.3,0-1.5,0-.3,0-1.2.1-1.3-.3.7-.2,1.2,0,1.9.1.1,0,.8,0,.8.2ZM229.4,248.4c-.2.3-.7,0-1,0h0c.3,0,.7-.2,1,0ZM227.9,248.3c-.4,0-.9,0-1.3-.1.1-.5,1-.2,1.3-.1.3,0,.2.4,0,.2ZM226.1,247.9c-.1.4-.8.1-1.1.1-.2,0,0-.2.2-.2.3,0,.7,0,1,0h0ZM220.6,260.3c0-.2,0-.5.1-.7,0-.2.2-.5.3-.7.5-1,.6-2.2,1.1-3.2.3.2,0,.6,0,.8-.2.5-.3,1-.5,1.5-.3,1.1-.7,2.1-1.1,3.2-.3-.2,0-.6,0-.8h0ZM220.5,259.4c.6-2.3,1.3-4.6,2.3-6.9.3.1,0,.7-.1.9-.3.7-.5,1.3-.7,2-.5,1.3-.7,2.8-1.5,4h0ZM222.7,254c0-.2.3-.6.3-.2,0,.5-.3,1-.4,1.4,0,.1,0,.2-.1.3-.5-.2,0-1.3.2-1.6h0ZM223.2,252.3c.1-.2.3-.2.2,0,0,.3-.2.6-.3.8-.3-.1,0-.7,0-.9h0ZM223.4,251c0,.3,0,.6-.3.9,0,0-.3.3-.3.4-.2-.3.6-2.6.6-2.6,0,0,.1,0,.2-.1,0,.1,0,.2,0,.2,0,.1,0,.3,0,.4-.1.3-.3.6-.3.9h0ZM223.9,250.6c.3.1-.2,1-.3,1.2-.2,0,.1-1,.3-1.2ZM223.5,249.4c-.3,0-.3.4-.3.6,0,.3-.2.7-.4,1-.2.5-.2.9-.3,1.4-.2.8-.6,1.6-.9,2.3-.3.9-.6,1.7-.8,2.6-.2.8-.4,1.6-.7,2.4-.1.4-.2.8-.3,1.1-.1.4-.4.7-.4,1.1,0,.4,0,.7-.2,1.1-.1.3-.4.6-.5.9-.3.8-.3,1.6-.7,2.4-.3-.2,0-.7,0-.9.2-.5.3-1,.5-1.6.2-.6.4-1.1.6-1.7.2-.6.5-1.1.7-1.7,0-.2,0-.4,0-.6-.1-.2-.2-.4-.2-.6,0-.5.3-1,.4-1.5,0-.2.1-.4.2-.6,0-.1.3-.3.2,0,0,.2-.4,1.2-.1,1.3.3,0,.4-1,.4-1.2.1-.6.3-1.1.6-1.7.5-1.2.9-2.4,1.2-3.6.1-.6.4-1.1.5-1.7.2-.5.2-1.1.5-1.5s.6-.3.9-.3c.4.1.2.5,0,.8-.2.3-.5,0-.7,0h0ZM220.1,260.9c-.3,0,.1-.8.2-1,.2,0-.1.8-.2,1ZM219.2,263.3c0,.8-.4,1.7-.8,2.3,0-.8.3-1.8.8-2.3h0ZM217.1,270c0,.2-.1.4-.2.6,0,0,0,0,0,0,0,0,0,0,0,.1,0-.2-.1,0-.2,0,.4,0,.2-1.1.5-1.2,0,.2,0,.4,0,.6h0ZM217.1,269.1c-.3.1-.3.5-.5.7-.2-.1,0-.5,0-.6.2-.3.3-.7.2-1.1.2,0,.1-.2,0-.2.2,0,.5-.1.4-.3,0-.4.2-.7.3-1,.4.2,0,.7-.1.9-.3.5-.4,1.1-.3,1.6h0ZM215.8,267.7c0,.3-.2.5-.3.8-.2.4-.3.9-.4,1.4,0,.3-.3.5-.3.8,0,.2,0,.5-.2.7-.1.2-.2,0-.2-.2,0-.2.1-.5.2-.7.3-.6.4-1.3.6-2,0-.3.2-.6.3-1,0-.1.3-.3.3,0-.1,0-.1.1-.1.2h0ZM215,266.9c.2,0,.2-.7.5-.6,0,.4-.2.8-.3,1.2-.2-.1,0-.4-.2-.6ZM216.5,265.1c.3.2-.4,1.6-.5,1.9-.5-.2.3-1.7.5-1.9ZM216.8,266.8c.1-.3.2-.7.3-1,.2-.6.3-1.1.4-1.7,0-.2.2-.4.3-.6.3-.2.1.3.1.4-.2.8-.5,1.5-.7,2.2-.4.3-.3.9-.4,1.4,0-.2-.2,0-.2,0,0,0,0,0,0-.2-.2,0,0-.7.1-.7ZM217.4,262s0,0,0-.1c0,0,0,0,0,.1h0ZM217.4,261.6c0-.2.2-.3.2-.5.1-.3.1.3.1.4,0,.2-.2.7-.3.5,0-.1,0-.3,0-.4ZM217.7,262.7c0,0,0-.2.2-.2,0,.1-.5,1.2-.4,1.2,0-.4.1-.7.3-1.1ZM220.1,248.2c-.1,0-.3-.2,0-.2.2,0,.4,0,.6,0,.2,0,.3,0,0,.2h0c-.2,0-.5,0-.6,0h0ZM219.8,247.4c-.1-.5,1.2-.2,1.4-.1-.1.4-1.1,0-1.4.1h0ZM220,252.2c.3-.7.8-1.5.4-2.3,0-.2.3-.3.5-.2,0-.3,0-.7-.2-.9.1,0,.3,0,.4-.2,0,0,0-.4.3-.3.2,0,0,.6.3.5-.3.3-.4.7-.5,1.1,0,.4-.3.8-.4,1.1-.3.7-.4,1.4-.8,2.1-.1.3-.2,0-.2-.2,0-.3.2-.5.3-.8ZM222.1,251.1c0,0,0,0-.1,0,.2-.3.1-1.6.7-1.5-.2.5-.2,1.1-.6,1.5,0,0,0,0,0-.1ZM221.6,250.3c0-.3.2-.6.3-.9,0,0,.2,0,.3,0-.1.3-.2.5-.3.8,0,.1,0,.6-.2.6-.2.1-.2-.5-.1-.5h0ZM221.7,252.7c-.2.4-.4.8-.4,1.3,0,.2,0,.6-.3.6,0-.7.2-1.4.7-1.9h0ZM222.1,247.6c-.2,0-.4,0-.5,0-.2-.2.3-.2.4-.2.8,0,1.6.2,2.4.4-.2.8-1.8-.1-2.3,0ZM220.6,256.1c-.3-.2,0-.8.2-1,.4,0-.1.9-.2,1h0ZM220.6,256.1s0,0,0,0h0s0,0,0,0ZM220.2,255.7c-.1.2-.2-.2-.2-.3,0-.3.3-.5.4-.8.3.2-.1.9-.2,1ZM220,256.1c.1.1,0,.4,0,.5,0,.2-.3.6-.5.5.1-.3.2-.7.3-1,0-.1,0-.1.2,0h0ZM219.2,257c-.3-.1,0-1,.3-1.2.1.4-.1.8-.3,1.2ZM219.2,258.6c0,.3-.1.6-.2.9,0,0-.3.7-.3.6-.3-.3.2-1,.3-1.2.1-.3,0-.4-.2-.3-.3.1-.2.5-.3.7-.6-.4.3-1.7.6-2.1.7.2.3.9.2,1.3h0ZM219.1,259.8c.1-.2.2.1.2.2,0,.3,0,.5-.2.8-.2.3-.3,0-.2-.2,0-.3.3-.5.3-.8,0,0,0,0,0,0ZM218.3,263.2c-.2.2-.2-.2-.2-.3,0-.4.2-.8.4-1.2.2-.4.3-.2.2.1-.1.5-.3.9-.5,1.4,0,0,0,0,0,0ZM218.3,261.4h0s0,0,0,0ZM218.6,260.5c0,.2,0,.4,0,.5-.1.2-.3.3-.3.5-.3-.2,0-1.1.4-1ZM217.3,262.4c.2-.2,0,.6,0,.6-.1.3,0,1.3-.5,1.2,0-.5.1-.9.3-1.3,0-.2,0-.4.2-.5h0ZM216.7,263.2c-.2.4-.2.9-.3,1.3,0,.2-.2,1.2-.6,1.1.2-1.2.6-2.4,1.2-3.5,0,.4-.1.8-.3,1.1h0ZM215.8,257.6c-.4-.3-1.1.2-.8-.6.3.2,1,0,.8.6ZM215.3,266c-.1.1-.2.3-.3.5-.1-.1-.6-.5-.3-.7.1,0,.6-.1.5.1h0ZM214.4,263.7c.3.1.5.3.5.7-.3-.1-.5-.3-.5-.7ZM214.8,267.7s0,0,0-.1c.5.3.2.9,0,1.3-.3.7-.5,1.5-.7,2.3-.5-.3,0-1,.2-1.3.3-.7.5-1.4.6-2.2ZM224.9,236.3c0,.2,0,.4-.2.6.2-.4-.2-.2-.3-.4,0,0,0-.4.2-.4.2,0,.3.2.4.3h0ZM224.9,230.7c.7-1.6-.6,1.9,0,0ZM224,233.3c-.4-.1.1-.8.4-.8.2,0-.3,1-.4.8h0ZM224.3,239.2c.3-.7.3-1.5.7-2.2.3-.7.5-1.4.8-2.1,0-.1.4-1,.5-.7-.3.8-.5,1.6-.9,2.3-.3.7-.3,1.5-.4,2.3,0,.4-.2.8-.3,1.3,0,.3-.1.7-.3.9-.1.2-.8.9-.8.3,0-.8.5-1.4.7-2.1h0ZM226.3,236.8c.1.1,0,.4,0,.5,0,.2-.1.4-.2.7-.3-.2-.1-.7,0-.9,0,0,.2-.4.3-.2ZM225.5,240.5c0,.6-.1,1.2-.6,1.7,0-.2.3-1.7.6-1.7ZM224.7,241.5c-.2-.1,0-.4,0-.6,0-.2,0-.3.2-.5,0-.1.2-.2.2,0,0,.3-.2.8-.4,1.1h0ZM225.4,239.8c-.2.1-.1-.3,0-.3.1-.4,0-.8.2-1.2,0-.2.3.1.3.2,0,.4-.2.9-.4,1.3ZM225.8,237.1c0,.2,0,.6-.3.7,0-.4.2-.8.3-1.2h0s0,0,0,0c0,.2,0,0,0,.1,0,.2,0,.3,0,.4h0ZM223.5,243.9h-.1s-.1,0-.2,0c.1,0,0-.2,0-.2.2,0,.4-1,.3-1.1-.2,0-.3.3-.2.5-.5-.2.2-.8,0-1.1.3.2.8.1.7.6,0,.2-.2.4-.3.6-.1.2-.2.5-.2.7h0ZM223.5,238.2c-.4,0-.3-.8,0-.9.3,0-.1.8,0,.9ZM222.8,233.1c0-.1,0-.3.1-.4.2,0,.4.1.6,0-.1.3-.4.5-.8.5ZM222.9,236.7c.1,0,0,.3.2.3,0,.2-.5,1-.5.5,0-.2,0-.7.3-.8ZM222.8,239.4c.6,0-.3.4,0,.9-.6,0,0-.8,0-.9ZM230,217c.2.1.5.2.7.4,0,0,0,.1,0,.1-.8,0-1.7,0-2.5,0-.1,0-.2,0-.1-.2.1-.2.4-.1.6,0,.4,0,1.2.3,1.4-.1h0ZM228.3,217.8c.7-.2,1.7,0,2.4,0,.3.3.8,0,1.1,0,.6,0,1.1,0,1.7,0,1.1,0,2.3,0,3.4,0,2.3,0,4.5,0,6.7,0,0,.3-.4.6-.2.9-3.4-.3-6.8-.4-10.1-.4-1.6,0-3.2-.3-4.8-.1-.2,0-.5,0-.6,0-.2-.2.2-.4.3-.5ZM237.1,218.9c1.4,0,2.8.2,4.2.2.3,0,1.9-.1,1.8.4-1.8.1-3.5-.2-5.3-.3-.8,0-1.6,0-2.4,0-.1,0-1.1,0-1,.2-.5-.2-1-.2-1.6-.2-.6,0-1.2-.2-1.8-.2-1.1,0-2.3.5-3.3-.2,3.1.1,6.1.1,9.2.2ZM233.4,221.8c-.1,0,0-.5,0-.6,0,0,.1-.4.3-.3.2,0,0,.6-.1.7,0,0-.2.3-.3.2h0ZM233.6,221.8s0,0,0,0ZM231.9,225.7c-.2.8-.6,1.6-.9,2.4,0,.2-.2.9-.5,1-.2,0,0-.6,0-.7.2-.4.3-.8.4-1.3.3-.2.3-.7.4-1,.1-.6.3-1.2.5-1.7.4.2,0,1-.1,1.3ZM232.2,226.3c0,.3-.2.6-.4.9-.3,0,0-.8.1-.9,0-.2.2-.3.2,0h0ZM229.6,232.3c0,.3,0,.6-.3.9-.3.6-.5,1.2-.7,1.8-.2.5-.3.9-.4,1.4,0,.2-.1.9-.4,1-.2,0,0-.7,0-.7.2-.5.3-.9.4-1.4.4-1.3.7-2.7,1.5-3.9,0,.3-.2.6-.2.9ZM229.8,233.1c-.2.9-.5,1.7-.8,2.5-.4-.2.5-2.6.8-2.5h0ZM228.3,237.7c-.2-.6.3-1.4.5-1.9.4.2-.3,1.6-.5,1.9h0ZM229.6,230.1c0-.4.2-.7.3-1.1.3-.7.5-1.4.7-2.1.4.2.1.7,0,1-.2.5-.4,1.1-.6,1.6,0,0-.4.9-.4.5ZM228.7,230.7c.1-.2.2-.5.3-.7,0-.3,0-.6.1-.8.1-.3.3-.6.4-.9,0-.3.2-.6.4-.9.5.3-.4,1.6-.5,2-.4,1.1-.4,2.4-1.2,3.2-.5-.2.4-1.6.5-1.8ZM228.4,230.7c0,.3-.1.6-.3.9-.4.2.2-.8.3-.9ZM230.9,220.9c-.7-.3-1.5-.2-2.2-.3.1-.3.4-.3.7-.3.5,0,1,0,1.5,0-.2.2,0,.4,0,.5h0ZM232.1,222.8c-.3.6-.3,1.2-.5,1.8-.2.7-.5,1.4-.7,2,0,0-.1,0-.2-.1,0-.7.3-1.3.5-1.9.2-.7.5-1.3.7-2,.2-.5.3-1.1.5-1.7,0-.1.2-.8.4-.6.5.7-.5,1.7-.7,2.3h0ZM232.9,222.7c-.1.5-.4,1-.6,1.5-.2,0,0-.6,0-.7,0-.4.1-.8.3-1.2.3-.6.3.1.3.4h0ZM231.5,221.5c.2,0,.2,0,.2-.2,0,0,.2,0,.3.1,0,.2,0,.3-.1.5,0,.3-.1.5-.2.8-.1.5-.3,1-.6,1.5-.3-.2,0-.7.2-.9.2-.6.5-1.2.3-1.8h0ZM232,221.1c-.1,0-1.2-.6-.8-.7.3,0,.6,0,.9,0,0,.2,0,.5-.1.7ZM231.2,221.8c0,.5-.2.9-.3,1.3-.2.5-.3,1-.4,1.6-.2.5-.2,1-.4,1.5s-.2.4-.2.6c0,0,0,.2,0,.3-.1,0-.2.2-.3.4,0,0-.2-.2-.2-.3,0-.2.2-.5.3-.7.2-.5.3-1.1.5-1.7.2-.6.4-1.1.5-1.7.1-.5.2-1,.5-1.3h0ZM229.4,222.5c0-.9.6.7,0,.5-.4.6,0,0,0-.5ZM229.3,227.9c0,.3-.1.6-.3.9-.4,0,0-.7,0-.9,0-.2.3-.3.3,0ZM230.1,223.9c0,.4,0,.7-.3,1.1-.4-.1,0-1,.3-1.1ZM228.9,226.5c.2.4-.3.7-.6.5.2,0,.5-1.1.6-.5ZM230.1,230.5c-.3-.2.2-1,.3-1.2.4.2,0,1-.3,1.2ZM229.9,232.4c0-.2.1-.5.3-.7.1-.2.2,0,.2.1,0,.3-.2.5-.3.8-.2.3-.2,0-.2-.2h0ZM230.4,230.7c.2-.4.4-.8.5-1.2.6.3-.2,1.5-.4,1.9-.3-.1-.2-.5,0-.7ZM231.7,227.7c0,.6-.2,1.1-.5,1.6-.3-.1.2-1.7.5-1.6ZM232.5,224.6c.4.2,0,1-.2,1.2-.3-.1.1-1,.2-1.2ZM233,222.7c0-.1.3-.7.3-.2,0,.5-.3,1-.5,1.5l-.2.4c-.6-.3.1-1.3.3-1.6h0ZM232.8,219.7c-.5,0-.2-.2,0-.3.2,0,1.4-.3,1.4.1-.5.2-1,.1-1.5.1h0ZM228.2,227.4c.4.3.2.9,0,1.2,0,0-.3.5-.4.4-.2-.5.3-1,0-1.5.1,0,.5.3.5,0ZM227.8,231.9c.3.2.3.6,0,.8-.3.3-.3.7-.3,1-.5-.1-.6-1.2-.2-1.4,0,.3,0,.5,0,.8.4-.2.3-.8.5-1.2h0ZM226.8,232.2c0-.2,0-.4,0-.6.1-.2.3-.4.2-.7.6.2,0,1.1-.3,1.2h0ZM227,233.9c.2.1.4,0,.6.2,0,.3,0,.5-.1.8-.2.5-.6,1-.9,1.4-.3.3-.2-.4-.2-.5,0-.3.2-.7.3-1,.1-.3.4-.6.3-.9ZM227.9,238.9c-.2,1-.5,1.9-.9,2.9-.2.5-.3.9-.5,1.4,0,.2,0,.3-.2.5,0,.1-.2.1-.3.3-.1-.3.3-.9.4-1.2.1-.4.3-.9.4-1.3.2-.9.5-1.8,1-2.6ZM231.8,245c-1.2-.1-2.4-.3-3.6-.4-.5,0-1.3.1-1.7-.2.2,0,.2-.2.1-.3,0-.3.2-.6.3-.9.3-.7.5-1.4.8-2.1.2-.6.2-1.3.5-1.9.1-.3.3-.5.4-.8.1-.4.2-.7.3-1.1,1.1-3,2-6,3-9,.5-1.4,1-2.9,1.4-4.4.2-.7.4-1.2.6-1.9.2-.6,0-1.3.8-1.5.6-.1,1.2,0,1.8.2.8,0,1.6.1,2.4.2,1.6,0,3.2,0,4.7,0,.6,0,1.3,0,1.9,0-1.8,8.5-3.6,17-5.8,25.4-2.7-.6-5.4-.9-8.2-1.2h0ZM232.4,211.3c-.6-.6.7-1.4,0,0ZM234.5,208.1c0,0,.2.1.3.2,0,.3.3.7.1,1,0,.1-.3-.4-.3-.3,0,0,0,.4,0,.4-.2,0-.2-.3-.2-.4.1-.3.2-.6.1-.9ZM235.3,211.1c-.1,0,0-.3,0-.4,0-.2,0-.5-.2-.7.3,0,.5-.2.7-.4,0,.5-.3,1-.5,1.4ZM235.3,211.1c.1,0,0,0,0,0ZM235,208s0,0,0,.1c-.2-.1-.3-1.1,0-1.1.3,0,0,.8,0,1h0ZM234.7,213.2c0,0,0,.1-.1.2,0-.1,0,0-.1-.2,0-.1,0-.3.1-.4,0-.2,0-.6.3-.6,0,.3,0,.9-.3,1.1,0,0,0,0,0,0h0ZM234.7,211.3c0,.2-.2,0-.2,0,0-.2,0-.4.1-.6,0-.1.2-.3.3,0,0,.2-.2.4-.2.7h0ZM234.3,211.7c.5.3-.2.9-.3,1.1,0-.2.3-.9.1-.9,0,0,.1-.2.2-.3ZM234,206.3c-.6-.6.7-1.4,0,0ZM234,210.3h0c-.1.4-.1.8-.3,1.1-.5-.2,0-1,.3-1.1h0ZM233.6,213.1c.1.2,0,.4-.2.6,0,0-.2.3,0,.3,0,0,0,.1-.1.1,0,0,0-.2,0-.1,0-.3.1-.8.5-1ZM236.6,204.9s0,0,0-.1c.1,0,.2.1.3.2,0,.2,0,.3-.1.5-.1.4-.3.8-.5,1.2-.6-.5.5-1.2.3-1.8ZM242.5,188.1c0,.4-.1,1.1-.6,1,.2-.3,0-1,.5-1.1h0s0,0,0,0ZM242.5,187.4c0-.2.4-1.2.5-.7,0,.3-.1.8-.5.7ZM243.7,189.7c.1,0,1-.1.9-.3,1.9.3,3.9-.4,5.8,0-2,1-4.2.8-6.3.9-2.3,0-4.6.7-7,.5.1-.3.2-.6.6-.7.4,0,.8,0,1.3,0,.9,0,1.8.2,2.6-.2.7-.3,1.4,0,2.1,0ZM244.1,183.8s0,0,0-.1c.3.2.2.5.1.7-.1.4-.1.8-.3,1.2-.7-.5.3-1.3.3-1.8ZM246.9,175.3c.3.2.2.5,0,.8-.2.4-.3.8-.3,1.2-.1,0-.2-.3-.3-.2.2-.3.3-.8.4-1.1,0-.2.2-.4.1-.7h0ZM248.6,172.1c0-.3.3-.5.2-.8.6.4,0,1.2-.3,1.6,0-.3,0-.6-.1-.8h.2ZM248.7,168.6c0,0,.2-.3.3-.1,0,.2-.2.4-.2.6,0,0,0,.2,0,.2-.4,0-.2-.5,0-.7ZM250.4,170.7c0,.4,0,.8-.2,1.1,0,0-.1.1-.2,0-.2,0,0-.4,0-.5,0-.3.1-.6.4-.7ZM250.1,169.4c0,0,.3-.4.3-.1,0,.3-.2.6-.2,1-.4.1-.2-.7,0-.8ZM252.1,187.7h-.2c.5-.1-.1-1.1.2-1.2.2.3.3.8.1,1.1,0-.1-.1,0-.2,0,0,0,0,0,0,.1h0ZM251.8,185.5c0-.2-.2-.9,0-.9.1.5.2,1,.2,1.5,0,.1-.3-.5-.3-.6ZM251.7,184.1c-.2,0-.2-1,0-1.2,0,0,.5,1.1,0,1.2ZM251.6,182.4c-.3,0-.5-1.7-.2-1.8.1.6.2,1.2.2,1.8ZM251.3,180.3c-.3-.5-.1-1.1-.2-1.6h.2c0,.3.5,1.4,0,1.6ZM251,178.2c-.3-1.1,0-2.4-.4-3.5-.1-.4-.3-.8-.3-1.3s0-.7,0-.7c.3,0,.4,1.9.5,2.1.1,1.1.2,2.3.4,3.4h-.1ZM250.4,177.9c.1.7,0,1.5.3,2.2,0,.3.2.5.2.8,0,.4-.1.9,0,1.3,0,.3.2.5.3.8,0,.3,0,.6,0,1,0,.3.3.5.3.8,0,.4-.1.8,0,1.1,0,.3.2.6.2.9,0,.3,0,.6,0,.9.2.4.9.2,1-.2.3-.6-.1-1.3-.2-1.9-.1-.8-.1-1.5-.2-2.3-.2-1.5-.5-3.1-.6-4.6-.2-1.5-.2-3.1-.5-4.6-.1-.7-.5-1.4-.4-2.1,0-.3,0-.6,0-.9,0-.3,0-.6.2-.7.4-.2.5,1.2.5,1.4.2,1.4.3,2.7.5,4.1.4,2.7.7,5.5,1,8.2,0,.6.2,1.3.3,1.9.1.7.3,1.3.2,2,0,.3,0,.5-.1.8,0,.2,0,.5,0,.7,0,.2-.2-.1-.2-.2,0-.2-.2-.3-.4-.4-.5-.2-1.1,0-1.6,0-.7,0-1.4,0-2.1,0-1.4,0-2.7.4-4.1.2.2-1.1.8-2,.9-3.1.5-.9.7-1.8,1-2.8.2-.5.3-1.1.5-1.6.1-.5.4-.9.5-1.4.3-1.1.7-2.1,1-3.2.3-1,.5-2,1-3,.6,1.3.4,2.7.6,4.1h0ZM251.8,170.1c0-.2.2-.4.3-.1,0,.2,0,.5,0,.7,0,.2.2.5,0,.5-.1-.3-.3-.8-.3-1.1ZM246.2,193.5c.1,0,.1.3.1.4,0,.3,0,.5-.3.7-.3,0-.6-.2-.9-.2.1-.3.6-.1.8-.2.1,0,.3-.2.3-.3,0,0,0-.3,0-.3ZM243.9,192.3c1.3-.6,2.8-.6,4.2-.6.8,0,1.7,0,2.5-.2.5,0,1.2,0,1.5-.5.1.2.5.2.5.5-.1.3-.4.5-.7.5-.8.2-1.6,0-2.5,0-1.8,0-3.7.1-5.5.2h0ZM252.4,190.8h.1c0-.2,0-.8.3-.7.4.2,0,.7-.2.9-.1,0-.2-.1-.3-.3h0ZM245,184.7c.2-.6.4-1.1.6-1.7.2-.6.4-1.1.5-1.7,0-.1.3-1.2.5-1,.4.4-.3,1.4-.5,1.7-.5,1.1-.7,2.3-1.2,3.4-.1.3,0,.9-.4,1,0-.6.3-1.1.5-1.7ZM244.3,185.2c0-.3.2-.6.3-.9.3,0,0,1-.3.9ZM245.2,182.6c.2.2-.1,1.2-.4,1.2,0-.3.2-.9.4-1.2ZM245.2,182.6c-.1,0,0,0,0,0ZM245.6,181.8c-.4-.3.2-.7.2-1.1,0-.3.2-.4.3-.7.1-.3.2-.7.3-1,.2.5,0,.9-.3,1.3-.2.4-.2.9-.5,1.3h0ZM245.7,181.8s0,0,0,0h0ZM247,177.9c.2-.1.4-.3.5-.5.3.2,0,.6,0,.8,0,.2-.1.4-.1.6-.2.2-.3.4-.4.6,0-.2-.1-.5-.2-.7.4,0,.6-.6.2-.8ZM246.9,177.3c0-.5.2-.9.4-1.3.1-.3.3,0,.2.2-.1.4-.3.8-.6,1.1ZM247.2,180.3c-.3-.2,0-1.3.4-1.2,0,.3-.1.5-.2.8,0,.1-.1.3-.2.4ZM249.6,170.3c-.1.3-.3.6-.4.9-.4-.2-.1-.7,0-.9.1-.2.1-.4.2-.6,0,0,.3-.4.3-.3,0,.3,0,.7-.2,1h0ZM248.7,173.5c.2-.3.4-.7.6-.9,0,.8-.4,1.5-.6,2.3-.1.3-.2.7-.4,1-.5-.3,0-.9,0-1.3.1-.3.2-.7.3-1.1ZM247.8,177.1c-.4-.2,0-.6,0-1,.4.2,0,.6,0,1h0ZM247.5,174.8c0,0-.2.5-.3.3-.2-.2,0-.5,0-.7.7-.3.5-1.2.9-1.8,0,.8-.3,1.5-.5,2.2h0ZM247.5,172.9c-.1.4-.2.7-.4,1.1-.5-.6.3-1.3.5-1.8h.2c0,.3-.3.5-.4.7ZM246.2,176.8c-.5-.2,0-1,.3-1.1h0c-.1.4-.2.8-.4,1.1h0ZM246,178.7c0,0,.1,0,.2,0,0,.4-.4.8-.5,1.2s-.4.6-.3.1c0-.2.2-1.4.6-1.3h0ZM245.5,178.8c0,.1-.3,1-.4.7-.1-.3.2-.7.4-.8,0,0,0,0,0,.1h0ZM245,181.7c.2.3,0,.5-.2.8-.2.4-.3.8-.4,1.1-.6-.4.2-1.6.6-1.9ZM244.1,186.8c0,0-.1-.2-.2-.3,0-.3.1-.5.2-.8,0,0,0,.2,0,.2,0,.3,0,.6,0,.9,0,0-.1,0-.2-.1,0,0,0,0,0,.1ZM243.7,186.8c.3.2.2.6,0,.9-.2.4-.4.8-.3,1.3h0c-.2.1-.3.1-.5.1.1-.4.2-.8.3-1.2,0-.4.3-.7.4-1.1ZM241,197.8c0,.7-.3,1.3-.5,1.9,0,.3,0,.6-.2.8-.2.2-.2.1-.2,0,0-.6.2-1.2.5-1.8.1-.3.2-.8.5-1.1.1-.1,0,.2,0,.3h0ZM239.2,201.9c-.3,0-.2-.3-.3-.5h0c0-.3.2-.5.4-.7.2.1,0,.3,0,.5-.1.2-.2.5-.1.8ZM239.2,202.6c0-.1.2-.3.3,0,0,.3,0,.5-.1.8,0,.3-.4.3-.4,0,0-.2.1-.5.3-.7ZM238.9,200.6c-.2-.5,0-1.1.3-1.6,0,0,.5-.7.5-.7.4.2-.6,2-.8,2.2ZM236,213.2c-.5-.4,0-1.2.1-1.7.4-.9.7-1.9,1.1-2.8.5.3,0,1.1-.1,1.5-.3.8-.3,1.7-.8,2.3,0,0-.3.5-.3.7h0ZM236.9,207.3c.4-.7.6-1.6.9-2.3.3.5,0,1-.2,1.4-.1.3-.2.9-.7.9ZM237.6,204.7h0c-.3.7-.3,2-1.2,2.4.4-.9.8-1.9,1.1-2.9.1-.5.4-.9.5-1.4,0-.4.2-.8.5-1.1.1.6,0,1.1-.4,1.6-.3.4-.2,1-.5,1.4ZM237.3,203.5h0c-.1.4-.2.8-.4,1.2-.4-.2,0-1,.3-1.2ZM236.4,208h.1c0,0-.2,1.3-.5,1.3-.4,0,.2-1.2.4-1.3h0ZM253.1,192.7c0-.3.2-.5.2-.8,0-.3.2-.6.3-.8.3.2.1.6,0,.9-.2.6-.3,1.2-.5,1.7-.4-.2-.1-.7,0-1ZM253.7,189.9c0,0,.2.2.2.2,0,.2,0,.5-.1.7-.3-.2-.3-.7-.1-.9h0ZM254,188.5c.2-.6.6-1.2.3-1.8.7.5,0,1.8-.2,2.4,0,.2,0,.3-.1.5-.4-.2,0-.8,0-1.1h0ZM254.8,184.9c0,0,.2.1.3.2,0,.2,0,.4-.1.5,0,.3-.2.7-.3,1-.7-.4.3-1.2,0-1.8ZM255.2,183.6c.3-.7.4-1.5.5-2.3,0-.3.2-2.1.7-1.9-.2,1.8-.8,3.6-1.2,5.4-.4-.2,0-.9,0-1.2h0ZM255.7,166c.8-.1,1.7-.6,2.6-.4.6.1.2,1,0,1.4-.3.9-.5,1.9-.7,2.8.2.3,0,.7-.2,1-.2.5-.3,1.1-.4,1.6-.3,1.2-.6,2.4-.9,3.6-.5-1.9-.9-3.9-.9-5.9,0-.9,0-1.9.2-2.7,0-.3.6-1.2.2-1.4ZM256.3,179.1c.3-1.1.5-2.2.8-3.3.4.3.1.9,0,1.2-.2.7-.3,1.4-.6,2,0,0-.1,0-.2,0h0ZM257.3,174.7c.1-.6.2-1.1.4-1.7.3.2.2.6,0,.9-.2.6-.2,1.1-.4,1.7-.4-.2-.1-.6,0-.9h0ZM258,171.8c0-.3.2-.6.2-.9,0-.2,0-.8.2-.9.1,0,.2.2.2.3,0,.2,0,.4-.1.6-.1.6-.4,1.2-.5,1.9-.4-.2-.1-.7,0-1ZM259.7,165.1c0,.5-.1.9-.3,1.3-.3-.2,0-1.3.3-1.3ZM242.5,168.5c.1.3,0,1-.3,1.3-.4-.2,0-1.1.3-1.3ZM241.7,170.3c0-.1.3-.3.3,0,0,.3-.2.6-.4.9-.4-.1,0-.7,0-.9ZM240.6,173.8c.2-.6.4-1.1.6-1.7.1-.4.4-.4.3,0-.2.6-.4,1.2-.6,1.8-.1.4-.3.7-.4,1.1-.4-.3,0-.9.1-1.2h0ZM239.6,176.4c0-.1.2-.7.3-.7,0,0,0,.7,0,.8,0,.1-.1.4-.3.2,0,0,0-.2,0-.3ZM239,179.1c0,.3-.1.7-.3,1,0,.1,0,.2-.1.3-.3-.2,0-1.3.4-1.3ZM238.6,180.4h0s0,0,0,0ZM238.2,181.3c.2.2-.2.9-.3,1v.2c-.4-.3.1-1.3.3-1.2ZM237.9,182.5h0s0,0,0,0ZM237.1,184.1c0-.3,0-.7.4-.7,0,.2,0,.4-.2.5-.1.2,0,.5-.2.7,0-.1,0,0,0,0-.1,0,0-.4,0-.5ZM236.5,185.9c0-.2.4-.5.3-.1,0,.3-.2.7-.5.9,0-.3,0-.5.2-.8ZM225.2,220.4c.7.3-.2,1.7-.5,2,0,0,0-.1,0,0,.1-.7.4-1.3.6-1.9h0ZM217.3,243.9c0-.2.2-.8.5-.8,0,.4-.1.8-.3,1.1,0,0-.1,0-.1,0-.1,0-.1-.3,0-.5ZM217,245.7c0,.9-.4,2-.9,2.8.1-.9.4-1.9.9-2.8ZM193.5,318.9c.3-.7.5-1.5.8-2.2.5.3-.2,1.4-.4,1.8-.2.6-.4,1.1-.5,1.7-.5-.3,0-.9,0-1.3h0ZM192.3,323c0-.2,0-.5.1-.7,0-.3.3-.5.4-.8.1-.3.2-.7.4-1,.5.3,0,1-.2,1.3-.2.7-.4,1.4-.8,1.9,0-.3,0-.5.1-.8h0ZM195.4,319.3c-.2-.5.5-.5.7-.5-.1,0-.7.9-.7.5ZM196.2,325.3c.1,0,0,0,0,0ZM195.5,316.6c-.2.6-.4,1.2-.5,1.8,0,.3,0,.6-.2.9-.1.3-.3.5-.4.7-.5,1-.7,2.1-.9,3.2-.3,1.1-.7,2.2-1.3,3.2-.6-.3,0-1.2.1-1.6,0-.2,0-.6,0-.8.2-.3.3-.5.4-.8.3-.8.5-1.6.8-2.4.3-.9.6-1.8.9-2.7.3-.9.6-1.8.8-2.7.2-.8.6-1.5.7-2.3,0-.2,0-.5-.2-.2-.2.2-.3.6-.3.9-.1.9-.5,1.8-.8,2.7-.4-.2,0-.8,0-1.1.3-.7.5-1.5.7-2.3.4-1.5.9-3,1.4-4.5.5-1.5,1-3,1.5-4.5.2-.7.5-1.4.7-2.1,0,0,0-.3.1-.5l.7-2.2c.3-.3.4-1.1.4-1.3.3-1.5.9-2.9,1.4-4.3.5-1.5,1-3,1.4-4.6,1-3.1,1.9-6.2,2.9-9.3,1.9-6.2,3.9-12.3,5.9-18.4.4-1.1.7-2.2,1.1-3.3.2-.4.4-.2.7-.4.5-.2-.3-.4-.4-.6-.2-.6.4-1.5.6-2,.4-1.1.8-2.2,1.2-3.3.2.2,0,.6.1.8.2.2.2-.3.2-.4,0-.4-.2-.8-.2-1.2,0-.5.3-.9.5-1.3,0,.2,0,.7.2.8.3,0,.2-.7.2-.8.1-.8.6-1.5.9-2.2.1-.4.3-.8.3-1.2,0-.5.1-.8.3-1.3,0-.2,0-.4.1-.5.1-.1.2-.2.3-.4.1-.4.2-.8.2-1.3h.2c0-.2.7-1.9,0-1.6.1-.3.2-.6.3-.9.3,0,.2.4.5.5,0-.5.3-.9.4-1.3.1-.4-.2-.9,0-1.3.1,0,.3.1.4,0,.2-.2-.2-.3-.3-.5,0-.2,0-.6.2-.8.1-.1.4,0,.5-.2,0-.1-.2-.3-.2-.5,0-.3,0-.6.2-.8,0-.1.5-.7.4-.8,0,0,.2.8.3.5,0-.2,0-.5-.1-.7-.2-.4-.1-.9,0-1.3,0,0,.4-.7.4-.5,0,0,0,.7.2.6.2-.2.1-.6.2-.8,0-.2.5-1.4-.2-1,0-.3,0-.9.4-1,.3,0,.6,0,.6-.5,0,0-.1-.7-.2-.4,0,.2,0,.6-.2.7,0-.1-.1-.1-.2-.1.6-1.8,1-3.6,1.8-5.3,0,.3.4.2.5,0,0-.1,0-.3,0-.5,0-.2.1-.4.2-.6.4-.9.6-1.8.9-2.7.3-.7.9-1.6.8-2.4,0-.3-.3.1-.3.2-.2.4-.3.8-.4,1.3-.5-.2,0-.8,0-1.1.3-.7.5-1.5.7-2.2,0-.3.2-.7.4-1,.1-.2.3-.4.3-.6,0,0,0-.1,0-.2,0-.2,0-.3.1-.4.2-.3.4-.3.6,0,0-.9.6-1.8.9-2.6.2-.4.3-.9.3-1.3,0-.2,0-.3-.2-.5.1-.3.2-.6.3-.9.4.5,1-1.1,1-1.3,0-.3.2-.6.2-.9,0-.3-.2-.6-.3-.9,0-.1,0-.5.2-.5.2,0,.2.4.4.5.1-.5.5-1.2,0-1.6.7.4.9-.9,1-1.4,0-.5.6-.9.5-1.5,0-.3-.5-.9,0-1.2,0,.2,0,.7.2.7.1-1.4,1.5-2.7.9-4.2,0,.2-.3.4-.2.1,0-.3.4-.4.7-.5.3-.2.4-.5.4-.8,0-.5.2-1,.4-1.5.6-2,1.4-3.8,2-5.8.1-.4.1-.9.3-1.3.1-.4.4-.7.6-1.1.1-.4,0-.8.2-1.2.2-.5.4-.8.5-1.3,0-.4.3-.8.5-1.2.2-.4.2-.9.3-1.4.2-.7.9-1.3.6-2.1.2.1.7-1.4.6-1.7.3,0,.3-.4.4-.6.2-.5.2-.9.5-1.4.5-.9.7-1.8.9-2.8.3-1,.6-2,.9-3,0-.2.1-.4.2-.6,0-.2.2-.4.3-.6,0,0,.1-.6,0-.6.2-.3.5-.7.6-1.1,0,0,0-.7-.1-.6-.3.2-.4.8-.5,1.1,0,.2-.3.5-.3,0,0-.4.2-.7.3-1.1.3-.7.6-1.5,1.5-1.3-1.7,6.1-3.8,12.1-5.8,18.1-.5,1.5-1,3-1.5,4.5-.2.7-.4,1.4-.7,2-.1.3-.1.6-.2.9-.1.4-.3.9-.4,1.3-1,3.1-2,6.2-3,9.2-.9,2.8-1.8,5.6-2.7,8.3-.4,1.3-.9,2.6-1.3,3.9-.4,1.3-.9,2.5-1.2,3.8-.1.7-.5,1.3-.7,1.9-.2.7-.4,1.3-.7,2-.5,1.4-.9,2.8-1.4,4.2-.4,1.3-.9,2.6-1.3,3.9-.2.6-.3,1.2-.6,1.8-.2.4-.7,1-.4,1.4-.3,0-.3.5-.4.7-.1.5-.3,1-.4,1.5-.3,1-.7,2.1-1,3.1-.8,2.2-1.5,4.4-2.1,6.6-.3,1-.7,2-1.1,3-.4,1.1-.8,2.3-1.2,3.5-.4,1.1-.7,2.1-1,3.2-.2.5-.3,1.1-.5,1.6-.1.3-.5.8-.3,1.2-.3,0-.3.3-.3.5,0,.3-.2.5-.3.7-.3.8-.4,1.6-.7,2.3-.5,1.6-1,3.1-1.5,4.7-.5,1.5-1,3-1.5,4.6-.2.7-.5,1.4-.7,2.2,0,.3,0,.6-.2.8,0,0-.4.4-.1.5-.5.8-.6,1.7-.8,2.6-.2.9-.6,1.8-.9,2.7-.3.9-.4,1.8-.8,2.7,0,.2-.3.6,0,.8.2.1.6,0,.6.3-1-.2-1.5,1.1-1.6,1.8-.2,1.4-.9,2.7-1.4,4.1-.5,1.5-1,3-1.4,4.5-.2.7-.5,1.5-.6,2.2,0,.4,0,.7-.2,1.1-.2.4-.4.7-.5,1.1-.3.6-.5,1.3-.6,2-.1.7-.2,1.4-.6,2-.3.6,0,1.2-.4,1.7-.5.5-.7,1.2-.9,1.8-.5,1.4-.8,2.9-1.3,4.4-.5,1.5-1,3-1.5,4.5-.4,1.1-.8,2.3-1.1,3.4h0ZM225.6,220.1s0,0,0,0ZM208.2,293c0,.2.4.3.3,0,0-.3.2-.7.3-1,.4.2-.5,2.1-.6,2.4,0,.2-.2.1-.2,0-.1-.3-.2-.6,0-1,.2-.8.2-1.6.8-2.2,0,.6-.6,1.2-.5,1.8h0ZM206.4,298.9s0,0-.1,0c0,0,0,0,0,0,0,0,0,0,0,0,0,0,0,0,0,0,.1,0,0-.2,0-.2,0-.3.1-.6.2-.8.5.2,0,.9-.2,1.1h0ZM206.4,288.6c1-1.2-.2,1.6-.2-.5.2-.4.3.1.2.5ZM206.3,284.2c.3.1.4.4.4.7-.4,0-.5-.4-.4-.7ZM206.5,292.6c.3,0,.3,0,.3.3,0,.1-.2.5-.3.2,0-.3-.5-.3-.7-.1v-.7c.1.3.5.4.8.3ZM205.9,295.4c0,.3-.1.6-.2.8-.3-.2-.4-.6-.4-.9.2,0,.4.2.6,0h0ZM206.1,295.1c.2.1.3-.1.3-.3,0-.3.2-.3.2,0,0,.3-.3,1.9-.8,1.7.2-.4.5-.9.2-1.4ZM207,296.1c0-.2.2-.5.3-.7.3.2.2.6,0,.9-.3.3-.3.8-.4,1.2-.5-.3,0-1,.1-1.4h0ZM207.6,296.4c-.2.4,0,1.1-.4,1.4-.2-.1.2-1.5.4-1.4h0ZM207.5,295.1c-.4-.2,0-.7.1-.9h0c.3.2,0,.6,0,.9h0ZM208,294.9c0,.2,0,1.1-.4,1.2,0,0,0-1.3.4-1.2h0ZM204.5,296.8c.2.1,0,.5,0,.7,0,.2.4,0,.5,0-.1.3-.4.5-.8.4-.2,0-.3-.2-.4-.3,0-.2.1-.5.2-.8.2,0,.3.3.3.5,0,0,.4-.5.4-.5ZM203.1,297.2c-.2-.1-.3-.9-.3-1.1.3.2.3.8.3,1.1ZM203.4,308c0,.5-.1.9-.3,1.3-.2-.2,0-1.2.3-1.3h0ZM203.1,307.1c.1-.5.2-1,.5-1.3.1.5-.1,1.5-.5,2-.1.1,0-.5,0-.6ZM203.1,309.3s0,0,0,0c0,0,0,0,0,0ZM203.1,309.9c0-.2.2-.4.3-.6.2-.2.2-.5.2-.7.2-.6.4-1.3.5-1.9,0-.4-.1-1.1,0-1.4.2-.3.7-.3,1-.3-.7,1.4-1.1,3-1.5,4.5-.4,1.4-1.1,2.7-1.4,4.2,0,.5,0,1.4-.5,1.8-.2.1-.4,0-.6,0-.2.1-.2.4-.3.6-.5-.3,0-.9.2-1.3.2-.3.2-.7.3-1,0-.2,0-.5.3-.6,0,.1,0,1.2.2.7.2-.3.2-.6.2-1,0-.5.4-1,.6-1.4.2-.6.3-1,.3-1.6ZM205.6,305.2c-.2.5-.4,1.1-.5,1.7-.1.7-.4,1.3-.6,1.9l-.7,2.1c-.4-.2,0-.7,0-.9.2-.6.4-1.2.5-1.8.2-.6.4-1.2.6-1.8.1-.4.3-.9.7-1.2ZM199.4,316.6c.4.2,0,.7,0,1.1-.4-.1-.2-.7,0-.9,0,0,0,0,0-.1ZM199.4,318.7c0,.3,0,.7-.2,1,0,.2,0,.3-.1.5-.3-.2,0-1.4.3-1.4ZM199.6,319.6c.1-.3,0-.9.4-1,.1.7-.2,1.3-.4,1.9-.4-.2,0-.6,0-.9ZM200.3,313.9c.2.2.4.3.6,0,0,.6-.4,1.1-.7,1.6,0,0-.4.9-.4.9-.4-.1.5-2.3.6-2.5ZM200.3,307.1c.6-1.9-.4,1.6,0,0ZM200,316.8c0-.3.2-.6.4-.8,0,.3.2,1.2-.3,1.2,0-.1,0-.2,0-.4ZM200.4,318.3c.3-.4.3-.9.5-1.4,0-.2.2-.5.3-.7,0,0,0-.6.2-.4.3.4,0,1.3-.2,1.7-.1.3-.3.6-.4.9,0,.3-.1.6-.2.9-.3-.1,0-.8,0-1ZM201.8,310.8s0,1.3-.1,1.5c0,0,0,.4-.3.4-.1,0-.1-.3,0-.3.2-.5.3-1,.5-1.5ZM201.5,310.9c0,0,0-.1,0-.2,0,0,0,.1,0,.2ZM202.1,312.3c-.4-.3.2-1.6.4-1.9.2-.3.1.3,0,.4,0,.2-.1.5-.2.7-.1.3-.2.5-.3.8ZM202.1,312.3c.1,0,0,0,0,0ZM202.6,309.2c-.4.2,0-1.1.1-1.2.4,0,0,1-.1,1.2ZM202.1,310.6h0c0-.2,0-1.4.4-1.2.4.2-.3.9-.3,1.2h0ZM202.1,308.9c-.5-.3,0-.9.2-1.1.3,0-.2,1-.2,1.1ZM201.7,308.1c0-.4-.6-.7-.2-1,.3-.2.3.6.6.4,0,.2-.2.4-.4.6ZM201.5,311c-.1.4,0,.9-.5,1.2.1-.3,0-.6,0-.8,0,0-.3.5-.4.3-.2-.3,0-.7.2-1-.2.3.5.7.7.4ZM198.7,316.7c0,0,0,.1,0,.2-.3-.2-.4-.6-.4-.9.3,0,.3.5.4.7ZM197.7,324.4c-.5-.2,0-1,.3-1.2,0,.1,0,1.3-.3,1.2ZM198.1,321.4c-.9,0-.6-.7,0-.3,0,0,0,.2,0,.3h0ZM197.9,319.2c.1-.2.4-.3.6-.4.3.4-.2.8-.2,1.2-.2-.2-.5-.5-.4-.8ZM198.4,321.2c0,0,.2-.1.2-.2.1-.1,0-.6.2-.7.3,0-.2,1.2-.2,1.2-.1,0-.2,0-.3,0,0-.1,0-.3.1-.4ZM198.4,323c.1,0,.2-.3.2-.4.2-.5.4-.9.5-1.4,0-.1,0-.5.2-.5.2,0,0,.5,0,.6-.3.9-.6,1.9-1,2.8h0s0,0,0,0c0-.1.1-1.2,0-1.1ZM199,324.4c0,.3-.3.5-.3.7-.3,0-.2-.5-.2-.7h-.1c.4-.2.5-.7.6-1.1.2-.6.4-1.2.6-1.8.1-.4.1-1.9.7-2,.2,0,.1.6,0,.7,0,.5-.4,1-.6,1.5-.2.6-.5,1.2-.6,1.8,0,.3-.1.6-.2.9ZM200.3,321.1c.2-.7.4-1.3.6-2,.1-.5.2-1.1.6-1.5-.3,2.3-1.4,4.4-1.9,6.6-.1,0-.2.3-.3.4.1-1.2.6-2.4,1-3.6h0ZM199.9,325.4h0c-.1,0-.2,0-.3,0-.1,0-.2,0-.2,0,0-.2,0-.7.3-.6,0,0,.3.5.3.5v.2c-.1,0-.1,0-.1,0ZM200.1,324.4c-.5-.3,0-1,0-1.3.3-.8.6-1.6.9-2.5.3-.7.4-1.5.6-2.3,0-.4.3-.8.4-1.1,0-.3,0-.6.3-.7,0,.1.1.1.2.2,0,.2,0,.5-.1.7-.2.5-.3,1.1-.5,1.6-.4,1-.6,2-1,2.9-.3.8-.5,1.7-.8,2.5h0ZM201.4,321.7c-.1,0,.2-.9.3-1,.3.2-.1.8-.3,1ZM201.9,320.5c-.5-.2.4-1.3.3-1.4.3.2-.2,1.2-.3,1.4ZM202.4,318.6c-.2.4-.2-.2-.1-.3,0-.2.1-.7.4-.6,0,.3-.1.6-.3.9ZM205.4,308.1c-.6,1.8-1.1,3.6-1.7,5.4-.2.8-.4,1.7-.9,2.4-.1.2-.3.3-.6.3-.3,0-.2.4-.4.5,0,0,0-.7,0-.8.1-.6.4-1.1.5-1.6.3-1.1.6-2.2,1.1-3.3.4.2,0,.7,0,.9-.3.6-.3,1.2-.6,1.7s-.6.9-.4,1.3c.1.2.5-.5.5-.6.3-.5.4-1,.5-1.6.2-.6.4-1.3.6-1.9.4-1.3.8-2.6,1.2-3.9.4.2.1.8,0,1.1h0ZM205.9,305.5c.3,0,0,.6,0,.7-.2.2-.1.4-.2.7-.5-.2.1-1.1.2-1.4ZM206.2,306.6c0,0,0,.1.1.2-.2,0-.2.2-.2.3,0,.3-.1.6-.3.8,0-.2,0-1.3.3-1.1,0,0,0,0,0-.1h0ZM220.8,309.6s0,0,0,0c.3,0,.7,0,.8.4-.3,0-.6-.1-.8-.3ZM202,301.2c2.2,1,4.5,1.8,6.8,2.6,4.8,1.6,9.6,3.1,14.2,5.1-.2.4-.2.8-.4,1.2-.4.6-.7-.4-1-.6-.3-.2-1.3.2-1.5-.2,0-.2,0-.6-.3-.6-.3,0-.6.4-.9.3,0-.2.3-.2.5-.2,0-.4-.6-.3-.7,0-.1,0-.2-.7-.4-.5,0,0-.3.3-.4.2,0-.1,0-.4.1-.4-.4,0-.7.3-1.1.3-.4,0-.7-.6-.8-1-.5.3-1.1,0-1.5-.4-.2-.2-.4-.3-.6-.3-.3,0-.5.2-.7,0-.5-.4-.9-.8-1.5-.8-.3,0-.6.1-.9,0-.2-.1-.4-.4-.6-.5-.5-.4-1.2,0-1.7-.4-.2-.2-.4-.4-.7-.5-.3,0-.6,0-.8,0-.5,0-.9-.6-1.3-.8-.6-.3-1.3-.4-1.9-.2,0-.7-.7-.6-1.2-.5,0-.3-.1-.8-.5-.7-.3,0-.7.5-.9,0-.1-.2-.2-.9,0-1.2.2-.2.7,0,.9.1h0ZM206.4,299.7c-.5,0-1,.1-1.6.2-1.1.1-2.2.3-3.3.4.1-.4.7-.4,1.1-.4.8,0,1.6-.1,2.4-.2-.1-.4.2-.8.2-1.3,0-.5.3-.9.5-1.4.6.2,0,1-.2,1.3,0,.2,0,.4,0,.6,0,.3.3-.5.4-.5.3.2,0,.5.2.8.2.3.4,0,.6-.2.2-.3.3-.3.4,0,0,.2.5.3.5.4,0,.3-1,.3-1.2.3h0ZM205.8,298.3s0,0,0,0ZM207.4,298.7h0c-.2-.1,0-1.1.4-1,0,.2,0,1.2-.5,1ZM210,293.1c-.6,1.3-1,2.8-1.3,4.2,0,.3,0,.7-.2.9,0,0-.4.5-.1.4.1,0,.3-.2.4-.2.1,0,0,.4,0,.4-.1.2-.6.8-.9.4-.3-.3.2-1.3.3-1.7.5-1.4.9-2.9,1.4-4.4,0-.2.6-1.8.3-1.7-.3,0-.3.8-.4,1.1-.1.7-.4,1.4-.6,2-.2.6-.4,1.1-.5,1.7,0,.2-.1.9-.5.8,0-.6.3-1.1.4-1.6.2-.6.3-1.1.5-1.7.2-.5.4-1,.5-1.6,0-.3.7-.9.2-1.2-.3-.2-.2.5-.3.6,0,.2-.1.1-.2,0,0-.2,0-.4.1-.6,0-.2.2-.3.2-.5,0-.2-.2-.2-.3,0-.4.6-.1-.1-.4,0,0,0-.1.3-.1.3-.6-.2.2-1,0-1.4-.2,0-.3.3-.2.5-.2-.7.1-1.4.4-2,.3-.6.5-1.3.5-2,.4.3.2.8,0,1.2-.3.6-.4,1.2-.4,1.8,0,.2,0,1.1.4.9.2,0,.2-.4.1-.6,0-.3,0-.6,0-.9,0-.5.2-1,.6-1.3.4-.4.2.5.1.7,0,.1-.7,1.4-.2,1.4.2,0,.2-.5.2-.6,0-.3.2-.6.3-.9,0,0,.2-.5.3-.3.1.2,0,.6-.1.8-.2.5-.5,1-.6,1.6,0,.5.2.3.4,0,.3-.5.4-1.1.5-1.6.1-.6.4-1.2.6-1.8s.2-.5.2-.8c0-.4.2-.4.3-.6.3-.5.2-1.1.4-1.6,0-.3.2-.6.3-.8.1-.3.1-.6.3-.9.4.2,0,.8,0,1.1-.3.7-.5,1.5-.8,2.3-.5,1.5-.9,3-1.4,4.5,0,.3-.2.6-.2.8,0,.2.1.4.3.2.2-.2.2-.5.2-.7,0-.4.2-.8.3-1.2.4-1.5,1-2.9,1.4-4.4.5-1.5,1-3.1,1.4-4.6.2-.6.2-1.3.5-1.9.4-.6.8-.2.7.4-.1.7-.4,1.3-.6,2-.2.8-.4,1.6-.6,2.3-.4,1.5-.9,3-1.4,4.6-1.2,3.9-2.6,7.7-3.8,11.6-.6-.2.8-3.1.9-3.5.2-.6.5-1.3.6-1.9,0-.5-.3.2-.4.3h0ZM217.4,302.1c-1.5-.5-3.1-1-4.6-1.5l-2.2-.7-1.1-.4-.5-.2c0-.2.1-.4.2-.7.8-3,1.9-6,2.9-8.9,1-3,2-6.1,2.8-9.2.3-1,.6-2.1.8-3.1.5.3,1.2.3,1.8.4.8.1,1.6.4,2.3.5,1.5.4,3.1.7,4.6,1.1,1.5.4,3.1.8,4.6,1.1.3,0,.7.1,1,0,.3,0,.6-.3.9-.3.3,0,.6,0,1,0,.3,0,.3.3.2.5-.3.6-.2,1.3-.3,2-.2.8-.4,1.5-.6,2.2-.3,1.6-.7,3.1-1.1,4.7-.7,3.1-1.4,6.3-2.1,9.4-.5,2-1,4-1.5,6-3.1-1-6.1-2-9.2-3ZM223.5,321.4c.6-2,1-4.1,1.6-6.2.2.1.1.4,0,.6-.1.4-.2.8-.3,1.1-.2.8-.3,1.6-.5,2.3-.3,1.6-.7,3.2-1.3,4.7-.8-.3.2-2.2.4-2.7ZM220.9,333.1c.3-.8.4-1.7.5-2.6.4-2.1.8-4.1,1.5-6.1.7.3-.4,2.5-.5,2.9-.7,2.3-1,4.8-1.6,7.1-.5-.3,0-1,0-1.3ZM220.5,335c0-.1,0-.2,0-.3.3.2.3.7.1.9-.2-.1-.1-.4-.1-.6ZM219.7,339h0c-.1-.4,0-.8.2-1.3.2-.6.3-1.2.4-1.8.4.2.1.8,0,1.2-.2.7-.3,1.4-.4,2.1,0,0-.1-.1-.2-.2h0ZM226.3,322.1c-.5-.8.3-2.3.5-3.3.3.6-.4,2.2-.5,3.3ZM227,317.2h0c.3,0,.4.6.3.8-.2.2-.3-.7-.2-.8h0ZM227.5,316.5h0c-.3,0-.1-.5-.4-.5.3-.1.5-.4.7-.7.1.4-.3.8-.2,1.2ZM227.5,338.2c0,.4-.3-.2-.2-.5,0-.4.3.2.2.5ZM228.4,331.9c-.3.6-.3,1.2-.5,1.8-.3-.4,0-1.8.5-1.8ZM230.3,315.1c.3,0,.3.5.2.7.4-.4.5-1.1.5-1.6.4.2.2.7.1,1-.1.4,0,.8-.6.8,0,0-.4,0-.3.2,0,.1.3,0,.4.1.3.2-.2,1.3-.3,1.6-.3-.2,0-.6-.1-.9,0,.2-.2.7-.5.3-.2-.3-.2.2-.2.4-.5,0-.1-1.2.5-.7-.1-.7.4-1.2.2-1.9h0ZM230.5,304.3c0-.4.3.2.2.5,0,.4-.3-.1-.2-.5ZM231.7,305c.7.4-.2,1,0,1.6-.7-.4.2-1,0-1.6ZM233.8,288.1s0,0,0-.1c.7.4,0,1.3,0,1.9,0,.2,0,.7-.2.8-.1,0-.1-.2-.2-.3-.2,0-.2.2-.2.3-.6-.4,0-1.2,0-1.7.3,0,.2.5.2.7.4-.4.4-1.1.5-1.6ZM234.3,288c-.3-.2-.5-.9,0-1,0,.3,0,.7,0,1ZM234.7,298.7c.5-.5,0,.7,0,1.2-.7-.2.1-.8,0-1.2ZM235.2,286c.2-.2.2.2.2.3,0,.4-.3.9-.2,1.3-.7,0,0-1.3,0-1.6ZM235.9,295.1c-.6-.4,0-1.4.2-1.8.2.6-.4,1.2-.2,1.8ZM235.9,295.8c.5-.5,0,.7,0,1.2-.7-.2.1-.8,0-1.2ZM236.4,298.9h0c-.1.7-.4,1.5-.5,2.2,0,.4,0,1.1-.4,1.3-.4-.2,0-.9,0-1.2.2-.8.4-1.6.8-2.3h0ZM238.3,276.4c.3,0,.3.4.3.6,0,.3-.2.3-.5.3,0-.3.3-.6.2-.9ZM238.7,278c-.3.3-.8.2-1.2.2,0-.2.3-.4.4-.5,0,0,1,0,.7.2ZM239.3,264.2c-.4.5-.3-.5-.3-.7.3,0,.2.5.2.7,0,0,0,0,.1,0ZM239.4,278.8c0,.3,0,.8-.2,1.1-.1-.1-.8,0-.7-.4,0,0,.4-.3.2-.4-.1,0-.4,0-.5.2,0-.1.2-.7,0-.6.3-.2.6-.2.8-.3.2,0,.5.1.5.4h0ZM240.4,274c.6-.5-.2.8,0,1.4-.7-.2,0-1,0-1.4ZM242,265.3c-.1-.4.5.1.6,0,0,0,0,0,0,0,0,0-.4.4,0,.3s.3-.5.2-.8c.3.1.4-.7.4-.9,0-.5,0-1.2.5-1.5-.1.3,0,.6,0,.8,0,.3-.2.5-.2.8-.1.6-.4,1-.3,1.6,0,.2.2.4.3.6,0,.3,0,.5,0,.7,0,.2,0,.5-.2.6-.2,0-.4,0-.6,0,.1-.1.2-.4,0-.5-.2,0-.3.2-.4.4,0-.1,0-.3-.2-.2.3-.7.4-1.3.2-2ZM243.2,261.4c.3.2.3.6.2.9-.1,0-.2.1-.3.2,0-.2,0-.5,0-.7,0-.1-.2-.4-.2-.1-.2-.2.1-.4.3-.3h0ZM242.9,252.3c0-.4.3.2.2.5,0,.5-.3-.1-.2-.5ZM244.6,262.8c0,.7-.2,1.3-.4,1.9-.4-.3.2-.7.2-1.1,0-.2-.2-.9.2-.9ZM244.8,256.9c.6-.5-.2.8,0,1.4-.7-.2,0-1,0-1.4ZM244.2,264.8c.1,0,0,0,0,0ZM244.3,265.3c.2-1,.7-1.8.5-2.8.3.2.4-.7.5-.9.1-.8.2-1.7.6-2.3,0,.8-.3,1.6-.5,2.4-.2.9-.4,1.8-.6,2.7-.4,1.7-.9,3.4-1.2,5.2-.1.9-.4,1.7-.6,2.6-.2.9-.4,1.9-.6,2.8-.4,1.9-.9,3.7-1.3,5.6-.6-.3,0-1.3.1-1.7.2-.4.3-.9.4-1.3,0-.2,0-.7,0-.9.3-.3.4-.9.5-1.3,0-.2,0-.4,0-.6,0-.5.2-1,.3-1.4.3-.9.5-1.9.6-2.8.1-.9.7-1.7.7-2.5,0-.9.2-1.8.5-2.7ZM246,253c-.1,0-.3,0-.4,0,.2-.5.6-1.1.3-1.7.3-.1.4.4.3.6,0,.3-.4.7-.2,1h0ZM246.6,257.2c-.1.2-.2.4-.2.6,0,.1,0,.3,0,.3-.4-.2-.2-.9.3-.9ZM246.5,233.2c-.2,0,0-1.3-.5-.7,0-.4.3-.7.2-1.1.3.3.4.8.4,1.2,0,0,0,.6,0,.6h0ZM246.7,237.6c-.3-.2-.4-.6-.2-.9.1-.2.2.8.2.9ZM246.2,237.6c.7.4,0,1.4,0,2-.2-.3-.4-.6-.3-1,.1-.3.4-.7.2-1h0ZM246,249.2c0,.3.5.7.3,1-.1.2-.6.5-.9.4-.3-.1-.3-.6-.3-.8,0-.5.5-.6.9-.6h0ZM245.7,251.6c0,.4,0,.7-.3,1.1-.3-.2-.3-.6-.4-.9.2.2.4,0,.6-.2h0ZM244.3,269.9c-.2-.1-.2-.3-.2-.5,0-.2,0-.3,0-.5.3.2.1.7,0,1ZM240.5,282.7c.2-.6.3-1.2.5-1.8.6.3-.2,1.6-.3,2,0,.3-.1.5-.2.8-.4-.2,0-.7,0-1h0ZM240.3,284.8s0,0,0,0c0-.2-.2-.2-.2-.4,0-.2,0-.4.2-.6.2.1.2.7,0,.9ZM241.2,278c0-.3-.2-.6-.3-.9,0,0,.1,0,.2,0,0,0,.2,0,.2,0,0,.3,0,.6-.1.9h0ZM242.2,269.2c0,.4-.3-.2-.3-.4,0-.1.2-.4.3-.2,0,.2,0,.4,0,.5h0ZM242.5,270.2c.1.5-.2.9-.3,1.3-.3,0,0-.9,0-1.1,0-.1.2-.6.3-.2h0ZM242.1,274c0,.2-.1.4-.1.6,0,.1,0,.2,0,.4-.4,0-.4-1.1.1-.9h0ZM243.2,268.6c0,0,0,.1-.1.2,0,0,0,0,0-.1-.3.2-.5-.2-.5-.4,0-.4.4-.2.6-.3,0,.3,0,.5-.2.8h0s0,0,0,0ZM243.5,264.9s.1,0,.1,0c0,.1,0,.3,0,.4,0,.1,0,.3,0,.4,0,.1-.2,0-.2,0,0-.1,0-.2,0,0,0-.3,0-.6,0-.9h0ZM241.9,266.1c0,.3-.1.6-.2.9-.4-.2,0-.7,0-1,0,0,.1-.4.3-.3-.1,0,0,.3,0,.3h0ZM241.7,265c0,.3-.2.5-.2.7,0,.2,0,.4-.3.5.2-.4,0-1.1.5-1.4,0,0,0,0,0,.1h0ZM241.3,270.9c0,.5-.3,1-.2,1.5-.4-.1-.3-.6-.2-.9,0-.2.3-.4.4-.6h0ZM241,278.4c.3-.2,0,.9,0,1,0,0,0,.8-.2.7-.1,0-.1-.5,0-.6,0-.3,0-.9.4-1.1h0ZM240.5,281.4c-.2.7-.4,1.4-.5,2.1-.3.3-.3.7-.3,1.1,0,.6-.2,1.1-.4,1.6-.5-.3,0-1.1.2-1.5,0-.4-.2-.7-.2-1.1,0,0,0-.7.2-.6,0-.2-.1-.6,0-.8.1-.3.5,0,.7-.2.4-.4.2-1.1.3-1.6.4.2,0,.8,0,1h0ZM239.7,287c0,.3,0,.7-.2,1,0-.1,0,0-.1-.1,0-.2,0-.4,0-.6,0-.4.2-.8.4-1.2,0,.3,0,.7-.2,1h0ZM239.1,290s0,0-.1,0c-.1,0,0-.3,0-.3,0-.2,0-.5.2-.6,0,.2,0,.3,0,.4,0,.2,0,.3,0,.5h0ZM238.5,290.5c0,.1-.1.2-.2.3-.2.2,0,.5-.1.7-.1-.2-.2-.4-.2-.6,0-.1,0-.2,0-.3,0,0,.2,0,.2-.2.1-.6.2-1.2.3-1.8.2.1.2.4.1.6,0,.3,0,.7-.1,1,0,.1,0,.2,0,.3h0ZM238.1,294c-.1,0,.1-.9.2-1,0,.3,0,.7-.2,1h0ZM237.7,294.2c-.4.6-.2-.5-.4-.4.1-.2.2-.5.3-.8.1-.3.2-.4.5-.4-.3.5-.5,1.1-.3,1.6ZM236.8,299c.2-.2,0-1.5.5-1.5,0,.6-.3,1.2-.4,1.8-.1.6,0,1.2-.3,1.7-.6-.3.1-1.6.2-2.1h0ZM236,302.9c-.1-.4,0-.9.2-1.3,0-.1,0-.3,0-.4.5.2,0,1.3-.3,1.7ZM237.6,279.7c-.4,1-.7-1.1,0-.6,0,.2,0,.4,0,.6ZM237.5,285.9c0,0,.2,0,.3,0,0,.7-.3,1.4-.4,2.1,0,0-.1.8-.2.7-.2-.1,0-.6,0-.8.2-.6.4-1.3.4-2ZM237.4,289.6c0-.6.3-.3.2.1,0,.2,0,.4-.2.5-.1.1,0-.6,0-.7ZM237.4,291.4h0s0,0,0,0h0ZM237.4,291.4c0,.2.2.5.4.7-.2,0-.3.2-.4.3,0-.3,0-.6,0-.9ZM237.6,289c-.2,0,0-.7,0-.8.3,0,.3.7,0,.8h0ZM237.6,288.2s0,0,0,0ZM237.2,290.5c.3.2,0,1.7-.2,1.7-.1,0,0-.4-.1-.5,0-.4.2-.7.3-1.1h0ZM236.7,293.3c-.1-.3,0-.7,0-1,.2.1.5,1.1,0,1.1h0ZM237.5,296.1c0,0,0,1.1-.1,1-.2-.2,0-.8.1-1ZM238,290.1h0s0-.3,0-.4c0,0,0-.6.1-.4.2.2,0,.7,0,.9,0,0,0,0,0,0ZM238,287.9c-.2.2,0-1,0-1.1,0,0,.2-1,.3-.7,0,.2,0,.5,0,.7,0,.3,0,.9-.3,1.1h0ZM238,284.2c0,0,0-.4.2-.3.2.2,0,.6,0,.9-.3,0-.3-.5-.2-.6h0ZM239,283c.2.1,0,.5,0,.7,0,.2-.2.4-.2.6,0,.2,0,.4,0,.6-.4,0,0-.7,0-1,.5.1-.1-1.1.4-.9ZM238.7,281c0-.2.2-.3.3,0,0,.2,0,.5,0,.7,0,0-.3-.5-.3-.7ZM239,284.6c0,.2.1.4.1.5h0s0,0,0,0c0-.2-.1-.3,0-.5,0,0,0,0,0,0h0ZM239,286.5c.3.2.1.5,0,.7,0,.2,0,.3,0,.5,0,.1,0,.2,0,.3,0,0,0,.1,0,.2v.2c-.6-.4,0-1.4,0-1.9h0ZM239.9,281.8c0,0-.1,0-.2.1,0-.2,0-.4,0-.6,0-.2,0-.4,0-.6,0,0,.2-.6.3-.5.2.1-.6,1.5-.2,1.6h0ZM240.5,277.9c0,.3,0,.6,0,.9,0,.2-.5.6-.3.9-.3-.6,0-1.3.3-1.8h0ZM239.8,277.6c0,.2-.3.1-.4,0,.5.1.1-.8.4-.9-.1,0,.1.5.3.5-.1.2-.2.3-.3.5h0ZM239.7,265.4s-.1.2-.2.2c-.1-.1.5-1.2-.2-.8.7-1.1.6.7.4.7h0ZM237.3,272.2c0,0-.2,0-.3,0,.2-.5.3-1.1.3-1.6.7.3-.2,1.1,0,1.6h0ZM237.3,283.8v.7c-.5.2-.1-1.5,0-.7h0ZM237.1,289.9c0,.4-.2.9-.5,1.1h0c-.1-.8.5-1.4.2-2.1.3.2.3.6.3,1h0ZM236.5,287.6c-.4-.4,0-1.3.3-1.6.2.2-.3,1.4-.3,1.6ZM233.4,314.2c-.3-.2-.1-.8,0-1,.2.1,0,.4,0,.6,0,.1,0,.3,0,.4ZM233.5,314.2s0,0,0,0c0,0,0,0,0,0h0ZM233.6,312.3c0-.5-.3-.2-.3,0,0,.3,0,.5-.2.8,0,.2-.2.3-.2,0,0-.6.2-1.3.5-1.9.2-.2.5-.5.7-.1.2.3-.1.8-.2,1.2,0,.2-.1.4-.1.6-.2-.1-.1-.4-.1-.6h0ZM231.8,321.9h0c0,.1-.1.2-.2.2,0-.1,0-.3-.2-.3.3-.4.4-.9.5-1.4.6.3-.3,1,0,1.4ZM230.1,320.8c0-.3.2-.7.3-.9.2,0,.4,0,.5.2,0,.3,0,.7-.2,1-.2-.1-.2-.4-.1-.7,0,.1-.5.8-.5.3ZM230.2,325.1v-.2c.1.3.3,1.2-.3.9.1-.2.2-.5.3-.7ZM230.1,324.9h0s0,0,0,0ZM230.5,318.5c.3-.1.4.9-.1.8h0c.1-.2.3-.5.2-.8ZM231.4,317c-.1,0-.3.1-.4.3,0,.3,0,.6-.1.8-.3,0-.2-.4-.1-.5.2-.4.2-.9.2-1.3,0,0,.2,0,.3-.1,0,.2-.3.9.1.9ZM231.3,318.4c-.3-.2,0-.7,0-1h0s0,0,0,0c0,.1,0,0,.1,0,0,.4,0,.7-.1,1.1ZM231.4,318.4h0s0,0,0,0ZM230.9,325.1c-.3,0,0-.8,0-.9.1-.4,0-1,.4-1.2.1.7-.2,1.4-.4,2.1ZM232.3,318.6c0,0,0,0,0,0,.3.4,0,.8-.1,1.2,0,.1,0,.3-.1.4-.6-.3,0-1.3.2-1.7ZM232,317.4c0,.3,0,.7,0,1,0,.4-.2.7-.3,1.1,0,.3-.1.7-.2,1,0,.2,0,.3-.2.5,0,.1,0,.2-.1.3,0,0-.2,0-.3,0,.4-.7.4-1.5.5-2.2,0-.1,0-.3,0-.4.1,0,.2-.2.2-.4.1-.4.2-.9,0-1.3.2,0,.2-.3.2-.4,0-.4.1-.7.3-1.1.2-.7.7-1.4.4-2.1,0,0,.3,0,.3.2,0,.3,0,.6,0,.9,0,.3-.2.6-.3.9,0,.7-.4,1.2-.6,1.9ZM231.5,310c0-.4.3-.5.6-.5.3,0,.6,0,.7.2.2.4.1.9-.2,1.2h0c0,0-.9,0-.9,0,.2-.3-.1-.6-.2-.8ZM233.1,296.8c-.6-.3,0-1.2.2-1.6,0,.3,0,.6.1.9-.4-.2-.3.5-.3.7ZM233,300.2c0-.3,0-.7.1-.9.5-.8.2,1.3-.1.9ZM232.9,307.3c0,.3,0,.5-.1.8-.2,0-.2-.4-.1-.6,0-.1.2-.4.2-.2h0ZM233,315.1c.3,0,0,.8,0,.9-.2,0-.1-.9,0-.9ZM234,309.6h0c0,0-.2,0-.2-.2,0-.2,0-.5.2-.7-.1.1.4.7,0,.9ZM234,310.1c0-.3.2-.5.3-.8,0,0,0-.2.2-.1.1.1,0,.3,0,.5,0,.3,0,.6-.2.8-.2.2-.2-.3-.2-.4ZM234.8,307.4c0-.2,0-.3,0-.5,0-.2.1-.4.2-.6.2-.4,0-.9.4-1.2,0,.5,0,1-.2,1.4-.1.6-.3,1.2-.4,1.8,0,.2-.1.3-.2.5-.5-.2,0-1.2.1-1.5h0ZM234.9,303.9h-.2c-.2.3-.2-.3-.2-.4,0-.3,0-.7.4-.8,0,.4-.1.8,0,1.2h0ZM235.3,303.6c-.3-.1,0-1.1.2-.9,0,0,0,0,0,0,0,.1,0,1-.1.9h0ZM234.5,307.1c0,.3,0,.5-.2.8,0,.2,0,.4-.2.6,0,.1-.3,0-.4,0,0,0-.4.4-.4.5-.2-.2,0-.4,0-.6.2-.3.2-.7.2-1,.3.2.7,0,.9-.2h0ZM233.5,294.9h0c.3,0,.4.9,0,1,0-.3,0-.7-.2-1ZM234,307h0s-.1,0-.1,0c0,0,0-.1,0-.2-.1,0,0-.3,0-.4.2-.3.3-.1.6,0-.2.1-.3.3-.4.5ZM234,290.9l.2.7c-.6.7-.3-.4-.2-.7ZM234,295.8c0-.2,0-.5,0-.7,0-.3.2,0,.2.1,0,.2,0,.8-.3.6ZM233,291.1c-.4,0-.4,1-.4,1.2,0,0-.2,0-.3,0,0-.5.2-1,.3-1.4,0,0,.2.1.3.2h0ZM232.4,299.2c0,.3,0,.6-.1.8-.2,0-.2-.4-.2-.5,0,0,.3-.4.3-.3ZM232.4,308.8c0,0-.8.2-.9.2h0c0-.4.8-.5.9-.2h0ZM231.5,311.5h.1c0,.2-.1.3-.1.5.1,0,.3,0,.2-.2.4,0-.1.7,0,.9-.3,0-.4-.3-.7-.2.2-.3.4-.6.5-.9ZM229.4,310.8v.2c-.2-.2-.2-.5-.3-.8,0-.1,0-.2,0-.4.2-.5.3-1,.5-1.5,0-.2,0-.4.2-.5.1-.3.2.3.1.3,0,1-.5,1.8-.6,2.8ZM229.1,311.3c0,.2-.1.4-.3.2-.2-.3-.2-.7-.2-1.1.4,0,.4.6.5.9ZM228.7,313.9v.2c-.2-.1-.5-.2-.7,0,.2-.4,0-1.2.3-1.4.4-.3.4,1.2.4,1.3ZM228.2,315.1c0-.2-.2-.9.2-.8,0,.2,0,.7-.2.8ZM228.2,334h-.2c.2-.4.3-.8.3-1.3,0-.2,0-.7.3-.6,0,.4.2,1.9-.5,1.9ZM228.7,324.2c0-.1.2.2.2.2.1.2,0,.5,0,.8-.4,0-.2-.7-.2-.9h0ZM229.1,333.6c0,0-.2,0-.3,0,0-.4.1-.9.2-1.3,0-.2,0-.5.3-.6.2.6-.3,1.2-.2,1.9ZM229.4,323c-.1.3-.2.6-.3.9-.4-.3,0-1,.1-1.3.2-.6.3.2.2.4h0ZM229.9,323.5c.4.2-.2.8.2.9-.2,0-.3.3-.3.5,0,.1,0,.2,0,.4-.7-.2,0-1.5.2-1.8h0ZM230.6,329.4c-.2.8-.4,1.6-.7,2.4,0-.4.2-.9.2-1.3s0-.7-.2-.5c-.3-.3.2-.6.4-.8.4-.3.4-.9.3-1.4.5.4.2,1.1,0,1.6ZM231.2,326.1c0,.6-.4,1.1-.2,1.6,0,0,0,0,0,.1-.8-.5.1-1.4,0-2,.2,0,.3.2.5.2h-.2ZM231.9,322.8c0,.5,0,1.1-.3,1.6-.1.3-.5.9-.2,1.3-.5-.3-.1-1,0-1.5,0-.3.1-.7.1-1,0-.4,0-.3.3-.4h0ZM232.4,321.1c0,.1,0,.3,0,.4,0,0-.2.1-.2.3-.3-.3,0-.6.1-.9.1,0,.3.1.4.2,0,0-.1,0-.2,0ZM233.1,320.1c0-.2.3-1,0-1,0,0,.1,0,.2-.1-.1.1,0,.4,0,.5,0,.2,0,.5-.2.6h0ZM233.5,318.8c-.9-.4-.6,1.3-.6,1.6-.2,0-.3.2-.2.3-.4-.2-.3-.7-.2-1,0-.3.2-.5.2-.8,0-.3,0-.5-.1-.8,0-.4,0-1,.1-1.4.2-.4.2.5.3.4.1,0,.1-.3.2-.5.1-.2.1.1.1.2,0,.3-.4,1.2.2,1.2,0,.2,0,.5-.1.7h0ZM234.8,312.8c0-.3-.2-.7,0-1,0,.1.2,0,.2,0,0,.4,0,.8-.3,1.1h0ZM234.9,310.2c0,.1-.3,1.2,0,1.1-.3.3-.4.7-.4,1,0,.2,0,.4,0,.6,0,.2-.3.1-.3.3-.2.5-.2,1-.3,1.4-.1.6-.3,1.1-.3,1.7h0c-.5-.2-.2-.8-.1-1.3,0-.3.1-.5.2-.8.2-.3.2-.8.2-1.1.1-.8.4-1.5.5-2.3.2-.8.3-1.6.6-2.3.6.3,0,1.1-.2,1.5ZM235.8,306.8c0,.3-.2.6-.2.8,0,.3,0,.6-.2.9-.4-.2,0-.7,0-1,.1-.6.3-1.2.4-1.8.4.2.1.8,0,1.1ZM236.1,305.5h-.2c0-.2,0-.4,0-.5.3.1.3-1,.3-1.1.6.4,0,1.2,0,1.6h0ZM236.5,303.5c-.4-.3,0-.9,0-1.2.1-.3.1-.6.2-.9,0-.1,0-.3,0-.4,0,0,.2,0,.2,0,0,.8-.3,1.6-.6,2.4h0ZM237.2,300.8c-.4-.2.1-1.5.2-1.8.4.2-.1,1.5-.2,1.8ZM237.7,298.6c-.3-.2-.2-.6-.1-.9,0-.2.1-.4.2-.6,0,0,0-.1,0-.2,0,0,.2,0,.2.2,0,.5-.2,1-.3,1.5ZM238.2,296.8c-.4-.2-.1-.7-.2-1,.5.1.3-.9.3-1.1.1,0,.3.1.3.2,0,.6-.2,1.3-.4,1.9ZM242.1,281.8c-.3,0,0-.9,0-1,0,0,0,.2,0,.2,0,0,0-.2,0-.2,0,0,0,0,0,0,0,.3,0,.7-.1.9h0ZM242.5,279.7c0-.3,0-.7.1-1,0,.1.3,1-.1,1ZM242.8,276.3c0,.6-.2,1.2-.3,1.8,0,.2-.2.4-.3.7,0,.3-.1.6-.1.9,0,.3,0,.5-.1.8-.1.2-.3.4-.3.6,0,.6,0,1.2-.2,1.8-.3,1.3-.6,2.5-.9,3.8-.6,2.6-1.2,5.2-1.9,7.8-.3-.2,0-.5,0-.8,0-.4,0-.8-.1-1.1.6,0,.4-.7.5-1,0-.4,0-.8.3-1.2.2-.4.3-.6.3-1.1,0-.4,0-.7.2-1.1.2-.4.3-.7.4-1.1,0-.8.2-1.5.5-2.3.1-.3.2-.7.2-1.1,0-.5.2-.9.3-1.4.2-.9.5-1.9.7-2.8.4-1.9.8-3.7,1.3-5.6.3.2.2.6.2.9,0,.2-.2.4-.3.6,0,.2,0,.4,0,.7h0ZM243.1,276.9s0-1.2.1-1.3c0,.2.1.3.1.5,0,.3,0,.6-.2.8ZM243.3,273.8c-.1.1-.2-.2-.2-.2,0-.3.2-.6.2-.9.2-.9.4-1.7.6-2.6.4.2.2.7,0,1-.2.5-.3,1.1-.3,1.6,0,.3,0,.9-.4,1.1h0ZM243.8,274.1c-.3,0,.2-1.3.2-1.5.3.2,0,1.2-.2,1.5ZM244.6,271.1c0,.4-.2.9-.4,1.3-.5-.2,0-1.2.2-1.5.2-.3.2,0,.2.2ZM244.9,269.3c0-.1,0-.2,0-.4,0-.2,0-.4.1-.6,0-.3.2-.6.3-.9.6.5,0,1.4-.3,1.9h0ZM245.2,267.4s0,0,0,0ZM245.7,266.4s0,0,0,0h0c0,0,0,0,0,0ZM245.5,266.3c0-.4,0-.7,0-1.1,0,0,0,.2,0,.3,0,.2.2.8-.2.8h0ZM245.9,262.6c0,.3,0,.7-.1,1,0,.5-.2,1.1-.5,1.5-.3.4-.1,1-.2,1.5,0,.3-.2.6-.3.9-.1.3-.1.6-.3.9-.2.5-.2-.1-.2-.3.2-.7.3-1.4.5-2.2.3-1.4.6-2.8,1-4.2h.1c0,.3,0,.6,0,.8h0ZM246.2,263.3c0-.3,0-.6.1-.9s0-.7.3-.9c0,.2,0,1.9-.4,1.9h0ZM246.9,258.5c0,.6-.3,1.1-.4,1.7,0,.3-.1.5,0,.8-.2.2-.3.4-.4.6-.3-.2,0-.7,0-.9.2-.5.3-1.1.2-1.7.2.1.2-.3.2-.4,0-.1.2-.2.2-.4,0-.2,0-.4.1-.7.1.3.1.7,0,1h0ZM247.1,246.6c.6-.3-.2,1.6-.2,2.1-.5-.4.4-1.3.2-2.1ZM247.1,255.4c.2.1.3.3.3.5,0,0,0,.4.1.3l-.2.2c-.4-.2,0-.7-.2-1h0ZM248.2,249.4c0,0,0,.7-.1.7h.1c-.3.5-.3,1-.5,1.6-.3-.3-.2-.8-.1-1.2,0-.1.4-1.2.6-1.1h0ZM247.8,242.4c-.5-1,.7-1.8,0,0ZM247.6,253.7s0,0,0-.1c.4.3.1.7.2,1.1,0,0,0,.7-.1.6.1.1,0,.1-.1,0-.1-.1-.1-.3,0-.5,0-.4.3-.8.2-1.2h0ZM247.6,258.2c0,0,0,0,0,0ZM247.5,258.1c-.4-.1-.1-.7-.3-1,0,0,.5-.2.3-.3l.3-.3c0,.5-.2,1-.3,1.5ZM248.1,255.1c0-.2,0-.9.2-.9,0,.2.1.9-.2.9ZM248.2,252.8c-.1.1-.1.3-.2.5-.2.3-.2-.3-.2-.4.1-.8.3-1.7.6-2.5.1,0,.1.3.3.3-.3.7-.6,1.4-.5,2.2ZM248.5,247.8c0,.2.2.5,0,.7,0,.2-.2.1-.3,0,0-.2-.1-.7.2-.7h0ZM248.3,239.1c0-.4.3.2.2.5,0,.4-.3-.1-.2-.5ZM248.7,252.8c0,0,0,0,0,0ZM248.7,252.8c-.3-.1,0-1.7.3-1.7.2.2-.3,1.5-.3,1.7ZM249.8,245.6c-.2.9-.3,1.8-.7,2.6,0-.2,0-.4-.1-.6.5.1.6-1.9.6-2.1,0-.2,0-.5.2-.7.1-.2.1.3.1.3,0,.2,0,.4-.2.6h0ZM251.1,226.4c.4.3.3.5.2,1-.4,0,0-.8-.2-1ZM255.3,217.3c0-.3.2.3.3.3,0,.2,0,.4-.1.5-.2.2-.2.5-.3.8-.6-.2.2-1.3.2-1.6h0ZM255.8,210.8c.6-.2-.3,1.8-.2,2.6-.7-.7.4-1.6.2-2.6h0ZM255.6,219.5c-.4-.2,0-.9.4-1-.2.2-.2.5-.3.7,0,0,0,.2,0,.3ZM255.7,219.5s0,0,0,0ZM254.9,216.4c-.2,0-.3-.3-.3-.6,0-.1,0-.3,0-.4,0-.1.2-.2.2-.3s0-.2.1-.3c.6.4-.3,1.1-.1,1.6h0ZM254.5,215.1c0-.2,0-.4,0-.6,0-.1.1-.4.2-.1h.2c-.1.3-.2.5-.3.8h0ZM254.5,215.1s0,0,0,0ZM254.4,218c0,0,0,.2,0,.2-.3-.2-.2-.6-.2-.9.3,0,.2.5.2.7ZM254.2,218.8c0,.6-.2,1.1-.3,1.6,0,.3-.1.6-.2.9-.2,0-.2-.2-.2-.3,0-.6.3-1.1.4-1.7,0-.2,0-.6,0-.8.2-.3.3.1.3.3h0ZM253.3,217.1c0,0,.1,0,.2-.1-.3.3.2.7,0,1s-.3,0-.3-.2c0-.3.1-.5.3-.7,0,0,0,0,0,0ZM253.2,219.7c0-.3,0-.9.4-1,0,.3,0,.6,0,.9,0,.3-.2.4-.3,0ZM253,221.3c0-.2,0-.7,0-1,.2.1.3,1,0,1h0ZM253.9,215.7c0,.2-.3.4-.1.6-.3,0-.7,0-.9.2-.2.3-.3.6-.4.9-.2,0,0-.3,0-.4,0-.2,0-.4,0-.6-.2-.4-.6-.7-.5-1.1s1.1-.6,1.2-1.2c.3.1.4,1.4.9,1,0,.2.1.5,0,.7h0ZM250.5,231.9c.4.2,0,.7.2,1.1-.1,0-.2,0-.3-.2,0-.2-.1-.8.1-.9h0ZM250.4,229.4c.1,0,.2.1.3.2,0,.3,0,.7-.3.9.2-.4.2-.8,0-1.1ZM250.6,237.6c.3.2.2.5.2.8,0,.4,0,.8-.2,1.1-.7-.5.3-1.3,0-1.9h0ZM250.9,236.5c.3.2.3.6.2.9h0c-.4-.1,0-.6-.2-.9ZM250.9,231.6s0,0,0,.1c-.4-.3-.3-.8-.1-1.2.3-.5.3-1.2.4-1.7,0,0,.2.1.3.2-.4,0-.3.6-.3.8,0,.6-.3,1.2-.3,1.8h0ZM251.6,234.4c0,.2,0,.4,0,.5,0,.3,0,.7-.1,1s-.3.4-.3.1c0-.6,0-1.3.5-1.7h0ZM251.5,228.6c-.5-.3,0-1,0-1.4.2-.8.4-1.7.6-2.5.5.8-.3,1.7-.3,2.5h.2c-.4.4-.5.9-.5,1.4h0ZM251.3,227.4s0,0,0,0ZM251.8,219.7c-.5,0-.5-.5-.5-.9,0-.5.5-.4.9-.5.5.4.4,1.6-.4,1.5h0ZM252.3,222.4c-.2,0-.2-.3-.1-.4,0-.2.2-.5.4-.7,0,.2,0,.9-.2,1ZM251.5,220c.1-.1.9,0,.8,0-.1.2-.4.2-.6.3-.2,0-.5-.2-.2-.3ZM252.1,224.1h0c-.2,0-.3-.2-.3-.4,0,0,0-.5.1-.4.1.1.2.6.1.8h0ZM251.4,225.6c.1-.4.3-.8.2-1.2h0c.1,0,.2,0,.3,0,0,.2,0,.3-.1.5,0,.4-.2.9-.3,1.3-.2-.1-.2-.5-.1-.7h0ZM252.2,227.6c.1.3,0,.7-.2,1h0c0-.4,0-.7.3-1ZM252.5,227.7c0-.3,0-.4.3-.6-.1.6-.2,1.1-.4,1.7,0,0-.2,0-.3,0,.2-.4.4-.7.3-1.2ZM251.8,217.6h0c0,0,.3,0,.2.2-.3,0-.7,0-1,.2.1-.3.4-.5.7-.4ZM250.8,229.3h-.1c0-.4,0-.7,0-1,0-.2.3-.5.1-.8.6.4,0,1.3,0,1.8ZM250.9,219.7c-.2,0-.5-.3-.6-.4.4,0,0-.8.5-.8,0,.2.4,1.1,0,1.2h0ZM250.4,233.4c0,.4-.3.9-.2,1.3-.2,0-.2-.2-.4-.2.2-.4.2-1,.5-1.4.2-.3.1.2.1.3ZM250,232.5c0-.2-.1-.8.2-.9,0,.2,0,1.1-.2.9h0ZM249.7,220.4c-.3-.2,0-.8.3-.8.2.2,0,1-.3.8h0ZM249.7,232.7c.5.3.1,1,0,1.5-.2-.1-.2-.4,0-.6.1-.3.2-.6.1-.9ZM249.9,242.4c0,.3-.2.6-.2.9-.5-.2-.2-1.4.3-1.4,0,.1,0,.3-.1.5h0ZM250.7,241.7c0,.2-.3,1.3-.5,1.2h0c.2-.4.2-.9.4-1.4.1-.4.3-.9.1-1.3.1,0,.3.2.4.3-.5,0-.4,1-.4,1.2h0ZM250.8,239.9c.1-.2.2-.5.2-.8.4.2,0,.7.2,1-.1,0-.2-.3-.4-.3ZM251.4,238.9h0c0,0-.2,0-.3,0,0-.1,0-.2,0-.4,0-.2,0-.4.1-.7,0-.1,0-.7.3-.5.5.3-.2,1.2-.2,1.6h0ZM251.9,237.1c0,0-.2-.1-.3-.2,0-.2,0-.7.1-.9.1-.1.2.3.2.4,0,.2-.1.5,0,.7ZM252.1,235.6c-.5,0-.2-1.3.2-1.4,0,0-.2,1.3-.2,1.4ZM252.6,233.8c-.7-.2-.2-1.2,0-1.7.2-.4.2-.9.3-1.4.2-.6.2-1.2.4-1.8.4,1.6-.8,3.1-.8,4.7,0,0,0,0,0,0h0ZM253,228.6h0c-.3.9-.4,1.8-.6,2.7-.7-.6.4-1.4,0-2.1.4,0,.4-.6.5-.9,0-.6.5-1.3.2-1.9.8.5,0,1.7-.2,2.2h0ZM253.6,226.3c-.9-.5.2-1.7.2-2.3,0-.1,0-.6.2-.6.1,0,0,.3.1.4,0,.6-.4,1.2-.5,1.9h.1c-.1.2-.2.4-.2.7h0ZM253.9,226.5c0-.2,0-.6.1-.7,0,0,.2.2.2.3,0,.1-.2.8-.3.4ZM254.3,222.9c-.2.2-.5,0-.7.2,0-.2,0-.6.3-.5.1,0,.2,0,.3,0,0,0,0-.2.2-.2,0,.2,0,.4,0,.6h0ZM254.4,221.8h-.1c.2-.7.2-1.4.5-2,0,0,.1-.4.2-.4.2,0,0,.5,0,.6,0,.3,0,1.9-.6,1.8h0ZM255.2,223.8c-.2-.2,0-.6,0-.8.1-.4,0-.8.2-1.2.6.3,0,1.6-.2,2h0ZM256.2,220c-.2.4-.2.7-.2,1.1,0,.1,0,.6-.3.5-.3-.2,0-.7,0-1,0-.3.2-.6.4-.9.1-.3,0-.6.2-.9,0,.4,0,.9-.1,1.2h0ZM251.8,203.2c-.4,1.5-.6,3-1.1,4.5-.2.7-.7,2,.2,2.4-1,.5-1.1,1.7-1.3,2.7-.3,1.6-.6,3.2-.9,4.7-.7,3.1-1.5,6.3-2.2,9.4-1.4,6.3-2.8,12.6-4.3,18.9-.7,3.1-1.4,6.3-2.1,9.4-.4,1.6-.7,3.1-1.1,4.7-.2.7-.3,1.4-.6,2.1-.1.3-.2.7-.2,1,0,.4,0,.8,0,1.3-.1.7-.4,1.3-.6,1.9-.2.8-.3,1.5-.5,2.3-.4,1.5-.6,3-1,4.5-.7,3.1-1.5,6.2-2.2,9.3-1.4,6.3-2.8,12.6-4.2,18.8-1.5,6.3-3,12.5-4.4,18.8-.7,3.1-1.4,6.2-2.1,9.4-.3,1.6-.7,3.1-1,4.7-.3,1.5-.8,3-.9,4.5,0,.4-.1,2-.8,1.2-.3-.3-.1-.9,0-1.3.2-.7.3-1.5.5-2.2,0-.3.2-.6.3-.9,0-.3,0-.7,0-1,0-.8.3-1.5.5-2.3.4-1.5.7-3,1-4.5.5-3.1,1.5-6,2.1-9,.2-.7.3-1.5.5-2.2.2-.8.2-1.5.5-2.3,0-.3.3-.5.2-.8,0-.2-.2,0-.3,0-.4.5-.3,1.2-.4,1.7-.3-.2-.2-.5,0-.8.1-.5.2-.9.3-1.4.2-1,.4-1.9.7-2.9.4-1.5.7-3,1-4.6.5-1.4.7-2.9,1.1-4.4.7-3.1,1.4-6.3,2.1-9.4.3-1.6.7-3.1,1.1-4.7.4-1.5.5-3.1,1-4.6.2-.7.5-1.4.6-2.1.1-.8.2-1.5.5-2.2.4-1.4.6-2.9,1-4.4,1.4-6.3,3-12.5,4.4-18.8.7-3.1,1.3-6.3,2.1-9.4.8-3.1,1.5-6.3,2.3-9.4.8-3.7,1.7-7.4,2.4-11.1.2-.9.4-1.8.6-2.6.2-.9.5-1.7.7-2.5s.4-1.8.6-2.7c0-.4.3-.7.3-1.1,0-.2,0-.6.4-.6-.6,3.1-1.3,6.3-2,9.4-.7,3.1-1.3,6.2-2.1,9.2,0,.1-.2.8.1.7.3-.2.3-.8.3-1.1.1-1.5.6-3,1-4.5.7-3.1,1.5-6.2,2.1-9.4.3-1.4.4-2.9.9-4.2.5-1.4.8-2.8,1.1-4.2.7-3.1,1.5-6.2,2.2-9.4,1.4-6.3,3-12.5,4.4-18.7.2-1.1.4-2.2.7-3.3.3-1.1.6-2.2.9-3.3.3-1.1.4-2.2.7-3.3.3-1,.8-2.1.8-3.2,0-.3,0-.4,0-.6,0-.2.2-.4.2-.7.2-.5.3-1,.4-1.5,0-.4,0-.6.2-1,.2-.4.3-.9.3-1.4,0-.5,0-1,.3-1.4.3-.4.3-1,.1-1.4,1.3.3.3,2.1,0,2.8,0,.2-.5,1.7-.1,1.7-.3.5-.4,1.1-.5,1.6-.2.8-.3,1.5-.5,2.3-.3,1.5-.8,3.1-1.1,4.6-.8,3.1-1.4,6.3-2.1,9.4-1.4,6.2-3.1,12.4-4.6,18.6h0ZM258.1,194.2c.3,0,.4.4.6.5.3.1,0,.5,0,.7,0,.1-.1.6-.4.4-.2-.2,0-.6,0-.8,0,0-.5.5-.4.6-.2-.4.3-.8.2-1.3ZM259.7,195.7c-.1.2-.2.4-.2.6h0c-.1,0-.1-.2-.3,0,0-.2,0-.8.4-.7,0,0,0,.3.1.2ZM259.3,191.1c-1-.5-.2-1.7,0,0ZM258.1,200.9c.6-.5-.2.8,0,1.4-.7-.2,0-1,0-1.4ZM259.8,214.1c-1.7.7-2.7-.3,0,0ZM259.8,196.7h0c0-.2,0-.4.2-.7.3.2.2.5,0,.7-.2.4-.3.2-.2,0ZM259.6,194.8c0-.2,0-.5,0-.7,0-.2-.2-.4-.2-.7.2,0,.3.2.4.1.1,0,.2,0,.3,0,.2.4-.1.9-.4,1.2ZM257.7,210.6c.3-2.3,0,1,0,0ZM257.2,213.4c-.7-.4.2-1,0-1.6.6-.4-.1,1.1,0,1.6h0ZM256.7,208.4c-.7-.2,0-1,0-1.4.6-.5-.2.8,0,1.4ZM256.7,215.2c0,.4-.3-.2-.2-.5,0-.4.3.2.2.5ZM256.9,185.3c0-.2.2,0,.2,0,0,.2,0,.4-.1.5,0,0-.1.2-.2.1-.1-.2,0-.6.1-.7h0ZM257.2,206.3c-.7-.3.3-.8,0-1.4.6-.5,0,1,0,1.4ZM256.7,222.5c0-.3,0-.8-.3-.9,0-.4,0-.8,0-1.2.3.7.8,1.7.4,2.4-.1.3-.2-.2-.2-.3h0ZM257,223.5c.2,1.1.5,2.1.4,3.2-.1,0-.7-3.2-.4-3.2ZM257.5,227.2c.1,0,.4.9,0,.9-.2-.3-.1-.6,0-.9h0ZM257.8,230.2c0-.2-.3-1.6,0-1.6,0,.2.4,1.6,0,1.6ZM258,231.6c-.2-.3-.1-.6,0-.9.2,0,.4.9,0,.9h0ZM258.3,233.5c-.2-.4-.2-.9-.1-1.4.2,0,.4,1.3.1,1.4h0ZM258.6,235.5c-.2-.4-.2-.8-.2-1.2,0-.1,0-.4,0-.5.1.6.3,1.1.1,1.7ZM259.3,240.2c-.4-.9-.2-2-.5-3,0,0,.1,0,0,0,.3,1,.6,2,.4,3.1ZM259.4,241.3c.3.6.4,1.4.3,2.1-.3,0-.4-1.8-.3-2.1h0ZM259.8,244.1s.2,1,.2,1.1c-.3,0-.4-1-.2-1.1h0ZM260.1,245.7c0,.2.3,1.1,0,1.1,0-.2-.2-1.1,0-1.1h0ZM260.3,248.3c-.1-.3-.2-.6-.1-.9,0,0,0-.4.2-.2.1.2.4,1.1,0,1.1h0ZM260.5,249c.2,0,.4,1,.1,1.2-.2-.3-.1-.8-.1-1.2h0ZM260.8,250.4c0,.2.6,2.7.3,2.8-.2,0-.6-2.7-.3-2.8ZM261.3,253.7c.1.7.2,1.3.3,2,0,.3.4.9,0,1-.1-.4-.9-2.9-.3-3ZM261.7,258c0-.3-.3-.9,0-1.1.1.7.2,1.3.3,2,0,.3.3.9,0,1.1-.2-.6-.3-1.3-.4-1.9ZM262.2,261.5c-.1-.3-.3-1.1,0-1.3,0,.3.2.7.1,1.1,0,0-.1.5-.2.3h0ZM262.5,261.9c0,.2.3,1.3,0,1.4-.2,0-.2-1.3,0-1.4ZM269,313.2h0c0-.1,0-.1,0,0-1.6-12.9-3.4-25.7-5-38.6-.3-2.5-.5-5.1-1-7.6,0-.4-.9-3-.3-3.1,1.9,12.8,3.6,25.6,5.2,38.5.5,3.7.9,7.3,1.4,11,0,0-.2-.2-.2,0h0ZM270.3,313.6c0,.1-.6-.3-.7-.3-.2-.2-.1-.5-.1-.8,0-.4-.1-.9-.2-1.3-.2-1.6-.4-3.2-.6-4.7-.4-3.2-.8-6.4-1.2-9.7-.8-6.4-1.7-12.8-2.5-19.2-.4-3.2-.9-6.4-1.3-9.6-.2-1.6-.6-3.1-.6-4.7,0-1.6-.4-3.1-.6-4.7-.2-1.6-.5-3.1-.7-4.7-.1-.8-.2-1.5-.3-2.3-.1-.8-.1-1.6-.3-2.4-.2-.7-.1-1.4-.2-2.1-.1-.8-.2-1.6-.3-2.4,0-.7-.3-1.3-.3-2,0-.7-.2-1.4-.4-2.1-.1-.6,0-1.2,0-1.9,0-.7-.3-1.4-.5-2.1.4,0,0-.8-.3-.8.4-.6.1-1.4,0-2.1-.2-.8-.3-1.6-.3-2.4s-.1-.6-.2-.9c-.1-.4,0-.7,0-1.1,0-.8-.3-1.6-.4-2.4,0-.4,0-.7,0-1.1,0-.4,0-.9-.2-1.3-.2-.8-.3-1.6-.3-2.4,0-.8-.3-1.5-.5-2.3,0-.4,0-.8,0-1.3,0-.3,0-.7.3-.9,1.9,12.8,3.6,25.7,5.4,38.5.9,6.4,1.9,12.8,2.7,19.2.8,6.4,1.6,12.8,2.4,19.1.2,1.7.4,3.5.6,5.2.2,1.8.5,3.5.6,5.3,0,.5-.2,1.8.3,2.1.3.2.5,0,.5.4,0,.3,0,.7.1,1.1.2,1.6.7,3.2.4,4.8h0ZM260.5,217.1c-.5,0,0-.7,0-.9h.1c-.2.1,0,.8,0,1h0ZM261.5,225.3c-.2-.1-.2-.9,0-.9,0,.2.3.9,0,.9h0ZM261.9,226.7c0,.2-.2.2-.3,0,0-.2,0-.5,0-.7.3,0,.3.5.2.7h0ZM261.2,219c0,0,0-.1,0-.2.3.3.1.8.2,1.1-.4,0-.2-.7-.2-.9h0ZM261.1,221.7s-.5-.9,0-.9c0,.2,0,.8,0,.9h0ZM261.2,218c-.3,0-.4-.8-.1-.9,0,0,0,.1,0,.2,0,.2.2.5.1.8ZM264.5,247.5c0-.4,0-.8-.2-1.2.1,0,.2,0,.3,0,0,.3.2.9-.1,1.1ZM264.8,252.5c0-.3,0-.7-.2-1,.4,0,.6.9.2,1h0ZM264.4,251.8c0,.3,0,.7.2,1-.4,0-.6-1-.2-1h0ZM264.2,246.6c.1.4,0,.8.2,1.2-.4,0-.6-1.1-.2-1.2h0ZM265.4,255.5c-.1.5-.4.2-.2-.7.2-.7.3.5.2.7h0ZM265.6,257.2c0,.4-.3-.2-.2-.5,0-.4.3.2.2.5ZM266,253c.1.3.1.6.2,1-.4,0-.4-.8-.2-1h0ZM267,273.1c-.2-2.3,1,1,0,0ZM267.3,269.8c.2-.7.3.5.2.7-.1.5-.4.2-.2-.7h0ZM267,278.5c0,.4-.3-.2-.2-.5,0-.4.3.2.2.5ZM270.2,277.2c-.3.3-.2.7-.3,1.1-.2,0-.2-.8-.2-.9,0-.3-.2-.5-.2-.8-.1-.4,0-.8-.1-1.2-.1-.8-.3-1.5-.4-2.3,0-.7,0-1.4-.4-2,.5,0-.6-5-.6-5.3,0-.3,0-.7,0-.9,0-.4-.1-.9-.2-1.3,0-.4-.1-.7-.2-1.1,0-.3-.2-.8,0-1.2.1-.5.8-.2,1.2-.2.8.2,1.7.2,2.6.1-.4,5.3-.8,10.6-1.4,15.9,0,0,.1,0,.2,0h0ZM268.6,285.1c0-.2,0-.8.3-.7-.1.4,0,.8.2,1.2-.1,0-.2,0-.3.1-.2,0-.2-.5-.2-.6h0ZM268.6,272.4c-.3,0-.3-.8-.1-.9.1.3.1.6.1.9ZM268.8,273.2c.1.4.2.9.1,1.3-.3,0-.3-1-.1-1.3ZM269,275.2c.1.2.2.6.2.9-.3.1-.4-.7-.2-.9ZM269.1,288.3c0-.4.3.1.2.5,0,.4-.3-.1-.2-.5ZM269.3,285.3c0-.3,0-.6,0-.8,0-.1.2-.1.2,0,0,.2.3.8-.1.9h0ZM269.4,279.6c0-.5-.2-1,0-1.4.3.4.2.9.2,1.3-.2,0,0,.5.2.5-.2.3-.4-.1-.4-.3ZM269.7,284.4s.2.4.2.4c0,.1,0,.3,0,.4,0,0-.2.1-.2,0,0-.3,0-.5,0-.8h0ZM269.6,299.4c0-.4.3.2.2.5,0,.4-.3-.1-.2-.5ZM269.8,293.7c.2-.7.3.5.2.7-.1.5-.4.2-.2-.7ZM267.9,266.1c0,.3,0,.6.1,1-.5.2-.5-1-.1-1h0ZM270.4,279.2c0-.5,0-1.1,0-1.6.3.2.3,1.4,0,1.6h0ZM271,290.2c0,.4-.3-.2-.2-.5,0-.4.3.2.2.5ZM271.4,294c-.3,0-.3-.4-.2-.6,0-.3.3-.5.3,0,.2.2,0,.5,0,.7h0ZM272.7,263c.8.6-1.2.6,0,0ZM272.9,244.8c-.1.8-.2,1.6-.2,2.4-.1,1.6-.3,3.2-.4,4.7-.1,1.7-.3,3.3-.4,5-1.5-.3-3-.4-4.6-.4-.7,0-.6-.5-.6-1,0-.7-.2-1.4-.4-2.1-.3-1.4-.3-2.9-.5-4.3-.2-1.6-.5-3.1-.7-4.7-.5-3.2-.8-6.4-1.2-9.5-.5-3.2-1-6.3-1.4-9.5,0-.7-.1-1.5-.2-2.2,0-.8-.3-1.5-.4-2.3,0-.3,0-.6,0-.9-.1-.2-.2-.5-.2-.7,0-.8-.3-1.6-.3-2.3,2.7,5.7,5.3,11.6,7.8,17.4.6,1.5,1.3,2.9,2,4.4.3.7.6,1.4,1,2.1.3.6.7,1.2.9,1.9.2.7,0,1.4-.1,2.1h0ZM273.6,255.1c0,.4-.3-.1-.2-.5,0-.4.3.2.2.5ZM274.7,261.8c-.3-.2-.4-.9-.1-1.2.1-.1.2.6.2.7h0c0,.1,0,.3-.1.4h0ZM275,237.5c0,.4-.3-.2-.2-.5,0-.4.3.2.2.5ZM275.2,235.4c-.1.5-.4.2-.2-.7.2-.7.3.5.2.7ZM273.8,235.4c-3.4-6.5-6-13.3-9.1-19.9-.9,1-2.2-.3-3.3.2-.3.1-.4.3-.5.6,0,.1,0,.5-.1.5-.2,0,0-.8-.2-.8-.1-.2-.5,0-.7,0,.2-.3-.4-.3-.5-.3-.6,0-1.2,0-1.8,0,5.9-.5,11.9-.3,17.8-.5-.6,6.7-1.2,13.4-1.6,20.2ZM277.6,259.3h-.5v-.5h.5v.5ZM275.7,257.2c0-2.3.5-4.5.5-6.8,1.6,2.1,2.4,4.6,3.3,7-1.3,0-2.5-.4-3.7-.2ZM276.4,208.2c.2.4.3.8.3,1.3,0,0,0,.6.2.4,0,0,0,.1,0,.2,0,0,0,0,0-.1h-.2c0-.5-.3-1.1-.2-1.8ZM283.7,257.4c-.8-.7-1.2-1.8-1.6-2.8-1.1-2.6-2-5.3-3.2-7.8s-1.4-2.3-1.8-3.5c-.4-1.4,0-2.8.2-4.2.5-2.9.6-5.9.8-8.9.1-1.5.2-3,.3-4.6,0-.7.1-1.4.1-2.2,0-.4,0-1,.5-1.2,0,.3,0,.7.1,1,0,.3,0,.6.1.9.4.7.4,1.4.5,2.1.2.7.4,1.4.6,2.1.2.8.2,1.6.5,2.4.2.7.5,1.3.6,2,.2.7.1,1.4.3,2.2.1.7.3,1.3.6,1.9.3.6.3,1.3.5,2,.2.6.2,1.3.3,2,.1.8.3,1.5.5,2.3.4,1.5.8,3,1.1,4.6.7,3.1,1.4,6.2,2,9.4,0,.2,0,.5.1.7-.2-.1-.5,0-.7.2-.3.1-.6.2-.9.1-.6,0-1.1-.2-1.5-.6h0ZM279.9,223.9s-.1,0,0,0c0,.1-.1,0-.1,0,0,.1,0-.2,0-.2,0-.2-.2-.5,0-.6,0,.3.2.7.1,1h0ZM281.2,230c.3-.2-.7-1.5-.3-1.8.1-.1.3.5.3.6.1.3.4,1,0,1.2h0ZM281.4,230.3c0,.2.3.9,0,.9-.1-.2-.2-.8,0-.9ZM280.7,227.7c-.3-.8-.6-1.7-.5-2.6.2.2,1,2.5.5,2.6ZM287.7,259.6c0-.4-.1-.8-.2-1.2-.2-.9-.4-1.8-.6-2.7-.2-.9-.4-1.8-.6-2.7,0-.4-.1-.8-.2-1.1,0-.2-.2-.7,0-.8.4,1.8.8,3.6,1.2,5.4.2.8.3,1.6.6,2.4.1.5.5,1.3,0,1.6.1-.3,0-.6-.1-.9h0ZM287.1,260c-1.2.1-1.2-.4,0-.3,0,0,0,.2,0,.3h0ZM285.8,262.6c.7,0,1.5-.3,2.1.2.7,3,1.6,5.9,1.9,9-1.5-3-2.8-6.1-4-9.2h0ZM290.4,272.4h-.1c-.2-2.3-.7-4.5-1.3-6.8-.1-.5-.3-1.1-.4-1.6-.1-.5-.3-1-.3-1.5,0-.5-.6-1.5,0-1.8.8,4.2,2,8.4,2.6,12.6-.4-.2,0-.7-.4-.9h0ZM292.3,281.2c.2-.4,0-.8-.2-1.2-.1-.5-.2-1.1-.4-1.6-.3-1.1-.5-2.1-.6-3.2h0c.4,1.1.6,2.2.8,3.3,0,.5.2,1,.3,1.5.1.3.3.9,0,1.1h0ZM292.5,282.6h0c0-.4-.2-1.1,0-1.3.1.4.3,1-.1,1.3h0ZM292.9,283.9c0-.3-.4-.9,0-1.2.2.6.3,1.3.4,1.9,0,0,0,.5,0,.7-.3-.4-.4-1-.5-1.5ZM294.4,290.4c-.1-.5-.3-1.1-.5-1.5.9-.2-.8-1.7,0-1.9.4,1.4.8,2.8.9,4.2-.3,0-.3-.5-.3-.8h0ZM295.3,294.6h0c.5,0,.4.8.5,1.2-.6,0-.5-.8-.6-1.2ZM296.6,300.8c-.1-.5-.3-1-.4-1.5-.2-1.1-.4-2.1-.6-3.2.3,0,.3.4.4.6,0,.5.2,1.1.3,1.6.3,1.1.6,2.2.7,3.4-.3-.2-.3-.6-.4-1h0ZM298.6,308.9c-.1-.3-.2-.6-.2-.9,0,0,.1,0,.2,0,0,.3.3.7,0,.9ZM301.1,320.7c0-.3-.3-.7,0-1,.2.3.2.7.3,1.1,0,0-.2,0-.2,0h0ZM301.7,320.5c-.3-1.5-.7-3-1-4.5-.3-1.6-.7-3.1-1.1-4.7-.2-.7-.4-1.4-.6-2.1-.2-.8-.3-1.5-.4-2.3-.4-1.5-.6-3-1-4.5-.4-1.5-.6-3-1-4.6-.3-1.5-.7-3.1-1.1-4.6-.3-1.5-.6-3.1-1-4.6-.1-.6-.2-1.3-.5-1.9,0,0,0-.3,0-.4,0-.3-.1-.7-.2-1-.4-1.7-.6-3.4-1.1-5-.5-1.8-.6-3.7-1.3-5.4.3.1.1-.5.1-.6-.1-.6-.5-1.1-.6-1.7-.2-1.5-.5-2.9-.8-4.4-.6-3-1.3-6.1-1.9-9.1-.6-2.9-1.4-5.8-2-8.7-.1-.7-.2-1.4-.3-2,0-.2-.2-.8-.4-.3-.1.6.1,1.2.3,1.7.1.3.4.9,0,1.1-.4-1.2-.7-2.4-.9-3.6-.1-.5-.3-1,0-1.4.3-.4.2-1,0-1.5-.1-.5-.2-1-.4-1.4,0,0-.4-1-.5-.7-.2,1.1,1,2.3.7,3.4,0-.2-.2-.4-.2-.6-.1-.3-.2-.7-.3-1-.2-.7-.4-1.4-.5-2.2-.1-.7-.2-1.3-.4-2-.1-.4-.5-1-.1-1.3.3.5,0,1.2.4,1.7,0,0,.3.4.4.2,0-.2,0-.4-.1-.6-.3-.5-.3-1.2-.5-1.8-.3-.7-.2-1.4-.4-2.1-.1-.7-.3-1.4-.5-2,0-.1-.3-.8-.4-.4-.2.5.2,1.1.4,1.6.3.7.4,1.4.3,2.1-.7-1.6-.9-3.3-1.1-5,.5.2.3-.4.2-.6-.2-.5,0-1-.2-1.5-.1-1.1-.7-2.2-.8-3.3,0-.5,0-1.1-.3-1.5-.2-.5-.3-.9-.4-1.5,0-.5-.2-1-.4-1.5-.2-.5-.2-1.1-.3-1.6,0-1.2-.5-2.3-.8-3.5-.1-.5-.2-1-.4-1.5,0-.2-.5-.8-.4-.2,0,.5.3,1,.4,1.5.2.6.3,1.2.5,1.8.1.6.2,1.2.3,1.8,0,.3.3.8,0,1.1.3-.4-.5-2-.6-2.4-.5-1.8-.8-3.7-1.2-5.6-.2-.9-.4-1.8-.6-2.7,0-.4,0-.7.2-1,.2-.3,0-.7,0-1-.3-.9-.6-1.8-.6-2.7,0-.9-.3-1.8-.7-2.6.5,0-.1-1,0-1.2-.2.2-.3-.6-.3-.7,0-.5-.1-1-.2-1.5-.3-1.4-.6-2.8-.9-4.3-.5-3-1.3-6-1.9-9-.6-3-1.4-6-2-9-.3-1.5-.6-3-.9-4.5-.2-.7-.4-1.5-.5-2.2,0-.3-.1-.6-.2-.9,0,0-.2-.4,0-.4-.4-.7-.4-1.6,0-2.3.9.7.8,1.9,1,2.9.3,1.5.7,3,1,4.6.7,3.1,1.4,6.3,2.1,9.4,1.4,6.3,2.8,12.7,4.1,19,2.7,12.7,5.4,25.4,8.2,38,1.4,6.3,2.8,12.6,4.2,18.9.4,1.6.7,3.1,1.1,4.7.4,1.5.8,3,1,4.5.4,3.1,1.2,6.2,1.9,9.2,2.7,12.7,5.6,25.3,8.3,37.9.4,2.1.9,4.1,1.3,6.2-1.3-.1-.5-2.1-1.1-2.8h0Z"></path>
    <path class="st1" d="M227.3,214.8v.7c-.8,1,.9-.3,0-.7Z"></path>
    <path class="st1" d="M209.9,269.4c0-.4.5-1.7,0-1.2.1.4-.7,1,0,1.2Z"></path>
    <path class="st1" d="M222.8,277.3c-1.6-.3,2.4.5,0,0Z"></path>
    <path class="st1" d="M210.6,291.6c.2-.2.7-1.8.2-1.2,0,.3-.7,1.2-.2,1.2Z"></path>
    <path class="st1" d="M243.5,236.2c-.1.3-1,2.3-.5,2.5.4.1.4-.9.5-1.1,0-.4.3-.8.3-1.2s-.1-.7-.3-.2Z"></path>
    <path class="st1" d="M242.8,240.1c-.2,0-.3.4-.3.5-.2.4-1.4,3.7-.7,3.8.5,0,.5-1.5.5-1.8,0-.7.4-1.3.6-2,0,0,0-.4,0-.4h0Z"></path>
    <path class="st1" d="M241.2,247.1c-.2,0-.4.6-.2.5.1,0,.4-.5.2-.5Z"></path>
    <path class="st1" d="M207.9,275.5c0-.2-.3-.5-.3-.1,0,.1,0,.3,0,.4,0,0-.2.2-.2.3.2.3.5-.5.5-.6h0Z"></path>
    <path class="st1" d="M217.8,276.4c.3,0,.5,0,.8,0,.2.2.4,0,.2-.2-.2-.2-.5-.1-.7-.1,0,0-.3,0-.3,0,0,0,0,.2.1.2h0Z"></path>
    <path class="st1" d="M206.8,279.1c.3-.2.3-.7.4-1.1,0,0,0-.7-.2-.5-.2.1-.1.3-.1.5,0,.3-.2.6-.3.9h0c0,0-.2,0-.3.1,0,.2.3.1.4,0Z"></path>
    <path class="st1" d="M233.7,278c0,.5-.1,1.1-.3,1.6,0,.2-.4,1.3,0,1.3.5,0,.3-1.2.4-1.5,0-.6.4-1.2.2-1.8,0-.3-.3.4-.3.4Z"></path>
    <path class="st1" d="M226,278.3c.3,0,.6.2.9.2.2,0,0-.4-.1-.4-.2-.1-.5,0-.7,0-.2,0-.3.3-.1.3Z"></path>
    <path class="st1" d="M227.1,308c-.3,0-.5,1-.2,1,.3,0,.6-1,.2-1Z"></path>
    <path class="st1" d="M200.6,298.8c.3-1.1.7-2.2,1-3.3.2-.5.3-1,.5-1.6,0-.2.2-.3.2-.5,0,0-.1-.4-.3-.3-.1.1-.1.5-.2.6,0,.3-.2.6-.3.9-.2.5-.3,1.1-.5,1.6-.2.5-.3,1.1-.5,1.6,0,.2-.2.5-.2.7,0,.1.2.4.3.2Z"></path>
    <path class="st1" d="M202.9,291.5c.4-1.8,1.1-3.5,1.6-5.2.3-.8.5-1.7.8-2.5.1-.4.2-.9.3-1.3,0-.1.2-.4,0-.5,0,0-.2,0-.3,0-.4,1.8-1,3.5-1.5,5.2-.3.8-.6,1.7-.8,2.5-.1.4-.3.8-.4,1.3,0,.1-.2.3,0,.5,0,0,.2,0,.3,0h0Z"></path>
    <path class="st1" d="M208.6,273.9c0-.8.3-1.5.6-2.2.1-.4.3-.8.3-1.2,0-.1,0-.3,0-.4,0-.1-.3,0-.3,0,0,.8-.4,1.5-.6,2.2-.1.4-.2.8-.3,1.2,0,.1,0,.3,0,.4,0,.1.3,0,.3,0Z"></path>
    <path class="st1" d="M211.1,265.5c0-.4.3-.8.2-1.2,0-.1-.2-.2-.3,0-.1.2,0,.4,0,.6,0,.3-.3.7-.2,1,.2.3.3,0,.3-.2h0Z"></path>
    <path class="st1" d="M223.3,228.2c0-.4.2-.9.3-1.3,0-.1.2-.4,0-.5-.1,0-.3.1-.3.2-.2.3-.3.7-.4,1.1,0,.2-.1.4,0,.5s.3.2.3,0Z"></path>
    <path class="st1" d="M199.2,303.3c.3-.9.9-2,.9-3,0-.3-.1-.4-.3-.1,0,.2-.2.4-.2.6-.3,1.1-.6,2.1-1,3.1-.7,2.2-1.5,4.4-2.1,6.6h0c0,.2,0,0-.1,0,0,0-.2.2,0,.3.2,0,.3,0,.4-.2.2-.3.2-.7.3-1.1.3-1,.6-2.1,1-3.1.4-1.1.7-2.1,1.1-3.2h0Z"></path>
    <path class="st1" d="M233,282.3c-.2,0-.3.6-.4.8,0,.3-.1.7-.2,1-.1.5-1.4,5.9-1.1,5.9.4,0,.4-1.2.4-1.4,0-1.2.5-2.3.8-3.5.1-.5.3-1.1.4-1.6,0,0,.2-1.3,0-1.2Z"></path>
    <path class="st1" d="M240.1,250.8c-.6,3.1-1.4,6.2-2.1,9.3-.7,3.1-1.3,6.2-2.1,9.3-.3,1.2-.6,2.5-1,3.7,0,.2-.7,1.9-.3,2,.4.1,3.3-12.7,3.5-14,.7-3,1.3-5.9,2-8.9.2-.6.3-1.3.5-1.9,0-.2.4-.8.2-1-.4-.3-.7,1.4-.7,1.6Z"></path>
    <path class="st1" d="M212.8,284.9c.4,0,.4-.8.4-1,0-.8.3-1.5.6-2.3.3-.9.7-1.8.9-2.7,0-.3.2-.6.1-.9-.1-.4-.3,0-.4.2-.3.8-.3,1.7-.6,2.6-.2.6-.4,1.2-.7,1.8,0,.3-.8,2.3-.4,2.4Z"></path>
    <path class="st1" d="M230.9,291.4c-.3,0-.3.8,0,.8s.3-.8,0-.8h0Z"></path>
  </g>
  <path d="M231.6,260.2c.3,1.2.3,2.5.3,3.7,0,1.2-.1,2.5-.3,3.9,0,1.5,0,3-.1,4.6,0,1.5,0,3.1,0,4.5v4.1c0,1.4-.1,2.7-.4,4.1-.1,1.2-.4,2.5-.8,3.7-.4,1.2-1,2.5-1.6,3.7-.5,1.5-1.2,2.8-2.1,3.9-.9,1.1-1.9,2.2-2.9,3.3-.9.9-1.8,1.6-2.8,2.1-1,.6-2,1.1-3,1.8-1.6,1-3.3,1.7-5,2.1-1.7.4-3.5,1-5.2,1.6h-.4c-2.4.1-4.8.2-7.2.2s-4.8-.2-7.1-.7c-2-.4-3.9-1-5.9-1.8-1.9-.8-3.7-1.8-5.5-3.1-3.2-2.4-5.9-5.5-8-9.3-1.9-4-2.8-8-2.8-12.3s0-2.5,0-3.7c0-1.2,0-2.5-.3-3.7-.1-1-.1-2,0-3.1.1-1.1.2-2,.2-2.9-.1-1.6,0-3.2,0-4.7.2-1.6.1-3.1-.3-4.8-.3-.3-.3-.6,0-.9.3-1.4.3-2.8,0-4.2-.2-1.4-.2-2.8,0-4,.3-1.9.3-3.7,0-5.6-.2-1.9-.2-3.7,0-5.6.1-1.4.2-2.6,0-3.8,0-1.2,0-2.4,0-3.6-.1-1.5-.1-2.9,0-4.4.1-1.4.2-2.8.2-4.2s0-1.2-.1-1.7c0-.5,0-1,0-1.5.1-1.1.1-2.2,0-3.3-.1-1.1,0-2.1.2-3.3,0-.3,0-.6,0-.9,0-.4,0-.7,0-.9-.1-1.4-.2-2.8-.1-4.2,0-1.4,0-2.8,0-4,0-3.6.7-7.3,2-11.1.9-2,1.9-3.8,3.1-5.4,1.2-1.6,2.6-3.2,4.2-4.6,1.4-1.4,2.9-2.5,4.6-3.4,1.7-.9,3.5-1.6,5.2-2.1,1-.3,2-.5,2.9-.7.9-.3,1.8-.4,2.7-.4,1.5.3,2.7,0,3.7-.8h1.1c.3.5.5.6.8.4,1.1-.1,2.2,0,3.3.2,1.1.3,2.1.3,3.1.2.6,0,1.3.1,2,.4.7.2,1.3.4,1.8.5,1.6.3,3.1.7,4.6,1.4,1.4.7,2.8,1.4,4,2.1,1.1.6,2.2,1.3,3.1,2.1,1,.8,1.9,1.8,2.6,2.9.9,1.1,1.7,2.2,2.3,3.4.7,1.1,1.3,2.3,2,3.5.5.9.8,1.7,1,2.6.2.9.4,1.8.5,2.8.3,1.5.4,2.9.4,4.4s0,2.9.2,4.4v17c0,1.5,0,3.1-.2,4.7,0,.4,0,.8.2,1.2.1.4.1.8,0,1.2-.3.4-.6.4-1,.2-.4-.3-.8-.3-1.2-.2-1.7.4-3.5.4-5.2,0h-1.5c-1.7.1-3.5.2-5.3.1-1.8,0-3.6-.1-5.3-.1s-1,0-1.5.1c-.5,0-1,.1-1.5.3-.9,0-1.2-.4-1.1-1.3.2-2,.3-3.9.2-5.9-.1-2-.1-4,0-6,0-2.1,0-4.3-.1-6.5,0-2.2,0-4.4.1-6.5,0-1-.1-2-.4-2.9-.3-.9-.7-1.8-1.3-2.7-.7-1-1.8-1.7-3.3-2-2.2-.5-4.3-.1-6.3,1.1-.9.5-1.5,1.2-1.9,2.1-.4.9-.6,1.9-.6,2.9-.1,3.3-.2,6.7-.2,10v9.8c.1,2.5.2,5,0,7.5,0,2.5,0,4.9,0,7.4v44.1c0,2,.7,3.6,2,4.8,1.3,1.2,3.1,1.8,5.5,1.7,2,0,3.6-.6,4.8-1.9,1.2-1.3,1.8-2.9,1.8-4.8-.1-4.3-.2-8.7-.1-13.1,0-4.4.1-8.7.1-12.9s0-1-.1-1.5c0-.5,0-.9.1-1.3.2-.4.6-.5,1.1-.3.5.2.9.3,1.3.3h19.9c.9,0,1.3.4,1.1,1.1-.1,2.7-.1,5.5,0,8.4ZM192.2,179.4c-.1.1-.2.3-.2.4,0,.3.1.4.4.4s.2-.1.2-.4-.1-.4-.4-.4ZM195.9,182.7c-.1.1-.3.3-.5.4-.2.1-.4.3-.6.4,0,.3.2.4.6.4s.8-.3.8-.9c0,0,0,0-.1-.2,0-.1,0-.1,0,0ZM187.7,182.7c-.4,0-.6.2-.6.6l.2.4.6-.6c.3-.3.2-.4-.2-.4ZM195.2,184.9c-.3.5-.4.8-.6.8.1.3.3.3.5.3.2,0,.4-.1.5-.1.4-.3.6-.1.6.4.4.6.9.9,1.7.9h.8c.2-.1.5-.1.8,0,.3.1.6,0,.9-.4l-1.7-.5h-.6c-.9-.1-1.3-.3-1.4-.4,0-.1.1-.6.5-1.3.1-.1.2-.4.2-.7.5,0,.8-.1.8-.4-.3-.3-.5-.4-.8-.4-.1.1-.2.3-.1.4,0,.1.1.3.1.4-.3.2-.6.4-1,.5-.4,0-.8.3-1,.6ZM185.7,184.6c-.4,0-.5.1-.4.4,0,.1,0,.2.2.2s.3,0,.4.2c.4,0,.5-.1.4-.4,0-.3-.2-.4-.6-.4ZM192.5,184.8c-.4.1-.5.3-.5.5,0,.2,0,.4,0,.6,0,.4.1.5.4.5.5,0,.6-.3.4-.9,0-.5,0-.8-.2-.8ZM199.4,184.8c-.4,0-.6.2-.6.6h.4c.4,0,.6-.1.8-.4,0,0,0,0-.2,0-.1,0-.3-.1-.4-.1ZM187.7,186.6c-.1-.6-.4-.8-.8-.5-.4.2-.7.2-.9-.2-.3,0-.5,0-.7.3-.2.2-.2.3,0,.5,0,1,.3,1.4.9,1.1.2,0,.5,0,.9-.3.4-.2.6-.5.6-.9ZM203.7,186.3c-.4,0-.5,0-.5.2,0,.4.1.6.4.6s.3,0,.4-.2c0-.3,0-.4-.1-.5,0,0,0,0,0,0ZM184,187.9c-.6,0-.9.1-.9.4.1.4.4.9.9,1.7h.4c.3-.3.3-.5,0-.8-.2-.3-.4-.5-.4-.7v-.6c.2-.5.2-.9-.2-1.3-.1,0-.3,0-.4.2s0,.3,0,.5c.2.2.3.4.3.6h.2ZM208.2,186.8l-.4.4c0,.4.1.6.4.6s.4-.1.4-.4-.1-.3-.4-.6ZM189.8,188.5c-.3.2-.4.4-.4.4,0,.3.1.3.4.2h0c0-.2.1-.2.1-.4l-.2-.2ZM207,189.2l-.4.8c0,.4.1.4.4.2.1,0,.2-.2.2-.6.3-.3.2-.4-.2-.4ZM212.6,189.4c-.5,0-.7.1-.6.4.3.4.5.6.8.6.5,0,.6-.2.4-.6,0-.5-.2-.6-.5-.4ZM192.5,191.3c.3-.1.5-.3.8-.6.3-.3.4-.6.5-.9-.1-.1-.2-.2-.2-.3h0c-.5,0-.9,0-1.3,0s-.7.1-1.1.4c0,.1,0,.2-.1.3h0c.2.2.5.4.8.7.3.3.5.4.7.3ZM198.1,192.2c.5-.3.7-.4.7-.6s-.2-.2-.5-.2c-.6.3-1,.1-1.1-.4-.1-.1-.2-.3-.3-.5,0-.2-.2-.2-.5-.1-.1.3,0,.6.2,1.1.1.4.3.5.6.4s.4-.1.6,0c.1,0,.2,0,.3.1,0,0,.1,0,.1,0ZM187.2,192.6c.3-.3.4-.4.4-.6,0-.3-.1-.4-.4-.4-.3.3-.4.5-.4.8s.1.2.4.2ZM184,192c0,.4.2.7.7.9.4.3.7.3.9,0v-.2c-.3-.1-.5-.3-.7-.6-.2-.3-.4-.4-.6-.4-.1.1-.2.2-.3.2h0ZM218.6,192.8c-.3,0-.3,0-.2.2.1.4.6.6,1.3.6s.2-.1.2-.4c-.1-.4-.3-.5-.6-.5-.3,0-.5,0-.8,0ZM188.3,193.3c-.3,0-.4.3-.4.9s0,.3-.2.5c-.1.2,0,.2.4,0,.4,0,.6-.3.6-.9s-.1-.7-.4-.5ZM224.5,193.3c-.1-.1-.2,0-.2.2.1.1.2.3.2.5s0,.3.2.5c.1,0,.2,0,.2-.2-.1-.3-.2-.4-.1-.5,0-.1,0-.3-.3-.4ZM209.3,193.9v.6c0,.3.2.4.6.6.3,0,.4-.2.4-.6,0-.7-.2-1.1-.6-1.1s-.4.2-.4.5ZM184.9,193.9c0,.3.2.5.6.8.4,0,.6-.1.6-.4,0-.4-.2-.6-.6-.7-.4,0-.6.1-.6.4ZM191.4,194c.5.3.8.2.8-.2s-.2-.4-.6-.4c-.6,0-.9.2-.9.5h.7ZM215.2,193.7c-.1,0-.2,0-.3.1h0c.3.3.4.6.4.9s.1.5.4.6c.4.1.6-.1.6-.8.1-.4-.2-.7-.9-.9ZM222.5,194c-.3,0-.4.1-.4.4s.1.3.4.6c.2,0,.4-.1.4-.4,0-.4-.1-.6-.4-.6ZM183.8,194.8c0-.3-.1-.4-.4-.4-.1-.1-.2,0-.2.2-.1.4,0,.6.2.6s.4-.1.4-.4ZM212.4,194.8c-.4,0-.6.1-.6.4s.3.5.8.8c.3,0,.4-.1.4-.4,0-.5-.2-.8-.6-.8ZM222.7,195.7c-.8,0-1.1.2-1.1.5s.4.4,1.3.2c0-.3.1-.2.4.1.3.3.4.1.4-.5s-.3-.7-.9-.4ZM182.9,196.5c-.4,0-.6.1-.6.4.1.1.2.3.3.5,0,.2.2.2.5,0,.4,0,.6-.2.6-.6s-.3-.4-.8-.4ZM189.4,197.2c0-.3,0-.4-.2-.4-.7,0-1,.3-.9.8,0,.1,0,.3-.2.6-.1.3,0,.5.2.6,0,0,.2-.3.6-.9l.5-.8ZM191.4,198.5c.3,0,.4-.2.4-.5s-.2-.8-.7-.8c-.3.3-.4.4-.4.6.3.6.5.9.7.7ZM178.6,197.6c-.1.1,0,.3.2.5.3.2.4.4.4.6s0,.3,0,.5c0,.2,0,.4,0,.6,0,.9.3,1,.9.4-.3-.3-.3-.6-.2-.9s0-.7-.4-.9c-.1-.1-.3-.3-.5-.6-.2-.3-.4-.3-.6-.2ZM183.6,198.7c0,.1,0,.3-.2.4s-.1.3,0,.6c.5,0,.7-.3.7-.8.3-.3.2-.5-.2-.7-.4,0-.5.2-.4.5ZM221.4,199.3c-.1.1-.4.3-.9.5-.5.2-.3.5.6,1,.3.1.1.3-.4.5-.1.1-.4.3-.8.4-.4.1-.5.3-.4.6,0,1.1-.3,2.2-.9,3.2-.1.2,0,.5.3.6.3.2.5.3.7.3.5-.1.6-.3.3-.4-.3-.1-.4-.2-.3-.4.3-.3.4-.5.4-.8s.2-.4.5-.3c.5,0,.6.4.4,1.1,0,.2,0,.4.2.5l.4.4c.1,0,.2-.2.2-.6v-.5c0-.5,0-.9-.2-1.1-.1-.4-.3-.8-.4-1.2-.1-.4.3-.7,1.1-.8.1-.1.2-.3.2-.6-.3-.3-.3-.6-.3-.9,0-.4.1-.7.1-.9.1-.5,0-.8-.2-.8-.3,0-.4,0-.6.3ZM190.1,199.8c0-.4-.2-.6-.6-.8-.3,0-.4.2-.4.6s.1.4.4.6c.3,0,.4-.1.6-.4ZM181.6,200.6c0-.6-.3-.8-.9-.4.4.5.3,1-.2,1.5-.1,0-.2,0-.2.2s0,.2.2.2c.5,0,.8-.2.8-.6,0-.4.2-.7.3-.9ZM224,200.2c-.8,0-1.1.2-1.1.7.3.5.4.7.6.6.6-.3,1-.6,1.1-1.1.1-.1,0-.2-.6-.2ZM216.9,201.1c0-.2,0-.4-.2-.4s-.3,0-.4-.2c-.3,0-.4,0-.4.2l.6.5c.3.3.4.2.4-.2ZM187.7,200.9c-.1,0-.2,0-.2.1h0c0,.3,0,.5.2.5l.4-.4c0-.4-.1-.4-.4-.2ZM216,202.8c-.1,0-.2.2-.2.5-.4.4-.3.6.2.6.3-.1.3-.3.3-.4,0-.1,0-.2.1-.4,0-.4-.1-.5-.4-.4ZM181.9,203.7c-.2.1-.6,0-1.1-.2-.4,0-.4.1-.2.4.4.6.7.9.9.9.2-.1.4-.5.4-1.1ZM225.3,203.7c-.1,0-.2,0-.2.1h0c0,.3.1.5.4.5.3.1.4,0,.4-.2l-.6-.4ZM186,205.9c.1-.1.3-.4.5-.7-.1,0-.2,0-.2,0h0c-.1-.1-.2,0-.3,0,0,.1-.1.3-.3.4,0,.2,0,.4.2.4ZM184.2,208.2c.3.1.4,0,.4-.2,0-.4-.1-.6-.4-.7-.2,0-.4.1-.4.4.1.1.2.3.2.4s0,.2.2.2ZM217.7,208.2c.2-.5.1-.7-.4-.7s-.6.2-.6.5c0,1-.3,1.2-.9.6-.2-.3-.4-.2-.4.2-.1.5,0,1,.5,1.5.5.4,1,.3,1.5-.2.3-.3.3-.5.3-.6,0-.2,0-.4,0-.5v-.8ZM221.4,208.5c-.1.1,0,.3.2.6.4,0,.6-.2.6-.6s-.1-.4-.4-.4c-.3-.2-.4-.1-.4.4ZM178.2,208.5c-.3,0-.4.1-.4.4s.1.4.4.4.2,0,.3,0h.1c0-.5-.1-.7-.4-.7ZM182.5,208.7c-.4.1-.6.4-.6.9s0,.3.2.2c.5,0,.8-.3.8-.8s-.1-.4-.4-.4ZM190.5,213.9c.1-.3.3-.5.5-.8.2-.3.2-.5,0-.5-.5.1-.9,0-1.1-.4-.3-.4-.6-.6-1.1-.6,0-.8,0-1.2-.2-1.5l-.4-.8c0,.1-.1.3-.4.6-.4.6-.3,1,.4,1.3.1,0,.3.1.6.4,0,.9.4,1.7,1.1,2.4.3.4.5.3.8-.2ZM221.4,210.2c0-.4-.1-.5-.4-.5-.3,0-.5,0-.7-.1-.6-.4-.9-.3-.9.4s.2.5.5.5h.6c.6.3.9.1.9-.4ZM183.8,211.1c.1,0,.2-.2.2-.6s0-.5-.2-.5c-.3,0-.4.2-.4.5.1.1.2.3.2.4s0,.2.2.2ZM218.8,214.9c-.5.2-.8.5-.8.8,0,.3,0,.5.5.6.6.1,1.2.4,1.8.8.6.4,1.1.6,1.8.6,0,.1,0,.3-.1.4,0,.1,0,.3,0,.6-.1.1-.3.2-.5.2s-.2.1,0,.4c.3.3.7.4,1.3.4.2-.3.3-.4.3-.6,0-.1,0-.3,0-.4-.3-.5-.4-.8-.6-.9.1-.5,0-.8-.3-.8-.3,0-.6-.2-.8-.3-.1-.1-.3-.2-.5-.3-.2,0-.2-.2,0-.3.6-.6.9-1.3.8-2-.1-.7-.3-1.3-.4-1.9.4.1.7.3,1,.4.3.1.4.5.1,1.1-.1.4,0,.8,0,1.2.2.4.4.9.5,1.4,0,.1,0,.2.3.2s.3,0,.3-.2c.3-.4.4-.7.6-1.1l.4-1.1c.1-.3,0-.5-.1-.6-.2-.2-.4-.4-.6-.5-.3-.4-.3-.5-.1-.5s.4,0,.7-.2c.6,0,.6-.3,0-.8-.1-.3-.1-.4,0-.6.4,0,.6,0,.8-.2.5,0,.7-.1.5-.4,0-.1-.2-.2-.7-.2s-1,.2-1.4.5c-.4.3-1,.5-1.6.6-.5.3-.8.5-.8.8-.3.1-.5.3-.8.5-.2.2-.5.2-.9.1h-.6l.4.5c.4.5.6.8.6,1s-.3.4-.8.6ZM213.9,213.4c0-.5-.1-.6-.4-.5-.3.2-.5.3-.7.3-.1.1-.3,0-.4-.3-.1-.3-.3-.2-.4.3,0,.4.4.6,1.3.6.4.1.6,0,.6-.4ZM215.4,214.3c-.1.4,0,.6.5.6.4.1.6-.1.6-.8s-.1-.8-.4-.9c-.3,0-.4.1-.5.4,0,.3-.1.5-.3.8ZM187.7,215.6c.1-.3.3-.3.6,0,.3.2.4,0,.4-.3s-.1-.4-.4-.6c-.3-.2-.5-.2-.8-.1-.5,0-.8.3-.8.9s.3.2.9.2ZM224.3,215.4c0,.5,0,.8.2.9.1-.3.3-.5.4-.6.1-.2.2-.4.4-.6v-.2c0-.1,0-.2-.2-.2-.3-.1-.5.1-.8.7ZM180.5,216.4c0,.1.1.2.4.2s.5-.3.8-.8c-.3-.3-.4-.3-.4,0-.1.1-.3.2-.5.2s-.3.1-.3.4ZM213.7,218c.4-.4.4-.7.2-1.1-.1-.1-.2-.1-.2,0s0,.2-.2.2l-.5,1.5c.2-.1.5-.3.7-.6ZM215.4,217.5c-.4.7-.3,1.1.4,1.1,0-.5.3-.8.8-.9.5-.2.6-.4.2-.5-.6-.3-1.1-.1-1.3.4ZM177.7,217.3c-.4,0-.4.1-.2.4l.2.2c.3,0,.4-.1.4-.4,0,0,0,0-.1,0,0,0-.1-.1-.3-.1ZM187.5,219.3c.4-.3.4-.7.2-1.3,0-.3-.1-.4-.4-.5l-.2.2c0,.4,0,.7,0,1,0,.3-.1.5-.6.6-.2.3-.2.4,0,.4.4,0,.7-.1.9-.4ZM224.2,221.6c.1,0,.4-.3.7-.8.4-.6.5-.8.4-.8-.7-.1-1-.4-.9-.8.1-.4.1-.9,0-1.2-.3-.2-.4-.3-.6-.2-.1,0-.2.1-.2.4.4.9.4,1.8,0,2.8-.1.3,0,.5.6.8ZM181.2,219c0-.5-.1-.7-.4-.6-.3,0-.5,0-.8-.1-.5,0-.8.2-.8.6.3.3.5.3.8.3.3,0,.5,0,.7.3.3.3.4.1.4-.4ZM217.7,219c.1-.1,0-.3-.4-.6,0,.1,0,.2-.1.2h0c0,.4.1.6.4.6h0c0,0,.1,0,.1-.2ZM216.7,220.3c.3,0,.4,0,.4-.2s-.2-.4-.6-.7l-.6-.6v.8c.3.5.5.7.8.7ZM219.9,221.4c.3,0,.4-.2.4-.6-.1-.3-.2-.6-.2-.9s-.1-.6-.4-.8c-.5,0-.8.1-.8.4-.1.3,0,.5,0,.8.2.3.4.6.5.8,0,.1,0,.2.2.2h.2ZM178.2,221.4c-.1-.6,0-.9.3-.9s.5,0,.7-.2c.4,0,.5,0,.5-.2-.1-.1-.3-.3-.6-.4-.2-.2-.5-.3-.7-.3-.9.3-1.3.6-1.3,1.1,0,.8.3,1.2.8,1.3.3,0,.4-.1.4-.4ZM182.9,220.8c.3,0,.4-.2.4-.6s-.2-.7-.6-.7-.4.2-.4.5.2.8.6.8ZM221.7,221.6l.4-.4c0-.5-.2-.6-.6-.4l-.2.4c0,.3.1.4.4.4ZM185.7,221.8c.3,0,.4-.2.4-.6s0-.4-.2-.4c-.3,0-.4.2-.4.6s0,.4.2.4ZM227.3,221.2c0,.1,0,.2-.2.2s-.2,0-.2.2.1.2.4.2.4-.1.4-.4h0c0,0-.1,0-.3-.2ZM189.6,223.4c.3,0,.4-.1.4-.4s-.3-.2-.8-.2-.5,0-.4.2c0,0,.2.1.7.4ZM181,224c.3,0,.4,0,.5.1.1,0,.2,0,.2-.3.3-.4,0-.6-.5-.6s-.3,0-.3.2c0,.1.1.3.1.6ZM180.7,224.2l.2-.2c-.5-.3-.8-.2-1,.1-.2.3-.4.6-.6.8v.2c.4.1.6,0,.8-.3.2-.3.4-.5.7-.6ZM182.1,225.3c-.3.3-.4.4-.4.6s0,.2,0,.2h.1c.4,0,.6-.1.6-.4s-.1-.4-.4-.4ZM181.4,229.7v.2c0,.1,0,.1.2,0,.6-.4.9-.6.9-.7.1-.3,0-.4-.4-.4s-.4,0-.5.3c0,.2-.1.4-.3.6ZM217.7,281.4c.2.3.4.2.4-.2s0-.2,0-.3c0,0,0-.2,0-.3l-.4.4c-.3.3-.2.4.2.4ZM216,281c-.3,0-.4.3-.4.8s.1.4.4.4.3,0,.3-.3c0-.2,0-.4.1-.5,0-.3-.1-.4-.4-.4ZM215.4,283.3c-.4,0-.6,0-.6.2.1.3.2.5.2.8s.2.4.5.6c.3,0,.4,0,.4-.2,0-.8-.2-1.2-.5-1.3ZM217.1,284.2c-.3,0-.4,0-.4.2,0,.4.1.6.4.6.1-.1.2-.4.2-.8h-.2ZM223.8,285.9c.5.3.8.2.8-.2s0-.5-.3-.5c-.2,0-.3,0-.5,0-.5,0-.8.1-.8.4s.3.4.8.4ZM182.7,286.1c.3,0,.4,0,.4-.2,0-.3-.1-.4-.4-.4s-.4.1-.4.4.1.2.4.2ZM213.9,287.4c.3.6.8.7,1.5.2.7-.3.9-.7.5-1.3-.1-.6-.3-.8-.5-.5-.2.3-.4.5-.6.5s-.5-.1-.8-.4c-.5-.3-.9-.3-1.1-.2-.1.1-.3.1-.6,0s-.4,0-.4.2c0,.4.2.6.6.6.3.1.5.2.7.3.3,0,.4.3.6.6ZM220.3,287c.1-.1.1-.3,0-.4,0-.4-.1-.6-.4-.6s-.2.1-.2.4.2.3.6.6ZM217.3,291.8c-.5-.3-.9-.4-1.1-.4s-.2.1-.2.4c.5.3.9.4,1.1.4h0c0-.2,0-.3.2-.4ZM214.1,294.1c.3,0,.4-.2.4-.6s-.3-.8-.8-.8-.4,0-.4.2c0,.6.3,1,.8,1.1ZM215.6,293.3c0,.1,0,.2,0,.2s.1,0,.1.2c.3,0,.4,0,.4-.2,0-.3,0-.4-.2-.4-.3-.1-.4,0-.4.2ZM208.7,295c.1.1.4,0,.8-.4,0-.3-.1-.4-.4-.4s-.3.1-.6.4c0,.2,0,.4.2.4ZM221,296.3c.5-.1.8-.4.8-.9s-.1-.4-.4-.4c-.5.3-.7.6-.6,1.1l.2.2ZM217.1,296.9c.3,0,.4-.2.4-.6-.4-.4-.8-.6-1.1-.6s-.6.1-.4.4c.1.3.3.4.6.5.3,0,.4.1.6.3Z"></path>
  <path d="M328.6,286.8c0,1.2,0,2.5.2,3.7.1,1.2,0,2.5-.4,3.7-.3.6-.3,1.2,0,1.9.3.9.3,1.7.2,2.4s-.1,1.6,0,2.4c.1.6.1,1.3,0,2.1-.1.7-.1,1.4,0,2,.2.6,0,.9-.9.9-2.4-.1-4.7-.2-7.1-.2h-7c-1.1,0-2.2,0-3.4,0-1.1,0-2.2-.1-3.3-.1s-.6,0-.9.2-.6.1-.8,0c-.4-.4-.5-.7-.3-1,.2-.3.3-.6.3-1,0-1.1,0-2.3-.1-3.4,0-1.2,0-2.4,0-3.6,0-5.7,0-11.4.3-17.1.2-5.7,0-11.4-.6-17.1.2-1.7.4-3.5.4-5.3,0-1.8.1-3.6.1-5.3s0-1-.2-1.3-.6-.4-1.3-.4c-1.6,0-3.2,0-4.6-.2-1.5-.1-3,0-4.5.2-.5.1-1.1.1-1.7,0-.9,0-1.4,0-1.5.2s-.2.7-.2,1.7v4.3c0,1.5,0,3,.2,4.5.1,1.4.2,2.7.3,4.1,0,1.4,0,2.7-.3,4.1-.4,3-.4,5.9,0,8.8.1.7.1,1.5,0,2.2-.1.7-.2,1.5-.2,2.2,0,1.5,0,2.9-.1,4.4,0,1.4,0,2.9.1,4.4.1.8.2,1.5,0,2.3,0,.7,0,1.4.1,2,.1.5.2,1,0,1.6,0,.6-.1,1.1-.3,1.8-.1.5-.2,1-.1,1.4,0,.4.1.9.1,1.4s0,.3,0,.4c0,.1.1.3.1.5,0,1.6,0,2.5-.1,2.8,0,.3-1,.4-2.7.6-3.1.1-6.2.2-9.3.1-3.1,0-6.3-.1-9.5-.1s-1.4,0-1.6-.3c-.2-.2-.3-.7-.3-1.6v-13.9c0-1.7,0-3.4-.2-5-.1-1.6,0-3.2,0-4.6.2-1.5.2-3,0-4.6-.1-1-.2-2-.2-3.1s0-2.1.2-3.3c.3-1,.3-2,.3-3,0-1,0-2,0-3v-21.6c0-1.4,0-2.7-.2-4.1-.1-1-.2-2.1-.1-3.3,0-1.2.1-2.3.1-3.3,0-1.5,0-3,0-4.5,0-1.5,0-2.9-.3-4.3-.1-.3-.2-.5-.1-.8,0-.3.1-.6.1-.9,0-1.6,0-3.2.3-4.8.2-1.6.1-3.2-.3-4.8-.1-.4,0-.7,0-1.1.2-.4.2-.8.1-1.3,0-1.2,0-2.4-.1-3.6,0-1.2,0-2.4.1-3.6.1-1.7.1-3.5,0-5.2-.1-1.7-.1-3.4,0-5,.1-2,.2-4,.2-6v-6c0-.5-.1-.9-.4-1.3s-.3-.8-.2-1.3c.1-.8.6-1.1,1.3-1.1,3.5,0,6.9,0,10.3.2,3.4.1,6.9.2,10.3.2s.7-.1,1.1-.4c.4-.3.7-.1.9.4.3.3.3.5,0,.8-.3.3-.3.6-.2.8.1,1.2.2,2.4,0,3.6,0,1.2,0,2.5.1,3.8.3,1.1.3,2.3,0,3.5-.1.9-.2,1.7-.2,2.4v2.2c0,2.1,0,4.2-.1,6.4,0,2.2,0,4.4.1,6.6.1,1,.2,2.1,0,3.2,0,1.1,0,2.2,0,3.2v15.6c0,.9.4,1.3,1.1,1.3,1.8,0,3.7,0,5.6.3,1.9.2,3.7,0,5.4-.3.9,0,1.4,0,1.5-.2.1-.1.2-.6.2-1.5-.1-3.2-.2-6.4-.1-9.6,0-3.2.1-6.3.1-9.4s0-2,0-3.1c0-1.1,0-2.1-.3-3.3.3-4.1.4-8.2.4-12.4v-12.4c0-1.1,0-1.8.3-1.9s.8-.2,2-.1c1.6.1,3.2.2,4.6.3,1.5,0,3.1,0,4.7-.3.6-.1,1.2,0,1.7.1.5.2,1,.2,1.5,0,1.2-.3,2.4-.3,3.6-.2,1.2.1,2.4.2,3.6.2s1.6.6,1.5,1.7c-.1,1.2-.1,2.5,0,3.9.2,1,.3,2,.2,3.1-.1,1.1-.2,2.1-.2,3.3v9.3c0,.1,0,.3,0,.5,0,.2,0,.4,0,.6-.3,1.8-.3,3.7-.1,5.6.2,1.9.2,3.7,0,5.6-.1.9-.1,1.7,0,2.5.1.8.2,1.6.2,2.3s0,2,0,3.1c0,1.1,0,2.1-.3,3.1-.1.4-.2.8-.1,1.2,0,.4.2.8.3,1.2.2.8.3,1.5.3,2.3,0,.8-.1,1.6-.3,2.5-.1,1.4-.2,2.8-.3,4.3,0,1.5,0,2.9.1,4.3.1,1.2.2,2.4.3,3.6,0,1.2,0,2.4-.3,3.6.3,1.6.3,3.2,0,4.6-.2,1.5-.1,3,.1,4.5.1.5,0,1-.1,1.6-.2.6-.2,1.1,0,1.8.3,1.2.3,2.5,0,3.9-.2,1.4-.2,2.7,0,4.1.1,1.3.2,2.5,0,3.7,0,1.2,0,2.5,0,3.7,0,2.6,0,5.2,0,7.8,0,2.6.1,5.2.1,7.8ZM276.9,184.2c-.1,0-.3.1-.6.4,0,.3,0,.4.2.4s.3-.1.6-.4c0-.3,0-.4-.2-.4ZM282.3,184.6c-.3,0-.4.1-.4.4s.1.4.4.4.4-.1.4-.4-.1-.4-.4-.4ZM317.8,190.5c0,.3.1.4.4.4s.3-.1.6-.4c0-.3-.1-.4-.4-.4-.4,0-.6.1-.6.4ZM312.6,192.9c.3.3.5.1.8-.4,0-.4-.1-.4-.4-.2-.5,0-.7.1-.6.4l.2.2ZM282.9,194c0-.3,0-.4-.2-.4l-.4.4c-.3.3-.2.4.2.4l.4-.4ZM278.4,194.8v2.4c0-.1.1-.3.4-.6.1-.3.3-.5.5-.8.2-.3.5-.3.9.1.3.2.4.1.4-.4.2-.4.1-.6-.4-.6s-.5,0-.9-.2c-.3-.1-.6-.1-.8,0ZM284.2,196.6c-.4.1-.6.4-.8.8,0,0,0,0,0,.1,0,0,.2,0,.3,0,.3-.1.4-.3.5-.4,0-.1.2-.3.3-.4,0-.1,0-.2-.2-.3-.1,0-.2,0-.2,0ZM281.6,197.8l-.9-.9c-.1-.3-.3-.3-.5,0s-.3.4,0,.6c.3.3.6.5.9.8.4.2.3.7-.4,1.3-.1.1,0,.2.4.2s.5-.2.6-.5c.2-.3.4-.5.5-.7.3-.2.3-.4,0-.4-.3,0-.4-.2-.6-.3ZM324.2,200.6c.1-.1.2-.4.2-.8s0-.8-.2-.8c-.1-.1-.2-.1-.3,0,0,.1,0,.3.1.4,0,.1,0,.3,0,.5,0,.2,0,.4,0,.6ZM282.7,201.9c.1.1.2.3,0,.6,0,.3.2.3.6.2.8-.3,1-.6.8-1-.2-.4,0-.8.3-1v-.2c0-.1,0-.2-.2-.2-.3,0-.4,0-.4.2,0,.5-.2.8-.5.9-.3.1-.6.3-.8.6v-1.5c0-.5-.1-.6-.4-.4-.4,0-.6,0-.8.2s0,.3.2.6c.3.1.4.3.5.5,0,.2.2.4.5.6ZM280.8,201.1c0-.2-.1-.4-.4-.4s-.5,0-.8-.3c-.3-.2-.5-.2-.8-.1v.4c.3.4.5.5.8.5.3,0,.6,0,.8.3h0c0-.2.1-.3.1-.4ZM273,201.7c-.5,0-.8.1-.8.4,0,.5.3.6.9.4.4-.3.8-.4,1.2-.4h1.2c-.5.5-.8.9-.8,1.1-.1.1-.2.2-.3.2h0c-.1.1-.3.2-.6.2s-.4.1-.6.4l.2.2c.9.3,1.3,0,1.3-.6v-.4c.4.2.7.6.9,1,.3.4.6.8.9,1h.6c.1-.1,0-.3-.2-.6-.5-.6-.8-1.1-.8-1.3s.3-.6.8-1.1h0c0-.2,0-.3,0-.4,0-.1-.1-.2-.4-.2-.5.3-.9.4-1.1.4-.1-.9-.7-1.1-1.7-.8-.4.4-.7.5-.9.4ZM280.7,204.8c.3-.3.6-.5.9-.6.4-.2.4-.5.2-1,.3-.5.2-.8-.2-.9-.4-.3-.7-.1-.9.4-.1.1-.3.2-.5.2s-.4.1-.6.4c-.1.2-.3.5-.5.6s0,.4.5.6c.3,0,.5.1.6.4.2.3.3.3.5,0ZM274,205.6c0,.2.2.4.6.4s.4-.2,0-.5c0-.3-.1-.4-.4-.4-.1.1-.2.3-.2.6ZM284.4,206.5l-.4-.4c-.4,0-.6,0-.6.2l.4.4c.1.1.3,0,.6-.2ZM278.6,208.7c-.5,0-.6.1-.4.4,0,.4.3.6.8.6s.4-.2.4-.6,0-.3-.3-.3c-.2,0-.3,0-.5-.1ZM280.8,209.1c-.2.3-.2.4.2.4s.4-.1.4-.4,0-.4-.2-.4c-.3,0-.4.1-.4.4ZM278.8,214.9c.4,0,.6-.1.6-.4s0-.4-.2-.4c-.1-.1-.3,0-.6.2s0,.3.2.6ZM322.7,221.6c-.3-.4-.2-.7,0-.9.3-.3.5-.5.5-.7s0-.2-.1-.3c0,0,0-.1,0-.1-.3-.3-.4-.3-.4,0-.4.4-.6.5-.8.5-.1.1-.3.2-.5.3-.2,0-.1.2.1.5.1.1.2.3.3.6,0,.3.2.4.5.4s.3,0,.4-.2ZM320.6,222.1c.3.2.4.2.4-.2s0-.2-.1-.3c0,0,0-.1,0-.1-.4,0-.7-.1-.9-.4s-.6-.4-.9-.4c-.1-.1-.2-.2-.3,0h0v.5c.3.1.5.3.8.6.3.3.7.4,1.2.4ZM312.6,227.5c.3-.2.5-.6.8-1.1h-.6c-.3,0-.4.3-.4.8-.3.2-.2.4.2.4ZM302.4,233.6c-.2,0-.4.1-.4.4s0,.2,0,.3c0,0,.1.1.1.3l.4-.4c0-.3,0-.4-.2-.6ZM298.5,235.3c.3,0,.4-.1.4-.4-.1-.1-.2-.2-.2-.4s0-.2-.2-.2c-.3,0-.4.1-.4.4s.1.3.4.6ZM299.4,235.9c0,.3.2.4.5.4s.6-.1.6-.4-.2-.4-.6-.4-.5.1-.5.4ZM302,237.7c.2,0,.4-.2.5-.6h0c0-.2,0-.2-.2-.4-.1,0-.3.2-.5.5v.2c0,.1,0,.2.2.2ZM304.3,240.1c.3-.1.5-.2.7-.3.3,0,.3-.3,0-.6-.1-.3-.2-.5-.1-.8,0-.3,0-.4-.3-.4-.1-.1-.4.2-.8.9-.1.1-.3.2-.4.2s-.3,0-.6.2c-.4,0-.5.2-.4.6.1.3.4.3.8.2.1,0,.3,0,.5.1.2,0,.4,0,.5-.1ZM300.2,239c.5,0,.8-.1.8-.4s-.2-.4-.6-.4c-.4-.3-.5-.1-.5.4s.1.4.4.4ZM290.3,246.1c.1,0,.2,0,.3-.3,0-.2,0-.4,0-.5-.2-.3-.5-.5-.7-.8s-.6-.2-1.1.2c0-.1,0-.3-.1-.4,0-.1,0-.2.1-.4.1-.1,0-.4-.4-.8s-.4-.3-.4,0c-.2.3-.2.6,0,.9.3.1.4.2.5.3,0,0,.2.1.3.3l-.6.6c.5.5,1.2.8,2.2.8ZM285.3,252.2c0-.1,0-.2-.1-.3,0,0,0-.1,0-.1-.1,0-.2,0-.3.1s-.1,0-.3,0c0,.3,0,.4.2.4.4.1.6,0,.6-.2ZM278.2,264.3c-.2,0-.4,0-.5.2,0,0,0,0,0,.1,0,0,.1.1.1.3h.5c0-.1,0-.2-.1-.3,0,0,0-.2,0-.3ZM277.7,267.5c0-.6-.3-1-.8-1.1,0,.1,0,.2-.2.2s-.2,0-.2.2c0,.4.3.7.8.9.3,0,.4,0,.4-.2ZM281,269.7c-.3.3-.4.4-.4.6l.2.2c.1-.1.3-.2.4-.3.1,0,.2-.2.2-.3,0,0,0,0-.1,0,0,0-.1-.1-.3-.1ZM283.3,272.5l.6.6c.3-.1.5-.2.8-.3.3,0,.4-.2.4-.5,0-.4-.3-.7-.8-.9-.5-.1-.7,0-.7.3,0,.3,0,.6-.3.8ZM272.5,272.5c0,.1,0,.2,0,.2h.1c.4,0,.6-.1.6-.4s-.1-.4-.4-.4c-.4,0-.5.2-.4.6ZM281,273.8c.1,0,.3,0,.5-.2.2-.1.2-.3,0-.4-.1-.1-.2-.3-.2-.4s-.1-.3-.4-.3-.4.2-.4.6.2.7.5.7ZM278.4,273.8c.4,0,.6-.2.6-.6s0-.4-.2-.4c-.4,0-.6.2-.6.5-.2.3-.2.4.2.4ZM275.5,274.5c.1-.3.2-.5.4-.6.1-.2,0-.4-.2-.7h-.2c-.3.3-.3.7,0,1.3ZM274.7,274.7c-.6-.3-1.1,0-1.5.6,0,.2,0,.4.2.4.3,0,.5,0,.8.2s.5,0,.8-.2c.3-.2.4-.5.4-.7-.3,0-.4,0-.6-.2ZM275.5,276.2c-.4.4-.4.8,0,1.3.4.4.7.6.9.8.3.2.6.1,1.1-.1.1,0,.2,0,.3.1,0,0,.2,0,.3,0,.5,0,.7,0,.7-.2,0-.2-.2-.4-.6-.4-.5-.3-.7-.4-.7-.4-1,.4-1.3,0-.9-.9,0-.5,0-.8-.2-.8-.1-.1-.3-.1-.4,0s-.3.3-.5.4ZM273.6,280.7c-.1.4,0,.5.5.5.4,0,.7,0,.9,0,.1.5.3.7.5.7.3,0,.5-.1.8-.1s.2,0,.3-.2c0-.1,0-.2,0-.2-.1-.4-.5-.4-1.1-.2h-.4v-1.3c0-.4-.1-.8-.4-1.1,0-.5-.1-.6-.4-.4s-.4.6-.4,1,0,.8-.2,1.2ZM276.8,280.1c0,.5.3.7.9.7s1.1-.2,1.1-.7-.2-.7-.5-.5c-.3.2-.6.2-.8,0-.5-.3-.8-.1-.8.4ZM288.3,282.4c.5,0,.6-.2.2-.6,0-.1,0-.2-.2-.2-.3.3-.3.5-.2.8h.2ZM273,284c.2,0,.4-.1.4-.4s0-.4.2-.6c0-.4-.1-.5-.4-.5s-.4.2-.4.7,0,.8.2.8ZM276,285.5c.3,0,.6-.3.9-.8.4-.6.6-.9.6-1,0-.5-.1-.8-.4-.8h-.8c-.7,0-1.1,0-1.2.2,0,.1,0,.6,0,1.3s.3,1.1.9,1.1ZM282.2,284.2c.3-.3.4-.4.6-.4,0-.3,0-.4-.2-.4s-.3.1-.6.4c0,.3,0,.4.2.4ZM286,285.7l.4-.4c-.1-.2-.3-.4-.4-.4s-.3,0-.6-.2c-.1,0-.2.2-.2.5.2.3.5.4.7.4ZM285.5,287c0-.4-.2-.6-.5-.6s-.6.1-.6.4c.1.1.3.2.4.2s.3,0,.4.2c.2,0,.4,0,.4-.2ZM280.8,288.7c0-.6-.1-.9-.4-.9s-.2.2-.2.6.1.8.4.8c.1.1.2,0,.2-.4ZM273.8,288.7c0,.5.3.7.8.5.5-.2.8-.1.9.3,0,.1,0,.2,0,.1s.1-.2.1-.3c0-.8-.3-1.1-.9-1.1-.1-.1-.3-.1-.6,0s-.4.3-.4.6ZM282.2,288.9c.4,0,.6-.1.6-.4s0-.4-.2-.4c-.4,0-.6.1-.6.4-.3.3-.2.4.2.4ZM277.5,290.9c.3-.1.3-.3.2-.5-.1-.2-.1-.3,0-.5,0-.3,0-.4-.2-.4-.3.1-.4.4-.4.9s.1.4.4.4ZM276.6,291.1c-.1-.4-.4-.6-.8-.8-.2-.1-.5.1-.7.8,0,.3.2.4.6.4.4.3.7.1.9-.4ZM284.6,290.9c-.5,0-.7.1-.6.4,0,.3,0,.6,0,.9,0,.4.2.5.5.5.3.1.3,0,.3-.4,0-.4,0-.6.1-.8.4-.5.2-.8-.4-.8ZM272.3,292.2c.1-.3,0-.3-.1-.3-.2,0-.3,0-.5,0-.6,0-1,.1-1.3.4,0,0,0,0-.1,0,0,0,0,.1,0,.3,0,.3.1.3.4,0,.4-.4.7-.5,1.1-.4.4.1.6,0,.6-.2ZM279.7,292.8c.3.3.4.3.4,0,0-.4-.2-.6-.6-.7-.3,0-.4.1-.4.4s0,.2.2.2.3,0,.4.2ZM276.9,295.5c.1,0,.2-.2.2-.7s-.1-.5-.4-.5c-.3,0-.5,0-.8,0-.4,0-.6,0-.7.3-.1.2-.3.4-.4.6,0,.1,0,.2.2.2.3-.3.5-.3.8-.2.3.1.6.2,1,.2ZM285.3,295.7c.4.1.5,0,.5-.6s0-.6-.3-.5c-.2.2-.4.2-.6.1-.1.1-.3.1-.6,0-.3-.1-.4,0-.4.2,0,.4.2.6.5.6s.6,0,.9.2ZM279.5,298c.5,0,.5-.1,0-.4-.1-.1-.4,0-.8.2-.4.3-.7.5-.8.8,0,.3.1.4.4.4s.5-.2.6-.5c.2-.3.4-.5.7-.5Z"></path>
</svg><style>@media (prefers-color-scheme: light) { :root { filter: contrast(1) brightness(1); } }
@media (prefers-color-scheme: dark) { :root { filter: invert(100%); } }
</style></svg>