<?xml version="1.0" encoding="UTF-8"?>
<svg id="Layer_1" data-name="Layer 1" xmlns="http://www.w3.org/2000/svg" viewBox="0 0 190.61 185.88">
  <defs>
    <style>
      .cls-1 {
        fill: gray;
      }
    </style>
  </defs>
  <path class="cls-1" d="M77.83.29c-.59.11-3.52.59-6.48,1.08-2.97.48-5.56,1.15-5.74,1.52-.22.33-1.96.89-3.9,1.19-1.93.3-3.67.63-3.89.7-.18.07-1.11.37-2.04.67-.89.3-1.45.85-1.19,1.26.26.48-.15.56-1.11.26-.85-.26-2.15-.11-2.89.33-1.11.67-1.01.74.55.33,1.93-.52-1.33,1.78-8.53,5.93-3.59,2.07-11.67,8.01-14.97,10.97-.85.81-1.93,1.26-2.33,1s-1-.07-1.3.41c-.33.56-.19.67.37.3,1.11-.67.45,2.11-1.85,7.74-1.67,4.11-5.71,8.89-7.52,8.89-1.26,0-.22-2.04,2.07-4.07,1.63-1.45,6.23-10.67,5.64-11.27-.44-.41-2.89,3.15-4.82,6.89-1.93,3.85-5.19,6.64-8.49,7.27-2.96.55-9.41,6.89-9.41,9.22,0,2.07,10.67,11.97,12.93,11.97,2.52,0,7.53-5.48,8.49-9.27,1.44-5.78,9.12-12.27,14.42-12.22,3.19.04,7.64,2.85,13.08,8.26,8.23,8.15,33.88,34.46,38.33,39.28,2.11,2.3,4.04,3.96,4.3,3.7.26-.22.26.11,0,.74-.89,2.26,5.86,9.74,41.14,45.83,29.14,29.79,33.03,34.09,37.55,41.31,2.08,3.3,3.86,5.38,4.67,5.38,1.48,0,11.6-8.89,13.97-12.23,2.85-4.07,2.85-4.11-5.22-10.89-4.19-3.52-20.94-19.68-37.25-35.91-30.17-30.08-33.47-33.12-45.22-42.13-13.16-10.04-51.56-50.28-53.33-55.8-.89-2.81,2.41-8.78,7.3-13.22,4.15-3.78,6.41-5.04,21.2-12.01,2.56-1.22,3.67-2.19,3.71-3.26,0-.56-.15-.56-2.22-.15ZM71.9,3.74c-10.41,4.52-15.64,7.96-20.2,13.34-5.04,5.93-6.6,9.52-6.34,14.45l.22,4.15-4.08.26c-9.34.56-12.12,1.74-19.61,8.3-2.04,1.78-3.82,2.85-3.96,2.41-.15-.45-.52-.67-.85-.48-.3.22-.41-.55-.18-1.67.18-1.11.81-2.26,1.37-2.59.56-.33,2.19-2.33,3.59-4.44,1.45-2.11,2.59-3.34,2.59-2.71,0,.59-.85,2.38-1.93,3.93-3.19,4.71-1.44,3.85,2.38-1.15,1.96-2.56,3.85-4.78,4.19-4.93,1.19-.48,5.71-6.97,5.3-7.6-.93-1.56.63-2,3.15-.93,2.93,1.19,6.19.82,6.19-.74,0-1.7-.93-2-2.3-.78-.74.67-1.67.96-2.11.7-1.22-.78-.93-1.89.56-1.89.74,0,1.74-.41,2.22-.89.7-.7.89-.7.89,0,0,.48.37.89.78.89.44,0,.56-.37.3-.81-.37-.56,0-.67,1.04-.33,1.48.48,1.96-.11,1.71-1.96-.08-.3.33-.38.85-.19.52.22,2.85-1.56,5.16-3.89,6.11-6.3,7.82-7.45,14.64-9.85,4.3-1.52,7.59-1.96,4.44-.59ZM53.37,43.31c1.85,1.48,4.15,3.33,5.19,4.15,1.81,1.45,1.81,1.48.41,2.52-1.96,1.41-2,1.41-6.27-4.33-4.22-5.67-4.11-6.11.67-2.33ZM10.67,44.05c.67.26,1.19.96,1.19,1.56,0,.7.44.96,1.11.7.63-.26,1.11-.15,1.11.22s.67.89,1.48,1.15c1.78.56,2.11,4.08.41,4.08-.59,0-1.45.67-1.89,1.52-.45.82-1.15,1.3-1.52,1.04-1.07-.67-.82-1.81.41-1.81s1.38-.67.67-2.52c-.26-.67-.74-1-1.11-.78-.37.26-.89-.11-1.15-.78-.37-1-.93-.78-3.15,1.41-2.63,2.59-6,3.11-6,.89,0-1.3,2.74-2.7,4.22-2.18,1.07.41,1.15.3.41-.52-.74-.81-.59-1.33.7-2.7,1.82-1.93,1.59-1.85,3.11-1.26ZM73.35,60.98c5.9,5.89,10.53,10.93,10.27,11.15-.22.26-2.15-1.26-4.26-3.3-3.38-3.3-6.82-4.7-4.45-1.82.85,1.01.15,1.45-1.78,1.11-.33-.07-.48.3-.3.81.19.52.93.85,1.64.74.7-.15,1.11.04.89.41-.22.37.08.67.71.67.67,0,.92-.41.67-1.11-.33-.85,0-.78,1.26.29.92.78,1.89,1.56,2.07,1.71.22.18-.44.04-1.48-.26l-1.85-.56,1.78,1.96c1,1.04,1.41,1.93.89,1.93-.48,0-.67.37-.37.85.37.59.11.59-.89.04-.78-.44-1.41-1.37-1.41-2.15,0-.93-.56-1.33-1.85-1.33-1.08,0-1.78-.37-1.67-.89.07-.52-.56-1.3-1.41-1.78-1.26-.67-1.37-.96-.56-1.48.96-.59-.52-1.04-2.44-.78-.3.07-.37-.33-.19-.81.19-.52-.81-2.26-2.22-3.89-2.85-3.26-3.04-3.74-1.78-4.52.48-.3.67-.19.41.22-.26.41.7,1.74,2.11,3.01,1.41,1.26,2.56,2.96,2.56,3.81,0,1.08.48,1.56,1.52,1.56,2.38,0,2.59-2.04.41-3.78-1.04-.81-1.93-2-1.93-2.63,0-.59-.29-.92-.63-.7-.34.22-1.85-.93-3.38-2.56-1.56-1.63-3.08-2.78-3.41-2.56-.33.22-.44-.26-.22-1.04.48-1.89-.59-2.41-2.38-1.11-1.44,1.07-1.41,1.15.93,2.96,2.37,1.85,3.11,3.26,1.67,3.26-.41,0-.74-.48-.74-1.07,0-.56-.63-1.26-1.41-1.48-2.63-.85-3.41-2.48-1.93-4.11,2.56-2.82,4.04-1.89,15.16,9.22ZM8.71,52.68c-1.11,1.67-2.19,1.96-2.59.74-.11-.37.52-1.04,1.44-1.48,2.38-1.15,2.41-1.11,1.15.74ZM11.86,55.42c0,.81-1.67,1.07-2.38.37-.26-.22-.26-1.04-.07-1.82.41-1.52,2.45-.33,2.45,1.45ZM98.41,87.06c3.7,3.67,4.74,5.45,3.15,5.45-.41,0-1.63,1-2.71,2.22-2.11,2.37-3.85,2.78-5.3,1.33-1.55-1.56-1.07-2.89.93-2.37,2.64.63,3.48-.15,2.48-2.34-.44-1-1.07-1.81-1.37-1.81-.63,0-8.01-5.48-12.01-8.93l-2.78-2.37,1.85-1.74c1-.93,1.85-2.3,1.85-3.04.04-.89,1.74.59,5.01,4.22,2.74,3.04,6.74,7.27,8.9,9.38ZM110.45,99.85c0,.38,1.18,1.19,2.59,1.89,1.44.67,2.59,1.41,2.59,1.59,0,.7-1.7,3.63-2.38,4.08-.37.22.33.41,1.56.41,1.52,0,2.3-.41,2.56-1.41.38-1.38.41-1.38,1.78-.04,1.33,1.3,1.33,1.38.04,2.01-.74.37-1.33.96-1.33,1.3,0,.89,1.78.78,2.74-.19.45-.44,1.22-.59,1.74-.26.67.41.59.7-.3,1.22-.67.37-1.22,1.15-1.22,1.78,0,1.74,2.19,2.11,3.34.59.96-1.37,1.04-1.37,1.52-.04.33.82.19,1.59-.37,1.93-.67.44-.59.7.26,1.04.67.22,1.19,1.11,1.19,1.93,0,1.56,1.78,2.08,2.59.78.85-1.38,1.67-.78,2.11,1.52.26,1.26.81,2.08,1.22,1.82.41-.26,1.34-.07,2.04.37,1.11.7,1.07.74-.37.37-1.96-.56-2.34,1.3-.59,3,1.41,1.45,1.89,1.33,1.89-.37,0-1.04.33-1.33,1.15-1.04.67.26.96.93.74,1.56-.33.81-.04,1,1.07.7.82-.22,1.67-.04,1.93.33.26.41-.26.93-1.15,1.15-1.04.26-1.45.81-1.19,1.52.56,1.41-4.01.7-4.93-.74-.3-.52-.59-.7-.59-.48,0,.26-1,.26-2.26,0-1.26-.22-2.22-.74-2.15-1.11.04-.37-.38-.93-.89-1.3-.82-.52-.82-.74.07-1.33,1.41-.89.67-1.63-1.78-1.78-1.04-.07-1.89-.37-1.89-.67s-.48-.55-1.11-.55c-.59,0-1.11-.33-1.11-.74s.78-.74,1.74-.74c1.04,0,1.7-.44,1.7-1.15,0-.78-.22-.89-.74-.37-1.3,1.29-3.52.92-3.3-.52.15-.89-.33-1.37-1.56-1.56-2.38-.33-3.93-1.89-2.93-2.89.48-.48.07-.63-1.34-.41-1.93.3-2,.22-.81-.74,1.56-1.26,1.74-3.08.22-2.48-1.01.37-5.6-1.41-5.6-2.22,0-.18.33-.15.74.11.96.59.93.11-.11-2.15-.48-1.04-1.11-1.7-1.41-1.52-.33.19-.81-.67-1.07-1.89-.26-1.22-.96-2.22-1.56-2.22-.85,0-.93-.33-.3-1.48.82-1.52,5.19-.33,5.19,1.41ZM135.21,130.82c.3.3,2.34.48,4.56.37,3.07-.11,4.04.11,4.04.93,0,.55.74,1.18,1.67,1.37l1.67.33-1.67.56c-.93.3-1.67.85-1.67,1.22,0,1.11,3.23,2.01,4.64,1.26,1.07-.55,1.3-.37,1.3,1.19,0,1.04.33,1.89.74,1.89s.74-.33.74-.74.33-.74.74-.74.74.48.74,1.11c0,.59-.52,1.11-1.15,1.11-1.67,0-1.04,2.52.7,2.85.74.15,1.63-.15,1.93-.67.93-1.48,2.37.04,1.89,1.96-.33,1.33-.19,1.63.7,1.3,1.45-.56,1.45.78,0,2.22-.59.63-1.15,2.07-1.19,3.22-.04,2.41-.33,1.74-1-2.18-.44-2.67-1.89-3.96-1.89-1.67,0,.59.33,1.11.74,1.11s.74.48.74,1.11c0,2.22-3.41.3-3.82-2.15-.15-.85-1.33-1.82-2.85-2.37l-2.59-.93,2.59-.15c1.63-.07,2.04-.26,1.15-.52-.82-.19-2.34-1.3-3.41-2.45-1.07-1.15-2.93-2.3-4.11-2.59-4.34-.93-4.52-1.07-2.89-2.33.96-.74,1.19-1.26.59-1.48-.48-.18-.7-.81-.48-1.37.26-.67-.04-1.07-.78-1.07-.67,0-1.19.33-1.19.74,0,1.85-3.59-.52-3.67-2.41-.04-.7,1.78-.74,2.48-.04ZM163.49,150.35c.26.44-.15,1.3-.89,1.89-1.3,1.07-1.3,1.11.19.7,1.63-.45,3.71,1.22,3,2.37-.18.33.63,1.04,1.85,1.59,1.41.63,2.08,1.37,1.82,2.04-.26.59-.11.89.3.63.37-.22,1.11.26,1.63,1.07.52.85,1.37,1.52,1.89,1.52,1.33,0,1.15,1.3-.37,2.15-1.96,1.07-.67,1.7,2.41,1.15l2.71-.52-2.78-2.89c-1.56-1.56-2.45-2.85-2-2.85.48,0,1.56.89,2.41,2,.89,1.07,2.56,2.59,3.78,3.3,2.59,1.59,2.82,2.67.52,3-2.15.3-2.45,4.48-.37,4.9,1,.18,1.3-.26,1.3-2.04,0-1.22.33-2.26.74-2.26s.74.48.74,1.04c0,.59.37,1.19.78,1.34,1.44.48-2.26,4.3-4.11,4.3-.96,0-2,.41-2.3.85-.37.59-.15.74.7.41.67-.26,1.22-.19,1.22.15,0,1.41-2.78,1.3-3.67-.15-.74-1.19-1.04-1.3-1.59-.45-.41.67-.63.7-.67.15,0-.48.48-1.33,1.08-1.93,1.3-1.33.78-1.96-1.74-2.11-1.07-.07-.48-.3,1.33-.55,4.86-.67,5.97-3.78,1.34-3.82-3.15,0-5.71-1.26-5.71-2.82,0-.48.33-.85.7-.85,1.26,0-.04-2.15-1.56-2.63-.82-.26-1.33-.63-1.11-.82.48-.52-2.26-3.22-3.26-3.22-.44,0-.63-.26-.41-.59.18-.33-.63-1.18-1.82-1.89-2.33-1.41-2.74-2.59-1.3-4.04,1.11-1.11,2.56-1.15,3.22-.11Z"/>
  <path d="M74.89,123.67c.25,1.24.34,2.48.27,3.73-.06,1.24-.15,2.54-.27,3.9,0,1.49-.04,3.01-.1,4.56-.06,1.54-.08,3.06-.08,4.54v4.08c0,1.36-.13,2.73-.38,4.1-.13,1.24-.41,2.47-.83,3.71-.43,1.24-.96,2.47-1.58,3.71-.5,1.5-1.22,2.81-2.15,3.92-.92,1.11-1.88,2.22-2.88,3.33-.86.88-1.79,1.59-2.79,2.15-.99.56-1.97,1.15-2.96,1.77-1.61.99-3.29,1.7-5.02,2.13-1.74.44-3.47.97-5.21,1.58h-.38c-2.36.13-4.75.19-7.17.19s-4.8-.24-7.15-.73c-1.99-.38-3.95-.97-5.88-1.77-1.92-.8-3.74-1.82-5.46-3.06-3.22-2.36-5.89-5.46-8-9.31-1.86-3.96-2.79-8.05-2.79-12.27,0-1.23.03-2.47.08-3.71.07-1.23-.02-2.47-.27-3.71-.13-1-.13-2.03,0-3.08.13-1.05.19-2.01.19-2.88-.13-1.61-.1-3.19.08-4.73.19-1.55.1-3.14-.27-4.75-.25-.25-.25-.56,0-.94.25-1.36.28-2.75.08-4.17-.18-1.43-.21-2.76-.08-4,.25-1.86.28-3.72.08-5.58-.18-1.86-.21-3.72-.08-5.58.13-1.36.15-2.63.08-3.79-.06-1.18-.08-2.4-.08-3.65-.13-1.48-.13-2.94,0-4.35.13-1.43.19-2.82.19-4.19,0-.63-.04-1.18-.1-1.67-.06-.5-.08-1-.08-1.5.13-1.11.13-2.19,0-3.25-.13-1.05-.06-2.14.19-3.25,0-.25.03-.55.08-.92.07-.38.04-.69-.08-.94-.13-1.36-.16-2.76-.1-4.19.07-1.43.04-2.76-.08-4,0-3.59.68-7.31,2.04-11.15.88-1.98,1.9-3.78,3.06-5.4,1.18-1.61,2.57-3.16,4.19-4.65,1.36-1.36,2.91-2.51,4.65-3.44,1.73-.93,3.47-1.65,5.21-2.15,1-.25,1.96-.49,2.88-.73.93-.25,1.83-.38,2.71-.38,1.48.25,2.72,0,3.71-.75h1.13c.25.5.5.63.75.38,1.11-.13,2.19-.06,3.25.19,1.05.25,2.07.31,3.06.19.63,0,1.28.13,1.96.38.68.24,1.26.42,1.75.54,1.61.25,3.13.72,4.56,1.4,1.43.68,2.76,1.4,4,2.15,1.11.61,2.16,1.32,3.15,2.13,1,.81,1.86,1.77,2.6,2.9.88,1.11,1.65,2.23,2.33,3.35.68,1.11,1.33,2.29,1.96,3.52.48.86.82,1.73,1,2.6.19.86.35,1.79.48,2.79.25,1.49.38,2.95.38,4.38s.06,2.87.19,4.35v17.02c0,1.54-.06,3.12-.19,4.73,0,.38.06.78.19,1.21.13.43.13.83,0,1.21-.25.38-.59.44-1.02.19-.43-.25-.83-.31-1.21-.19-1.74.38-3.47.38-5.21,0h-1.48c-1.74.13-3.51.16-5.31.1-1.79-.07-3.56-.1-5.29-.1-.5,0-1,.04-1.5.1-.49.06-.98.15-1.48.27-.86,0-1.23-.44-1.1-1.31.23-1.97.29-3.95.17-5.94-.11-1.98-.1-3.97.02-5.96,0-2.09-.04-4.26-.1-6.5-.06-2.23-.02-4.4.1-6.5,0-1-.13-1.96-.38-2.88-.25-.93-.69-1.83-1.31-2.71-.74-.98-1.85-1.67-3.33-2.04-2.24-.5-4.35-.13-6.33,1.1-.86.5-1.48,1.22-1.85,2.15-.38.93-.56,1.89-.56,2.88-.13,3.35-.19,6.67-.19,9.96v9.75c.13,2.49.15,4.97.08,7.46-.06,2.47-.08,4.95-.08,7.42v44.06c0,1.99.65,3.6,1.96,4.83,1.3,1.24,3.13,1.79,5.48,1.67,1.98,0,3.57-.65,4.75-1.94,1.18-1.3,1.77-2.89,1.77-4.75-.13-4.33-.16-8.7-.1-13.1.07-4.4.1-8.71.1-12.92,0-.5-.04-.99-.1-1.48-.06-.5-.02-.94.1-1.31.23-.38.6-.46,1.1-.27.5.18.94.27,1.31.27h19.88c.88,0,1.25.37,1.13,1.1-.13,2.74-.13,5.53,0,8.38ZM35.48,42.8c-.13.13-.19.25-.19.38,0,.25.13.38.38.38.13,0,.19-.13.19-.38s-.13-.38-.38-.38ZM39.21,46.15c-.13.13-.29.25-.48.38-.18.13-.4.25-.65.38,0,.25.19.38.56.38.5,0,.75-.31.75-.94,0,0-.04-.06-.1-.19-.06-.13-.08-.13-.08,0ZM31.02,46.15c-.38,0-.56.19-.56.56l.19.38.56-.56c.25-.25.19-.38-.19-.38ZM38.46,48.38c-.25.5-.44.75-.56.75.13.25.28.35.46.29.19-.07.35-.1.48-.1.38-.25.56-.13.56.38.36.61.92.92,1.67.92h.75c.23-.13.51-.13.81,0,.32.13.6,0,.85-.38l-1.67-.54h-.56c-.88-.13-1.35-.25-1.42-.38-.06-.13.1-.56.48-1.31.13-.13.19-.36.19-.73.5,0,.75-.13.75-.38-.25-.25-.5-.38-.75-.38-.13.13-.16.25-.1.38.07.13.1.25.1.38-.25.24-.59.39-1.02.46-.43.06-.77.27-1.02.65ZM28.98,48c-.38,0-.5.13-.38.38,0,.13.06.19.19.19s.25.06.38.19c.38,0,.5-.13.38-.38,0-.25-.19-.38-.56-.38ZM35.85,48.19c-.38.13-.54.29-.48.48.07.18.04.4-.08.65,0,.36.13.54.38.54.5,0,.63-.3.38-.92,0-.5-.06-.75-.19-.75ZM42.73,48.19c-.38,0-.56.19-.56.56h.38c.38,0,.63-.13.75-.38,0,0-.06-.03-.19-.08-.13-.07-.25-.1-.38-.1ZM31.02,50.05c-.13-.61-.38-.79-.75-.54-.36.24-.67.18-.92-.19-.25,0-.47.09-.67.27-.18.18-.21.33-.08.46,0,1,.31,1.38.94,1.13.23,0,.54-.09.92-.27.38-.19.56-.48.56-.85ZM47,49.69c-.36,0-.54.06-.54.17,0,.38.11.56.35.56.13,0,.25-.06.38-.19,0-.25-.04-.4-.1-.46-.06-.05-.08-.08-.08-.08ZM27.31,51.36c-.63,0-.94.13-.94.38.13.36.44.92.94,1.67h.35c.25-.25.25-.5,0-.75-.24-.25-.35-.49-.35-.73v-.56c.23-.5.17-.94-.19-1.31-.13,0-.25.06-.38.19s-.1.29.08.48c.19.18.29.4.29.65h.19ZM51.48,50.23l-.38.38c0,.38.13.56.38.56.23,0,.35-.13.35-.38,0-.13-.12-.31-.35-.56ZM33.06,51.92c-.25.24-.38.35-.38.35,0,.25.13.31.38.19l.08-.08c.07-.07.1-.16.1-.27l-.19-.19ZM50.35,52.65l-.38.75c0,.38.13.44.38.19.13,0,.19-.19.19-.56.25-.25.19-.38-.19-.38ZM55.94,52.84c-.5,0-.69.13-.56.38.25.38.5.56.75.56.48,0,.6-.19.35-.56,0-.5-.18-.63-.54-.38ZM35.85,54.69c.25-.11.5-.32.75-.63.25-.32.43-.6.54-.85-.11-.13-.17-.21-.17-.27v-.1c-.5.13-.94.19-1.31.19s-.74.13-1.1.38c0,.13-.04.22-.1.29l-.08.08c.23.13.51.34.81.65.32.31.54.4.67.27ZM41.44,55.63c.48-.25.73-.44.73-.56s-.18-.19-.54-.19c-.63.25-1,.14-1.13-.35-.13-.13-.22-.28-.29-.46-.06-.19-.21-.23-.46-.1-.13.25-.06.62.19,1.1.13.38.31.5.56.38s.44-.13.56,0c.13,0,.21.04.27.1.07.06.1.08.1.08ZM30.46,56c.25-.25.38-.44.38-.56,0-.25-.13-.38-.38-.38-.25.25-.38.5-.38.75,0,.13.13.19.38.19ZM27.31,55.44c0,.38.24.69.73.94.38.25.69.25.94,0v-.19c-.25-.13-.47-.31-.67-.56-.18-.25-.4-.38-.65-.38-.13.13-.22.19-.27.19h-.08ZM61.87,56.19c-.25,0-.31.06-.19.19.13.38.56.56,1.31.56.13,0,.19-.13.19-.38-.13-.38-.31-.53-.56-.46-.25.06-.5.08-.75.08ZM31.58,56.75c-.25,0-.38.31-.38.92,0,.13-.06.29-.19.48-.13.18,0,.21.38.08.38,0,.56-.31.56-.94,0-.48-.13-.67-.38-.54ZM67.83,56.75c-.13-.13-.19-.06-.19.19.13.11.19.27.19.46,0,.18.06.33.19.46.13,0,.19-.06.19-.19-.13-.25-.16-.43-.1-.54.07-.13-.02-.25-.27-.38ZM52.58,57.3v.56c0,.25.19.44.56.56.25,0,.38-.19.38-.56,0-.73-.19-1.1-.56-1.1-.25,0-.38.18-.38.54ZM28.23,57.3c0,.25.19.5.56.75.38,0,.56-.13.56-.38,0-.38-.19-.61-.56-.73-.38,0-.56.12-.56.35ZM34.73,57.48c.5.25.75.19.75-.19,0-.23-.19-.35-.56-.35-.61,0-.92.18-.92.54h.73ZM58.54,57.11c-.13,0-.22.04-.29.1l-.08.08c.25.25.38.54.38.85s.11.52.35.65c.38.13.56-.13.56-.75.13-.38-.18-.69-.92-.94ZM65.79,57.48c-.25,0-.38.13-.38.38,0,.13.13.31.38.56.23,0,.35-.13.35-.38,0-.38-.12-.56-.35-.56ZM27.12,58.23c0-.25-.13-.38-.38-.38-.13-.13-.19-.06-.19.19-.13.38-.06.56.19.56s.38-.13.38-.38ZM55.75,58.23c-.38,0-.56.13-.56.38s.25.5.75.75c.25,0,.38-.13.38-.38,0-.5-.19-.75-.56-.75ZM65.98,59.17c-.75,0-1.13.18-1.13.54s.43.44,1.29.19c0-.25.13-.21.38.1.25.31.38.15.38-.48s-.31-.73-.92-.35ZM26.19,59.9c-.38,0-.56.13-.56.38.13.13.21.29.27.48.07.18.23.21.48.08.38,0,.56-.19.56-.56,0-.25-.25-.38-.75-.38ZM32.69,60.65c0-.25-.06-.38-.19-.38-.74,0-1.04.25-.92.75,0,.13-.06.34-.19.65-.13.31-.06.52.19.65,0,0,.19-.3.56-.92l.54-.75ZM34.73,61.94c.25,0,.38-.18.38-.54,0-.5-.24-.75-.73-.75-.25.25-.38.44-.38.56.25.61.49.85.73.73ZM21.91,61.02c-.13.13-.06.29.19.48.25.18.38.39.38.63,0,.13.03.29.08.48.05.18.08.4.08.65,0,.86.31.99.94.38-.25-.25-.31-.56-.19-.94s0-.68-.38-.92c-.13-.13-.28-.31-.46-.56-.18-.25-.4-.31-.65-.19ZM26.94,62.13c0,.13-.06.25-.19.38s-.13.31,0,.56c.48,0,.73-.25.73-.75.25-.25.19-.49-.17-.73-.38,0-.5.18-.38.54ZM64.66,62.69c-.13.13-.44.29-.94.48-.49.18-.3.52.56,1.02.25.11.13.29-.38.54-.13.13-.38.25-.75.38-.36.13-.48.31-.35.56,0,1.11-.31,2.17-.94,3.17-.13.24-.04.45.27.65.32.18.54.27.67.27.5-.13.59-.25.27-.38-.31-.13-.4-.24-.27-.35.25-.25.38-.53.38-.83s.18-.42.54-.29c.5,0,.63.38.38,1.13,0,.24.06.42.19.54l.38.38c.13,0,.19-.19.19-.56v-.54c0-.5-.06-.88-.19-1.13-.13-.38-.25-.78-.38-1.21-.13-.43.25-.71,1.13-.83.13-.13.19-.31.19-.56-.25-.25-.35-.55-.29-.92.07-.38.1-.69.1-.94.13-.5.06-.78-.19-.83-.25-.07-.44.02-.56.27ZM33.44,63.25c0-.38-.19-.63-.56-.75-.25,0-.38.19-.38.56,0,.25.13.44.38.56.25,0,.44-.13.56-.38ZM24.89,64c0-.63-.31-.75-.94-.38.38.49.31.98-.19,1.48-.13,0-.19.06-.19.19s.06.19.19.19c.5,0,.78-.19.83-.56.07-.38.17-.68.29-.92ZM67.27,63.63c-.75,0-1.13.24-1.13.73.25.5.44.69.56.56.63-.25,1-.61,1.13-1.1.13-.13-.06-.19-.56-.19ZM60.21,64.55c0-.23-.06-.35-.19-.35s-.25-.06-.38-.19c-.25,0-.38.06-.38.19l.56.54c.25.25.38.19.38-.19ZM31.02,64.36c-.13,0-.19.04-.19.1v.08c0,.25.06.38.19.38l.38-.38c0-.36-.13-.42-.38-.19ZM59.27,66.23c-.13,0-.19.18-.19.54-.36.38-.3.56.19.56.25-.13.34-.25.27-.38-.06-.13-.02-.24.1-.35,0-.38-.13-.5-.38-.38ZM25.25,67.15c-.24.13-.6.06-1.1-.19-.38,0-.44.13-.19.38.38.63.69.94.94.94.23-.13.35-.5.35-1.13ZM68.56,67.15c-.11,0-.17.04-.17.1v.08c0,.25.11.38.35.38.25.13.38.06.38-.19l-.56-.38ZM29.35,69.38c.13-.13.3-.36.54-.73-.11,0-.17-.03-.17-.08v-.1c-.13,0-.22.06-.29.19-.06.13-.15.25-.27.38,0,.24.06.35.19.35ZM27.48,71.61c.25.13.38.06.38-.19,0-.36-.13-.6-.38-.73-.24,0-.35.13-.35.38.13.13.19.25.19.38,0,.11.05.17.17.17ZM60.96,71.61c.23-.48.11-.73-.38-.73-.38,0-.56.18-.56.54,0,1-.31,1.19-.94.56-.24-.25-.35-.19-.35.19-.13.5.05,1,.54,1.5.5.36,1,.3,1.5-.19.25-.25.34-.46.27-.65-.06-.19-.08-.35-.08-.48v-.75ZM64.66,71.98c-.13.13-.06.31.19.56.38,0,.56-.19.56-.56,0-.25-.13-.38-.38-.38-.25-.23-.38-.11-.38.38ZM21.54,71.98c-.25,0-.38.13-.38.38s.13.38.38.38c.13,0,.21-.03.27-.08l.1-.1c0-.38-.13-.56-.38-.56ZM25.81,72.17c-.38.13-.56.44-.56.94,0,.25.06.31.19.19.5,0,.75-.25.75-.75,0-.25-.13-.38-.38-.38ZM33.81,77.38c.13-.25.28-.53.46-.83.19-.3.17-.46-.08-.46-.5.11-.88-.01-1.13-.38-.25-.38-.62-.56-1.1-.56,0-.75-.06-1.24-.19-1.48l-.38-.75c0,.13-.13.31-.38.56-.38.61-.25,1.04.38,1.29.13,0,.31.13.56.38,0,.86.36,1.67,1.1,2.42.25.38.5.31.75-.19ZM64.66,73.67c0-.38-.13-.53-.38-.46-.25.06-.49.02-.73-.1-.63-.38-.94-.25-.94.38,0,.36.15.54.46.54h.65c.63.25.94.14.94-.35ZM27.12,74.59c.13,0,.19-.19.19-.56s-.06-.54-.19-.54c-.25,0-.38.18-.38.54.13.13.19.25.19.38s.06.19.19.19ZM62.06,78.32c-.5.24-.78.52-.83.83-.06.31.09.52.46.65.63.13,1.21.41,1.77.83.55.43,1.15.65,1.77.65,0,.13-.04.25-.1.38-.06.13-.08.31-.08.56-.13.13-.29.19-.48.19-.18,0-.21.13-.08.38.25.25.69.38,1.31.38.23-.25.32-.44.27-.56-.06-.13-.08-.25-.08-.38-.25-.5-.44-.81-.56-.94.13-.48.03-.76-.29-.81-.31-.07-.58-.17-.83-.29-.13-.13-.28-.21-.46-.27-.18-.07-.16-.17.08-.29.63-.63.88-1.28.75-1.96-.13-.68-.25-1.32-.38-1.94.38.13.71.25,1.02.38.32.11.35.48.1,1.1-.13.38-.1.78.08,1.21.19.43.35.9.48,1.4,0,.13.09.19.27.19s.27-.06.27-.19c.25-.38.44-.74.56-1.1l.38-1.13c.13-.25.09-.46-.1-.65-.18-.19-.4-.35-.65-.48-.25-.36-.29-.54-.1-.54.19,0,.42-.06.67-.19.63,0,.63-.25,0-.75-.13-.25-.13-.44,0-.56.38,0,.63-.06.75-.19.48,0,.67-.13.54-.38,0-.11-.24-.17-.73-.17s-.97.16-1.4.46c-.43.31-.96.52-1.58.65-.5.25-.75.5-.75.75-.25.13-.5.28-.75.46-.24.18-.54.22-.92.1h-.56l.38.54c.38.5.56.85.56,1.04,0,.18-.25.4-.75.65ZM57.23,76.82c0-.48-.13-.64-.38-.46-.25.18-.49.27-.73.27-.13.13-.25.04-.38-.27-.13-.3-.25-.21-.38.27,0,.38.43.56,1.29.56.38.13.56,0,.56-.38ZM58.73,77.75c-.13.38.05.56.54.56.38.13.56-.13.56-.75,0-.5-.13-.81-.38-.94-.25,0-.41.13-.48.38-.06.25-.14.5-.25.75ZM31.02,79.05c.13-.25.31-.28.56-.08.25.18.38.08.38-.29,0-.23-.13-.44-.38-.63-.25-.19-.5-.23-.75-.1-.5,0-.75.31-.75.92,0,.13.31.19.94.19ZM67.64,78.86c0,.5.06.81.19.94.13-.25.25-.46.38-.65.13-.19.24-.41.35-.65v-.19c0-.13-.06-.19-.17-.19-.25-.13-.5.12-.75.73ZM23.77,79.8c0,.13.13.19.38.19s.5-.25.75-.75c-.25-.25-.38-.25-.38,0-.13.13-.29.19-.48.19-.18,0-.27.13-.27.38ZM57.04,81.46c.38-.36.44-.73.19-1.1-.13-.13-.19-.13-.19,0s-.06.19-.19.19l-.54,1.48c.23-.13.48-.31.73-.56ZM58.73,80.92c-.38.74-.26,1.1.35,1.1,0-.5.25-.81.75-.94.5-.23.56-.42.19-.54-.63-.25-1.06-.13-1.29.38ZM20.98,80.73c-.38,0-.44.12-.19.35l.19.19c.25,0,.38-.11.38-.35,0,0-.04-.03-.1-.08-.06-.07-.15-.1-.27-.1ZM30.83,82.77c.38-.25.44-.69.19-1.31,0-.25-.13-.43-.38-.54l-.19.17c0,.38.03.72.08,1.04.07.31-.15.52-.65.65-.24.25-.24.38,0,.38.38,0,.69-.13.94-.38ZM67.46,85c.13,0,.36-.28.73-.83.38-.55.5-.83.38-.83-.74-.13-1.04-.4-.92-.83.13-.44.13-.85,0-1.23-.25-.23-.44-.3-.56-.19-.13,0-.19.13-.19.38.38.88.38,1.81,0,2.79-.13.25.06.5.56.75ZM24.52,82.4c0-.5-.13-.71-.38-.65-.25.06-.5.02-.75-.1-.5,0-.75.19-.75.56.25.25.53.35.83.29.32-.07.54.02.67.27.25.25.38.13.38-.38ZM60.96,82.4c.13-.13,0-.31-.38-.56,0,.13-.04.19-.1.19h-.08c0,.38.13.56.38.56h.08c.07,0,.1-.06.1-.19ZM60.02,83.69c.25,0,.38-.06.38-.19,0-.11-.19-.35-.56-.73l-.56-.56v.75c.25.49.5.73.75.73ZM63.19,84.82c.25,0,.38-.19.38-.56-.13-.25-.19-.55-.19-.92s-.13-.63-.38-.75c-.5,0-.75.13-.75.38-.13.25-.1.53.08.83.19.31.35.58.48.83,0,.13.06.19.19.19h.19ZM21.54,84.82c-.13-.63-.04-.94.27-.94s.54-.06.67-.19c.36,0,.54-.06.54-.19-.13-.11-.31-.26-.56-.44-.24-.19-.48-.29-.73-.29-.88.25-1.31.62-1.31,1.1,0,.75.25,1.19.75,1.31.25,0,.38-.13.38-.38ZM26.19,84.25c.25,0,.38-.19.38-.56,0-.48-.19-.73-.56-.73-.25,0-.38.18-.38.54,0,.5.19.75.56.75ZM65.04,85l.38-.38c0-.5-.19-.63-.56-.38l-.19.38c0,.25.13.38.38.38ZM28.98,85.19c.25,0,.38-.19.38-.56,0-.25-.06-.38-.19-.38-.25,0-.38.19-.38.56,0,.25.06.38.19.38ZM70.62,84.63c0,.13-.06.19-.19.19s-.19.06-.19.19.13.19.38.19c.23,0,.35-.13.35-.38h-.08c-.06,0-.15-.06-.27-.19ZM32.87,86.86c.25,0,.38-.13.38-.38,0-.13-.25-.19-.75-.19-.36,0-.48.06-.35.19,0,0,.24.13.73.38ZM24.33,87.42c.25,0,.43.04.54.1.13.06.19-.04.19-.29.25-.38.07-.56-.54-.56-.25,0-.35.06-.29.19.07.13.1.31.1.56ZM23.96,87.61l.19-.19c-.5-.25-.85-.21-1.04.1-.18.31-.39.58-.63.81v.19c.36.13.63.04.81-.27.19-.3.42-.52.67-.65ZM25.44,88.71c-.25.25-.38.44-.38.56s.03.19.08.19h.1c.38,0,.56-.13.56-.38s-.13-.38-.38-.38ZM24.71,93.17v.19c0,.13.06.13.19,0,.61-.36.92-.6.92-.73.13-.25,0-.38-.38-.38-.25,0-.41.1-.46.29-.06.18-.15.39-.27.63ZM60.96,144.86c.23.25.35.19.35-.19,0-.13-.03-.21-.08-.27-.06-.07-.08-.17-.08-.29l-.38.38c-.25.25-.19.38.19.38ZM59.27,144.48c-.25,0-.38.25-.38.75,0,.25.13.38.38.38s.34-.09.27-.27c-.06-.19-.02-.35.1-.48,0-.25-.13-.38-.38-.38ZM58.73,146.71c-.38,0-.56.06-.56.19.13.25.19.5.19.75s.18.44.54.56c.25,0,.38-.06.38-.19,0-.75-.18-1.19-.54-1.31ZM60.39,147.65c-.25,0-.38.06-.38.19,0,.38.13.56.38.56.13-.13.19-.38.19-.75h-.19ZM67.08,149.32c.5.25.75.19.75-.19s-.1-.51-.29-.46c-.18.06-.33.03-.46-.08-.5,0-.75.12-.75.35,0,.25.25.38.75.38ZM26,149.5c.25,0,.38-.06.38-.19,0-.25-.13-.38-.38-.38s-.38.13-.38.38c0,.13.13.19.38.19ZM57.23,150.82c.25.61.75.68,1.5.19.73-.25.92-.69.54-1.31-.13-.63-.28-.78-.46-.46-.18.31-.4.46-.65.46s-.5-.13-.75-.38c-.5-.25-.87-.31-1.1-.19-.13.13-.31.13-.56,0s-.38-.06-.38.19c0,.38.19.56.56.56.25.13.49.22.73.29.25.06.44.27.56.65ZM63.56,150.44c.11-.13.11-.25,0-.38,0-.38-.13-.56-.38-.56-.13,0-.19.13-.19.38,0,.13.19.31.56.56ZM60.58,155.27c-.5-.25-.88-.38-1.13-.38-.13,0-.19.13-.19.38.5.25.88.38,1.13.38v-.08c0-.07.06-.17.19-.29ZM57.41,157.5c.25,0,.38-.19.38-.56,0-.5-.25-.75-.75-.75-.25,0-.38.06-.38.19,0,.63.25,1,.75,1.13ZM58.89,156.75c0,.13.03.19.08.19.07,0,.1.06.1.19.25,0,.38-.06.38-.19,0-.25-.06-.38-.19-.38-.25-.13-.38-.06-.38.19ZM52.02,158.42c.13.13.38.01.75-.35,0-.25-.13-.38-.38-.38-.13,0-.31.13-.56.38,0,.24.06.35.19.35ZM64.29,159.73c.5-.13.75-.44.75-.94,0-.25-.13-.38-.38-.38-.5.25-.69.63-.56,1.13l.19.19ZM60.39,160.3c.25,0,.38-.19.38-.56-.38-.38-.75-.56-1.13-.56-.5,0-.63.13-.38.38.13.25.31.41.56.48.25.06.44.15.56.27Z"/>
  <path d="M171.94,150.25c0,1.24.05,2.48.17,3.73.13,1.24,0,2.47-.35,3.71-.25.61-.25,1.23,0,1.85.25.86.31,1.67.19,2.42s-.13,1.56,0,2.42c.13.63.13,1.31,0,2.06-.13.74-.13,1.41,0,2.02.23.63-.08.94-.94.94-2.36-.13-4.72-.19-7.08-.19h-7.04c-1.11,0-2.23-.03-3.35-.08-1.11-.07-2.22-.1-3.33-.1-.25,0-.56.06-.94.19s-.63.13-.75,0c-.36-.38-.45-.71-.27-1.02.18-.3.27-.65.27-1.02,0-1.11-.04-2.26-.1-3.44-.06-1.18-.08-2.39-.08-3.63,0-5.71.09-11.41.27-17.1.19-5.71-.02-11.41-.63-17.1.23-1.73.38-3.5.44-5.29.07-1.8.1-3.57.1-5.31,0-.61-.06-1.04-.19-1.29s-.56-.38-1.29-.38c-1.61,0-3.16-.06-4.65-.19-1.49-.13-2.97-.06-4.46.19-.5.13-1.06.13-1.69,0-.86,0-1.35.06-1.48.19s-.19.68-.19,1.67v4.29c0,1.49.06,2.97.19,4.46.13,1.36.21,2.72.27,4.08.07,1.36-.02,2.72-.27,4.08-.38,2.97-.38,5.89,0,8.75.13.74.13,1.48,0,2.23-.13.74-.19,1.48-.19,2.23,0,1.49-.04,2.95-.1,4.38-.06,1.42-.02,2.87.1,4.35.13.75.15,1.5.08,2.25-.06.74-.02,1.41.1,2.02.13.5.15,1.03.08,1.58-.06.56-.15,1.15-.27,1.77-.13.5-.16.97-.1,1.4.07.43.1.9.1,1.4,0,.13.03.25.08.38.07.13.1.31.1.54,0,1.61-.04,2.54-.1,2.79-.06.25-.95.44-2.69.56-3.1.13-6.2.16-9.29.1-3.1-.07-6.26-.1-9.48-.1-.88,0-1.41-.09-1.58-.27-.18-.19-.27-.72-.27-1.58v-13.94c0-1.73-.06-3.41-.19-5.02-.13-1.61-.1-3.16.08-4.65.19-1.48.17-3.03-.08-4.65-.13-1-.19-2.03-.19-3.08s.06-2.14.19-3.25c.25-.98.34-1.97.27-2.96-.06-1-.08-1.99-.08-2.98v-21.56c0-1.38-.06-2.74-.19-4.1-.13-.98-.16-2.07-.1-3.25.07-1.18.1-2.26.1-3.25,0-1.48.03-2.97.08-4.46.07-1.48-.02-2.91-.27-4.27-.13-.25-.16-.53-.1-.83.07-.32.1-.6.1-.85,0-1.61.09-3.22.27-4.83.19-1.61.1-3.22-.27-4.83-.13-.38-.1-.74.08-1.1.19-.38.23-.81.1-1.31,0-1.23-.04-2.44-.1-3.6-.06-1.18-.02-2.4.1-3.65.13-1.73.13-3.46,0-5.19-.13-1.73-.13-3.41,0-5.02.13-1.98.19-3.97.19-5.96v-5.96c0-.48-.13-.92-.38-1.29s-.31-.8-.19-1.29c.13-.75.55-1.13,1.29-1.13,3.47,0,6.91.06,10.31.19,3.42.13,6.86.19,10.33.19.38,0,.74-.13,1.1-.38.38-.25.69-.13.94.38.25.25.25.53,0,.83-.25.31-.31.58-.19.83.13,1.24.15,2.45.08,3.63-.06,1.18-.02,2.45.1,3.81.25,1.11.25,2.29,0,3.54-.13.86-.19,1.67-.19,2.42v2.23c0,2.1-.04,4.24-.1,6.42-.06,2.17-.02,4.36.1,6.58.13,1,.15,2.06.08,3.17-.06,1.11-.08,2.17-.08,3.17v15.6c0,.88.38,1.31,1.13,1.31,1.84,0,3.7.09,5.56.27,1.86.18,3.66.09,5.4-.27.88,0,1.36-.06,1.48-.19.13-.13.19-.63.19-1.5-.13-3.22-.16-6.41-.1-9.56.07-3.17.1-6.3.1-9.4,0-.98.03-2.01.08-3.06.07-1.05-.02-2.14-.27-3.25.25-4.09.38-8.21.38-12.35v-12.38c0-1.11.09-1.76.27-1.94.19-.19.84-.23,1.96-.1,1.61.13,3.16.22,4.65.29,1.5.06,3.05-.04,4.67-.29.61-.13,1.17-.09,1.67.1.5.18.99.21,1.48.08,1.23-.25,2.44-.31,3.63-.19,1.18.13,2.39.19,3.63.19,1.13,0,1.63.56,1.5,1.67-.13,1.24-.13,2.54,0,3.92.23.99.29,2.01.17,3.06-.11,1.06-.17,2.14-.17,3.25v9.29c0,.13.03.29.08.48.07.18.04.4-.08.65-.25,1.85-.29,3.7-.1,5.56.19,1.86.17,3.72-.08,5.58-.13.86-.13,1.7,0,2.5.13.81.19,1.58.19,2.33,0,.99.03,2.01.08,3.06.07,1.06-.02,2.08-.27,3.06-.13.38-.16.79-.1,1.23.07.43.17.83.29,1.19.23.75.32,1.53.27,2.33-.06.81-.15,1.64-.27,2.5-.13,1.38-.22,2.81-.29,4.29-.06,1.49-.02,2.91.1,4.27.13,1.24.21,2.45.27,3.63.07,1.18-.02,2.39-.27,3.63.25,1.61.28,3.16.08,4.65-.18,1.49-.15,2.97.1,4.46.13.5.09,1.03-.1,1.58-.18.56-.21,1.15-.08,1.77.25,1.24.28,2.54.08,3.9-.18,1.36-.21,2.72-.08,4.08.13,1.25.15,2.49.08,3.73-.06,1.24-.08,2.47-.08,3.71,0,2.61.03,5.22.08,7.81.07,2.6.1,5.2.1,7.81ZM120.25,47.63c-.13,0-.31.13-.56.38,0,.25.06.38.19.38s.31-.13.56-.38c0-.25-.06-.38-.19-.38ZM125.65,48c-.25,0-.38.13-.38.38s.13.38.38.38.38-.13.38-.38-.13-.38-.38-.38ZM161.15,53.96c0,.25.13.38.38.38.13,0,.31-.13.56-.38,0-.25-.13-.38-.38-.38-.38,0-.56.13-.56.38ZM155.94,56.38c.25.25.5.13.75-.38,0-.38-.13-.44-.38-.19-.5,0-.69.13-.56.38l.19.19ZM126.21,57.48c0-.25-.06-.38-.19-.38l-.38.38c-.25.25-.19.38.19.38l.38-.38ZM121.73,58.23v2.42c0-.13.13-.31.38-.56.13-.25.28-.53.46-.83.19-.3.48-.27.85.1.25.24.38.11.38-.38.23-.38.11-.56-.38-.56-.25,0-.54-.06-.85-.19-.31-.13-.58-.13-.83,0ZM127.5,60.09c-.38.13-.63.38-.75.75,0,0,.03.04.08.1.07.06.17.08.29.08.25-.13.4-.25.46-.38.07-.13.17-.25.29-.38,0-.13-.06-.21-.19-.27-.13-.07-.19-.04-.19.08ZM124.9,61.21l-.94-.94c-.11-.25-.29-.25-.54,0s-.25.44,0,.56c.25.25.55.5.92.75.38.24.25.67-.38,1.29-.11.13.01.19.38.19.25,0,.46-.15.65-.46.19-.32.35-.54.48-.67.25-.23.25-.38,0-.44-.25-.07-.44-.17-.56-.29ZM167.46,64c.13-.13.19-.38.19-.75,0-.5-.06-.75-.19-.75-.11-.13-.2-.13-.27,0-.06.13-.02.25.1.38,0,.13.03.29.08.48.05.18.08.4.08.65ZM126.02,65.3c.13.13.15.31.08.56-.06.25.16.31.65.19.75-.25,1.03-.59.83-1.02-.18-.44-.08-.78.29-1.02v-.19c0-.13-.06-.19-.19-.19-.25,0-.38.06-.38.19,0,.49-.16.79-.48.92-.31.13-.58.31-.81.56v-1.48c0-.5-.13-.63-.38-.38-.38,0-.63.06-.75.19s-.06.31.19.56c.25.11.4.27.46.46.07.18.23.4.48.65ZM124.15,64.55c0-.23-.12-.35-.35-.35-.25,0-.5-.09-.75-.27-.25-.19-.5-.23-.75-.1v.38c.25.36.53.52.83.46.32-.07.59.02.83.27l.08-.08c.07-.07.1-.17.1-.29ZM116.35,65.11c-.5,0-.75.13-.75.38,0,.5.31.63.94.38.36-.25.76-.38,1.19-.38h1.23c-.5.5-.75.88-.75,1.13-.13.11-.22.17-.29.17h-.08c-.13.13-.31.19-.56.19s-.44.13-.56.38l.19.19c.88.25,1.31.06,1.31-.56v-.35c.38.24.68.58.92,1.02.25.43.56.77.94,1.02h.56c.13-.13.06-.31-.19-.56-.5-.63-.75-1.05-.75-1.29s.25-.63.75-1.13l.08-.08c.07-.07.04-.17-.08-.29,0-.13-.13-.19-.38-.19-.5.25-.87.38-1.1.38-.13-.86-.69-1.11-1.69-.75-.38.38-.68.5-.92.38ZM123.96,68.27c.25-.25.56-.46.94-.65.38-.19.44-.53.19-1.02.25-.5.19-.81-.19-.94-.38-.25-.69-.13-.94.38-.11.13-.29.19-.54.19s-.44.13-.56.38c-.13.24-.29.45-.48.65-.18.18-.02.4.48.65.25,0,.46.13.65.38.19.25.34.25.46,0ZM117.27,69.02c0,.24.19.35.56.35s.38-.18,0-.54c0-.25-.13-.38-.38-.38-.13.13-.19.31-.19.56ZM127.69,69.94l-.38-.38c-.38,0-.56.06-.56.19l.38.38c.13.13.31.06.56-.19ZM121.92,72.17c-.49,0-.61.13-.38.38,0,.38.25.56.75.56.25,0,.38-.19.38-.56,0-.25-.1-.34-.29-.27-.18.06-.33.02-.46-.1ZM124.15,72.55c-.24.25-.18.38.19.38.25,0,.38-.13.38-.38s-.06-.38-.19-.38c-.25,0-.38.13-.38.38ZM122.1,78.32c.38,0,.56-.13.56-.38s-.06-.38-.19-.38c-.13-.13-.31-.06-.56.19-.13.13-.06.31.19.56ZM165.98,85c-.25-.38-.22-.69.08-.94.32-.25.48-.49.48-.73,0-.13-.04-.21-.1-.27-.06-.07-.08-.1-.08-.1-.25-.25-.38-.25-.38,0-.38.36-.63.54-.75.54-.13.13-.28.22-.46.29-.18.06-.15.21.1.46.11.13.19.31.25.56.07.25.23.38.48.38.13,0,.25-.06.38-.19ZM163.94,85.57c.25.24.38.18.38-.19,0-.13-.04-.21-.1-.27-.06-.07-.08-.1-.08-.1-.38,0-.69-.13-.94-.38s-.56-.38-.92-.38c-.13-.13-.22-.15-.29-.08l-.08.08v.38c.25.13.53.31.83.56.3.25.71.38,1.21.38ZM155.94,90.94c.25-.23.5-.6.75-1.1h-.56c-.25,0-.38.25-.38.75-.25.24-.19.35.19.35ZM145.71,97.09c-.24,0-.35.13-.35.38,0,.13.03.22.08.29.07.06.1.14.1.25l.35-.35c0-.25-.06-.44-.19-.56ZM141.81,98.75c.25,0,.38-.13.38-.38-.13-.13-.19-.24-.19-.35,0-.13-.06-.19-.19-.19-.25,0-.38.12-.38.35,0,.13.13.31.38.56ZM142.75,99.32c0,.25.18.38.54.38s.56-.13.56-.38-.19-.38-.56-.38-.54.13-.54.38ZM145.35,101.17c.23,0,.42-.19.54-.56v-.08c0-.07-.06-.16-.19-.27-.11,0-.29.18-.54.54v.19c0,.13.06.19.19.19ZM147.58,103.59c.25-.13.49-.21.73-.27.25-.07.25-.28,0-.65-.13-.25-.16-.5-.1-.75.07-.25-.02-.38-.25-.38-.13-.13-.38.19-.75.94-.13.13-.25.19-.38.19s-.31.06-.56.17c-.38,0-.5.19-.38.56.13.25.38.31.75.19.13,0,.28.04.46.1.19.06.35.02.48-.1ZM143.48,102.48c.5,0,.75-.13.75-.38s-.19-.38-.56-.38c-.36-.25-.54-.13-.54.38,0,.25.11.38.35.38ZM133.63,109.55c.13,0,.21-.09.27-.27.07-.19.04-.35-.08-.48-.24-.25-.48-.5-.73-.75s-.63-.19-1.13.19c0-.13-.04-.25-.1-.38-.06-.13-.02-.24.1-.35.13-.13,0-.38-.38-.75-.25-.25-.38-.25-.38,0-.24.25-.24.56,0,.92.25.13.4.22.46.29.07.06.17.15.29.27l-.56.56c.5.5,1.24.75,2.23.75ZM128.63,115.67c0-.13-.04-.21-.1-.27-.06-.07-.08-.1-.08-.1-.13,0-.22.04-.29.1-.06.06-.15.08-.27.08,0,.25.06.38.19.38.38.13.56.06.56-.19ZM121.54,127.75c-.24,0-.42.06-.54.19,0,0,.03.04.08.1.07.06.1.15.1.27h.54c0-.13-.04-.21-.1-.27-.06-.07-.08-.17-.08-.29ZM121,130.92c0-.63-.25-1-.75-1.13,0,.13-.06.19-.19.19s-.19.06-.19.19c0,.38.25.69.75.94.25,0,.38-.06.38-.19ZM124.33,133.15c-.25.25-.38.44-.38.56l.19.19c.13-.13.25-.21.38-.27.13-.07.19-.17.19-.29,0,0-.04-.03-.1-.08-.06-.07-.15-.1-.27-.1ZM126.56,135.94l.56.56c.25-.13.5-.21.75-.27.25-.07.38-.23.38-.48,0-.38-.25-.69-.75-.94-.5-.13-.72-.03-.67.29.07.31-.02.58-.27.83ZM115.79,135.94c0,.13.03.19.08.19h.1c.38,0,.56-.13.56-.38s-.13-.38-.38-.38c-.38,0-.5.19-.38.56ZM124.33,137.23c.13,0,.28-.06.46-.19.19-.13.17-.25-.08-.38-.13-.11-.19-.26-.19-.44,0-.19-.13-.29-.38-.29s-.35.19-.35.56c0,.49.18.73.54.73ZM121.73,137.23c.38,0,.56-.19.56-.56,0-.23-.06-.35-.19-.35-.38,0-.56.18-.56.54-.24.25-.18.38.19.38ZM118.77,137.98c.13-.25.24-.46.35-.65.13-.19.07-.42-.17-.67h-.19c-.25.25-.25.69,0,1.31ZM118.02,138.17c-.63-.25-1.12-.06-1.48.56,0,.24.05.35.17.35.25,0,.5.06.75.19s.5.06.75-.19c.25-.23.38-.48.38-.73-.25,0-.44-.06-.56-.19ZM118.77,139.65c-.38.38-.38.81,0,1.31.36.36.67.64.92.83.25.18.63.15,1.13-.1.13,0,.21.04.27.1.07.06.17.08.29.08.48,0,.73-.06.73-.19,0-.23-.19-.35-.56-.35-.49-.25-.73-.38-.73-.38-1,.36-1.31.05-.94-.94,0-.5-.06-.75-.19-.75-.13-.13-.25-.13-.38,0s-.31.25-.54.38ZM116.9,144.11c-.13.38.03.54.46.48.44-.07.73-.04.85.08.13.5.3.72.54.67.25-.07.5-.1.75-.1.13,0,.21-.06.27-.19.07-.13.04-.19-.08-.19-.13-.38-.49-.44-1.1-.19h-.38v-1.29c0-.38-.13-.75-.38-1.13,0-.5-.13-.63-.38-.38s-.38.6-.38,1.04-.06.83-.19,1.19ZM120.06,143.57c0,.49.31.73.94.73.73,0,1.1-.24,1.1-.73s-.16-.65-.46-.46c-.31.18-.58.21-.83.08-.5-.25-.75-.13-.75.38ZM131.58,145.8c.5,0,.56-.19.19-.56,0-.13-.06-.19-.19-.19-.25.25-.31.5-.19.75h.19ZM116.35,147.46c.23,0,.35-.13.35-.38s.06-.44.19-.56c0-.36-.12-.54-.35-.54-.25,0-.38.24-.38.73s.06.75.19.75ZM119.31,148.94c.25,0,.56-.28.94-.83.38-.55.56-.9.56-1.02,0-.5-.13-.75-.38-.75h-.75c-.74,0-1.14.06-1.21.19-.06.13-.08.56-.08,1.31s.3,1.1.92,1.1ZM125.46,147.65c.25-.25.44-.38.56-.38,0-.25-.06-.38-.19-.38s-.31.13-.56.38c0,.25.06.38.19.38ZM129.35,149.13l.38-.38c-.13-.23-.25-.35-.38-.35s-.31-.06-.56-.19c-.11,0-.17.18-.17.54.23.25.48.38.73.38ZM128.79,150.44c0-.38-.18-.56-.54-.56s-.56.13-.56.38c.13.13.25.19.38.19s.25.06.38.19c.23,0,.35-.06.35-.19ZM124.15,152.11c0-.63-.12-.94-.35-.94-.13,0-.19.19-.19.56,0,.5.11.75.35.75.13.13.19,0,.19-.38ZM117.08,152.11c0,.5.25.66.75.48.5-.19.81-.1.94.27,0,.13.03.16.08.1.07-.07.1-.17.1-.29,0-.75-.31-1.13-.94-1.13-.13-.13-.31-.13-.56,0s-.38.31-.38.56ZM125.46,152.3c.38,0,.56-.13.56-.38s-.06-.38-.19-.38c-.38,0-.56.13-.56.38-.25.25-.19.38.19.38ZM120.81,154.34c.25-.13.31-.28.19-.46-.13-.19-.13-.34,0-.46,0-.25-.06-.38-.19-.38-.25.13-.38.43-.38.92,0,.25.13.38.38.38ZM119.88,154.52c-.13-.38-.38-.63-.75-.75-.24-.13-.48.13-.73.75,0,.25.19.38.56.38.36.25.67.13.92-.38ZM127.88,154.34c-.5,0-.69.13-.56.38,0,.25.03.56.08.94.07.36.23.54.48.54.25.13.34.01.27-.35-.06-.38-.02-.63.1-.75.36-.5.23-.75-.38-.75ZM115.6,155.65c.13-.25.09-.34-.1-.27-.18.06-.33.08-.46.08-.61,0-1.04.13-1.29.38,0,0-.04.03-.1.08-.06.06-.08.15-.08.27,0,.25.13.25.38,0,.36-.36.73-.48,1.1-.35.38.11.56.05.56-.19ZM123.04,156.19c.25.25.38.25.38,0,0-.36-.19-.6-.56-.73-.25,0-.38.13-.38.38,0,.11.06.17.19.17s.25.06.38.19ZM120.25,158.98c.13,0,.19-.24.19-.73,0-.38-.13-.53-.38-.46-.25.06-.5.08-.75.08-.36,0-.6.09-.73.27-.13.18-.25.4-.38.65,0,.13.06.19.19.19.25-.25.53-.31.83-.19.3.13.65.19,1.02.19ZM128.63,159.17c.36.13.54-.06.54-.56s-.09-.64-.27-.46c-.18.18-.4.22-.65.1-.13.11-.31.11-.56,0-.25-.13-.38-.07-.38.17,0,.38.15.56.46.56s.6.06.85.19ZM122.85,161.4c.5,0,.5-.13,0-.38-.13-.13-.41-.06-.83.19-.43.25-.71.5-.83.75,0,.25.11.38.35.38s.46-.15.65-.46c.19-.32.42-.48.67-.48Z"/>
</svg>